<svg width="386" height="121" viewBox="0 0 386 121" fill="none" xmlns="http://www.w3.org/2000/svg">
<path d="M96.4553 103.18C95.1593 103.18 94.1993 102.76 93.5753 101.92C92.9633 101.068 92.6393 100.036 92.6033 98.824L92.5853 98.32L92.6033 97.816C92.6393 96.604 92.9633 95.578 93.5753 94.738C94.1993 93.886 95.1593 93.46 96.4553 93.46C97.7633 93.46 98.7713 93.934 99.4793 94.882V90.616C99.4793 90.496 99.5153 90.4 99.5873 90.328C99.6593 90.256 99.7553 90.22 99.8753 90.22H100.181C100.301 90.22 100.397 90.256 100.469 90.328C100.541 90.4 100.577 90.496 100.577 90.616V102.604C100.577 102.724 100.541 102.82 100.469 102.892C100.397 102.964 100.301 103 100.181 103H99.8753C99.7553 103 99.6593 102.964 99.5873 102.892C99.5153 102.82 99.4793 102.724 99.4793 102.604V101.758C98.7833 102.706 97.7753 103.18 96.4553 103.18ZM96.5633 102.136C97.5113 102.136 98.2253 101.824 98.7053 101.2C99.1853 100.564 99.4433 99.82 99.4793 98.968C99.4913 98.848 99.4973 98.614 99.4973 98.266C99.4973 97.918 99.4913 97.684 99.4793 97.564C99.4673 97.048 99.3533 96.562 99.1373 96.106C98.9213 95.638 98.5973 95.254 98.1653 94.954C97.7333 94.654 97.1993 94.504 96.5633 94.504C95.5913 94.504 94.8773 94.816 94.4213 95.44C93.9773 96.052 93.7373 96.844 93.7013 97.816L93.6833 98.32C93.6833 99.436 93.8993 100.354 94.3313 101.074C94.7633 101.782 95.5073 102.136 96.5633 102.136ZM104.683 106.06C104.563 106.06 104.467 106.024 104.395 105.952C104.323 105.88 104.287 105.784 104.287 105.664V101.146L103.153 101.992C103.093 102.04 103.015 102.064 102.919 102.064C102.799 102.064 102.691 102.01 102.595 101.902L102.469 101.722C102.409 101.638 102.379 101.554 102.379 101.47C102.379 101.35 102.433 101.248 102.541 101.164L104.269 99.886C104.389 99.802 104.527 99.76 104.683 99.76H104.935C105.055 99.76 105.151 99.796 105.223 99.868C105.295 99.94 105.331 100.036 105.331 100.156V105.664C105.331 105.784 105.295 105.88 105.223 105.952C105.151 106.024 105.055 106.06 104.935 106.06H104.683ZM108.849 106.06C108.729 106.06 108.633 106.024 108.561 105.952C108.489 105.88 108.453 105.784 108.453 105.664V101.146L107.319 101.992C107.259 102.04 107.181 102.064 107.085 102.064C106.965 102.064 106.857 102.01 106.761 101.902L106.635 101.722C106.575 101.638 106.545 101.554 106.545 101.47C106.545 101.35 106.599 101.248 106.707 101.164L108.435 99.886C108.555 99.802 108.693 99.76 108.849 99.76H109.101C109.221 99.76 109.317 99.796 109.389 99.868C109.461 99.94 109.497 100.036 109.497 100.156V105.664C109.497 105.784 109.461 105.88 109.389 105.952C109.317 106.024 109.221 106.06 109.101 106.06H108.849Z" fill="#4E4E4E"/>
<path d="M86 111V72" stroke="#4E4E4E" stroke-dasharray="5 5"/>
<path d="M116 111V72" stroke="#4E4E4E" stroke-dasharray="5 5"/>
<path d="M117.646 97.3536C117.451 97.1583 117.451 96.8417 117.646 96.6464L120.828 93.4645C121.024 93.2692 121.34 93.2692 121.536 93.4645C121.731 93.6597 121.731 93.9763 121.536 94.1716L118.707 97L121.536 99.8284C121.731 100.024 121.731 100.34 121.536 100.536C121.34 100.731 121.024 100.731 120.828 100.536L117.646 97.3536ZM141 97.5H118V96.5H141V97.5Z" fill="#4E4E4E"/>
<path d="M84.3536 96.6464C84.5488 96.8417 84.5488 97.1583 84.3536 97.3536L81.1716 100.536C80.9763 100.731 80.6597 100.731 80.4645 100.536C80.2692 100.34 80.2692 100.024 80.4645 99.8284L83.2929 97L80.4645 94.1716C80.2692 93.9763 80.2692 93.6597 80.4645 93.4645C80.6597 93.2692 80.9763 93.2692 81.1716 93.4645L84.3536 96.6464ZM84 97.5H61V96.5H84V97.5Z" fill="#4E4E4E"/>
<circle cx="116" cy="61" r="4" transform="rotate(-180 116 61)" fill="#CADEFC" stroke="black"/>
<path d="M90 61H112" stroke="#252323" stroke-opacity="0.3" stroke-dasharray="2 2"/>
<path d="M46.3268 53C46.2068 53 46.1108 52.964 46.0388 52.892C45.9668 52.82 45.9308 52.724 45.9308 52.604V44.684H44.3288C44.2088 44.684 44.1128 44.648 44.0408 44.576C43.9688 44.504 43.9328 44.408 43.9328 44.288V44.036C43.9328 43.916 43.9688 43.82 44.0408 43.748C44.1128 43.676 44.2088 43.64 44.3288 43.64H45.9308V42.614C45.9308 41.702 46.1288 40.988 46.5248 40.472C46.9208 39.944 47.6288 39.68 48.6488 39.68H49.5848C49.7048 39.68 49.8008 39.716 49.8728 39.788C49.9448 39.86 49.9808 39.956 49.9808 40.076V40.328C49.9808 40.448 49.9448 40.544 49.8728 40.616C49.8008 40.688 49.7048 40.724 49.5848 40.724H48.6488C48.0368 40.724 47.6108 40.886 47.3708 41.21C47.1428 41.522 47.0288 42.02 47.0288 42.704V43.64H49.4048C49.5248 43.64 49.6208 43.676 49.6928 43.748C49.7648 43.82 49.8008 43.916 49.8008 44.036V44.288C49.8008 44.408 49.7648 44.504 49.6928 44.576C49.6208 44.648 49.5248 44.684 49.4048 44.684H47.0288V52.604C47.0288 52.724 46.9928 52.82 46.9208 52.892C46.8488 52.964 46.7528 53 46.6328 53H46.3268ZM52.7051 56.06C52.5851 56.06 52.4891 56.024 52.4171 55.952C52.3451 55.88 52.3091 55.784 52.3091 55.664V51.146L51.1751 51.992C51.1151 52.04 51.0371 52.064 50.9411 52.064C50.8211 52.064 50.7131 52.01 50.6171 51.902L50.4911 51.722C50.4311 51.638 50.4011 51.554 50.4011 51.47C50.4011 51.35 50.4551 51.248 50.5631 51.164L52.2911 49.886C52.4111 49.802 52.5491 49.76 52.7051 49.76H52.9571C53.0771 49.76 53.1731 49.796 53.2451 49.868C53.3171 49.94 53.3531 50.036 53.3531 50.156V55.664C53.3531 55.784 53.3171 55.88 53.2451 55.952C53.1731 56.024 53.0771 56.06 52.9571 56.06H52.7051ZM56.8712 56.06C56.7512 56.06 56.6552 56.024 56.5832 55.952C56.5112 55.88 56.4752 55.784 56.4752 55.664V51.146L55.3412 51.992C55.2812 52.04 55.2032 52.064 55.1072 52.064C54.9872 52.064 54.8792 52.01 54.7832 51.902L54.6572 51.722C54.5972 51.638 54.5672 51.554 54.5672 51.47C54.5672 51.35 54.6212 51.248 54.7292 51.164L56.4572 49.886C56.5772 49.802 56.7152 49.76 56.8712 49.76H57.1232C57.2432 49.76 57.3392 49.796 57.4112 49.868C57.4832 49.94 57.5192 50.036 57.5192 50.156V55.664C57.5192 55.784 57.4832 55.88 57.4112 55.952C57.3392 56.024 57.2432 56.06 57.1232 56.06H56.8712Z" fill="#4E4E4E"/>
<path d="M73 61L68 58.1132V63.8868L73 61ZM43 61.5L68.5 61.5V60.5L43 60.5V61.5Z" fill="#4E4E4E"/>
<path d="M120 61L199 61L278 61" stroke="#252323"/>
<circle cx="86" cy="61" r="4" transform="rotate(-180 86 61)" fill="#CADEFC" fill-opacity="0.7" stroke="#242121" stroke-opacity="0.3"/>
<circle cx="282" cy="61" r="4" transform="rotate(-180 282 61)" fill="#CADEFC" stroke="black"/>
</svg>
