<svg width="446" height="108" viewBox="0 0 446 108" fill="none" xmlns="http://www.w3.org/2000/svg">
<path d="M200 57H418" stroke="#252323"/>
<path d="M27 57L192 57" stroke="#252323"/>
<circle cx="23" cy="57" r="4" transform="rotate(-180 23 57)" fill="#CADEFC" stroke="black" stroke-width="0.5"/>
<rect width="33" height="13" transform="matrix(1 0 0 -1 6 87)" fill="url(#paint0_linear)"/>
<line x1="6" y1="73.5" x2="39" y2="73.5" stroke="black"/>
<path d="M13 74L7 80" stroke="#888888" stroke-width="0.5"/>
<path d="M36 74L30 80" stroke="#888888" stroke-width="0.5"/>
<path d="M28 74L22 80" stroke="#888888" stroke-width="0.5"/>
<path d="M20 74L14 80" stroke="#888888" stroke-width="0.5"/>
<path d="M16.5048 72.75L23 61.5L29.4952 72.75H16.5048Z" fill="#CADEFC" stroke="black" stroke-width="0.5"/>
<rect width="33" height="13" transform="matrix(1 0 0 -1 179 87)" fill="url(#paint1_linear)"/>
<line x1="179" y1="73.5" x2="212" y2="73.5" stroke="#4E4E4E"/>
<path d="M186 74L180 80" stroke="#888888" stroke-width="0.5"/>
<path d="M209 74L203 80" stroke="#888888" stroke-width="0.5"/>
<path d="M201 74L195 80" stroke="#888888" stroke-width="0.5"/>
<path d="M193 74L187 80" stroke="#888888" stroke-width="0.5"/>
<path d="M189.505 72.75L196 61.5L202.495 72.75H189.505Z" fill="#CADEFC" stroke="black" stroke-width="0.5"/>
<path d="M417.043 68.375L422 61.2195L426.957 68.375H417.043Z" fill="#CADEFC" stroke="black" stroke-width="0.25"/>
<path d="M406 87H439V74H406V87Z" fill="url(#paint2_linear)"/>
<line x1="406" y1="73.5" x2="439" y2="73.5" stroke="#4E4E4E"/>
<path d="M413 74L407 80" stroke="#888888" stroke-width="0.5"/>
<path d="M436 74L430 80" stroke="#888888" stroke-width="0.5"/>
<path d="M428 74L422 80" stroke="#888888" stroke-width="0.5"/>
<path d="M420 74L414 80" stroke="#888888" stroke-width="0.5"/>
<circle cx="417" cy="71" r="1.75" fill="#C4C4C4" stroke="#4E4E4E" stroke-width="0.5"/>
<circle cx="427" cy="71" r="1.75" fill="#C4C4C4" stroke="#4E4E4E" stroke-width="0.5"/>
<circle cx="422" cy="71" r="1.75" fill="#C4C4C4" stroke="#4E4E4E" stroke-width="0.5"/>
<circle cx="422" cy="57" r="4" transform="rotate(-180 422 57)" fill="#CADEFC" stroke="black" stroke-width="0.5"/>
<circle cx="196" cy="57" r="4" transform="rotate(-180 196 57)" fill="#CADEFC" stroke="black" stroke-width="0.5"/>
<defs>
<linearGradient id="paint0_linear" x1="16.5" y1="0" x2="16.5" y2="13" gradientUnits="userSpaceOnUse">
<stop stop-color="#C4C4C4" stop-opacity="0"/>
<stop offset="0.53125" stop-color="#CECECE" stop-opacity="0.385417"/>
<stop offset="0.880208" stop-color="#D1D1D1" stop-opacity="0.74"/>
</linearGradient>
<linearGradient id="paint1_linear" x1="16.5" y1="0" x2="16.5" y2="13" gradientUnits="userSpaceOnUse">
<stop stop-color="#C4C4C4" stop-opacity="0"/>
<stop offset="0.53125" stop-color="#CECECE" stop-opacity="0.385417"/>
<stop offset="0.880208" stop-color="#D1D1D1" stop-opacity="0.74"/>
</linearGradient>
<linearGradient id="paint2_linear" x1="422.5" y1="87" x2="422.5" y2="74" gradientUnits="userSpaceOnUse">
<stop stop-color="#C4C4C4" stop-opacity="0"/>
<stop offset="0.53125" stop-color="#CECECE" stop-opacity="0.385417"/>
<stop offset="0.880208" stop-color="#D1D1D1" stop-opacity="0.74"/>
</linearGradient>
</defs>
</svg>
