<svg width="440" height="260" viewBox="0 0 440 260" fill="none" xmlns="http://www.w3.org/2000/svg">
<rect width="440" height="260" fill="white"/>
<rect width="50" height="10" transform="matrix(1 0 0 -1 27 232)" fill="url(#paint0_linear)"/>
<line x1="27" y1="221.5" x2="77" y2="221.5" stroke="#4E4E4E"/>
<path d="M42 222L39 226.286" stroke="#888888" stroke-width="0.5"/>
<path d="M45 222L42 226.286" stroke="#888888" stroke-width="0.5"/>
<path d="M48 222L45 226.286" stroke="#888888" stroke-width="0.5"/>
<path d="M51 222L48 226.286" stroke="#888888" stroke-width="0.5"/>
<path d="M54 222L51 226.286" stroke="#888888" stroke-width="0.5"/>
<path d="M57 222L54 226.286" stroke="#888888" stroke-width="0.5"/>
<path d="M60 222L57 226.286" stroke="#888888" stroke-width="0.5"/>
<path d="M63 222L60 226.286" stroke="#888888" stroke-width="0.5"/>
<rect width="50" height="10" transform="matrix(1 0 0 -1 190 232)" fill="url(#paint1_linear)"/>
<line x1="190" y1="221.5" x2="240" y2="221.5" stroke="#4E4E4E"/>
<path d="M205 222L202 226.286" stroke="#888888" stroke-width="0.5"/>
<path d="M208 222L205 226.286" stroke="#888888" stroke-width="0.5"/>
<path d="M211 222L208 226.286" stroke="#888888" stroke-width="0.5"/>
<path d="M214 222L211 226.286" stroke="#888888" stroke-width="0.5"/>
<path d="M217 222L214 226.286" stroke="#888888" stroke-width="0.5"/>
<path d="M220 222L217 226.286" stroke="#888888" stroke-width="0.5"/>
<path d="M223 222L220 226.286" stroke="#888888" stroke-width="0.5"/>
<path d="M226 222L223 226.286" stroke="#888888" stroke-width="0.5"/>
<rect width="50" height="10" transform="matrix(1 0 0 -1 354 232)" fill="url(#paint2_linear)"/>
<line x1="354" y1="221.5" x2="404" y2="221.5" stroke="#4E4E4E"/>
<path d="M369 222L366 226.286" stroke="#888888" stroke-width="0.5"/>
<path d="M372 222L369 226.286" stroke="#888888" stroke-width="0.5"/>
<path d="M375 222L372 226.286" stroke="#888888" stroke-width="0.5"/>
<path d="M378 222L375 226.286" stroke="#888888" stroke-width="0.5"/>
<path d="M381 222L378 226.286" stroke="#888888" stroke-width="0.5"/>
<path d="M384 222L381 226.286" stroke="#888888" stroke-width="0.5"/>
<path d="M387 222L384 226.286" stroke="#888888" stroke-width="0.5"/>
<path d="M390 222L387 226.286" stroke="#888888" stroke-width="0.5"/>
<circle cx="378.5" cy="33.5" r="3.5" transform="rotate(-180 378.5 33.5)" fill="#CADEFC" stroke="black" stroke-width="0.5"/>
<circle cx="214.5" cy="33.5" r="3.5" transform="rotate(-180 214.5 33.5)" fill="#CADEFC" stroke="black" stroke-width="0.5"/>
<circle cx="50.5" cy="33.5" r="3.5" transform="rotate(-180 50.5 33.5)" fill="#CADEFC" stroke="black" stroke-width="0.5"/>
<path d="M378.5 37V221" stroke="black"/>
<path d="M54 34H132.5H211" stroke="black"/>
<path d="M214.5 37V221" stroke="black"/>
<path d="M50.5 37V221" stroke="black"/>
<path d="M218 34H296.5H375" stroke="black"/>
<defs>
<linearGradient id="paint0_linear" x1="25" y1="0" x2="25" y2="10" gradientUnits="userSpaceOnUse">
<stop stop-color="#C4C4C4" stop-opacity="0"/>
<stop offset="0.53125" stop-color="#CECECE" stop-opacity="0.385417"/>
<stop offset="0.880208" stop-color="#D1D1D1" stop-opacity="0.74"/>
</linearGradient>
<linearGradient id="paint1_linear" x1="25" y1="0" x2="25" y2="10" gradientUnits="userSpaceOnUse">
<stop stop-color="#C4C4C4" stop-opacity="0"/>
<stop offset="0.0001" stop-color="#C4C4C4" stop-opacity="0"/>
<stop offset="0.53125" stop-color="#CECECE" stop-opacity="0.385417"/>
<stop offset="0.880208" stop-color="#D1D1D1" stop-opacity="0.74"/>
</linearGradient>
<linearGradient id="paint2_linear" x1="25" y1="0" x2="25" y2="10" gradientUnits="userSpaceOnUse">
<stop stop-color="#C4C4C4" stop-opacity="0"/>
<stop offset="0.53125" stop-color="#CECECE" stop-opacity="0.385417"/>
<stop offset="0.880208" stop-color="#D1D1D1" stop-opacity="0.74"/>
</linearGradient>
</defs>
</svg>
