<svg width="409" height="211" viewBox="0 0 409 211" fill="none" xmlns="http://www.w3.org/2000/svg">
<path d="M355 176H388V163H355V176Z" fill="url(#paint0_linear)"/>
<line x1="355" y1="162.5" x2="388" y2="162.5" stroke="#4E4E4E"/>
<path d="M362 163L356 169" stroke="#888888" stroke-width="0.5"/>
<path d="M385 163L379 169" stroke="#888888" stroke-width="0.5"/>
<path d="M377 163L371 169" stroke="#888888" stroke-width="0.5"/>
<path d="M369 163L363 169" stroke="#888888" stroke-width="0.5"/>
<circle cx="366" cy="160" r="1.75" fill="#C4C4C4" stroke="#4E4E4E" stroke-width="0.5"/>
<circle cx="376" cy="160" r="1.75" fill="#C4C4C4" stroke="#4E4E4E" stroke-width="0.5"/>
<circle cx="371" cy="160" r="1.75" fill="#C4C4C4" stroke="#4E4E4E" stroke-width="0.5"/>
<path d="M366.043 157.375L371 150.219L375.957 157.375H366.043Z" fill="#CADEFC" stroke="black" stroke-width="0.25"/>
<path d="M371 145V84.5V24" stroke="#252323"/>
<path d="M206 145.85L287 83.9251L368 22" stroke="#252323"/>
<path d="M207 148H287.5H368" stroke="#252323"/>
<path d="M40 148H120.5H201" stroke="#252323"/>
<path d="M40 145.85L120.5 83.9251L201 22" stroke="#252323"/>
<path d="M204 144V84V24" stroke="#252323"/>
<path d="M207 22L287.556 83.9251L368.112 145.85" stroke="#252323"/>
<path d="M207 21L287.5 21L368 21" stroke="#252323"/>
<path d="M30.2883 162.875L37 151.25L43.7117 162.875H30.2883Z" fill="#CADEFC" stroke="black" stroke-width="0.25"/>
<rect width="33" height="13" transform="matrix(1 0 0 -1 20 177)" fill="url(#paint1_linear)"/>
<line x1="20" y1="163.5" x2="53" y2="163.5" stroke="#4E4E4E"/>
<path d="M27 164L21 170" stroke="#888888" stroke-width="0.5"/>
<path d="M50 164L44 170" stroke="#888888" stroke-width="0.5"/>
<path d="M42 164L36 170" stroke="#888888" stroke-width="0.5"/>
<path d="M34 164L28 170" stroke="#888888" stroke-width="0.5"/>
<circle cx="204" cy="147.5" r="3.5" fill="#CADEFC" stroke="black" stroke-width="0.5"/>
<circle cx="371" cy="147.5" r="3.5" fill="#CADEFC" stroke="black" stroke-width="0.5"/>
<circle cx="371" cy="20.5" r="3.5" fill="#CADEFC" stroke="black" stroke-width="0.5"/>
<circle cx="204" cy="20.5" r="3.5" fill="#CADEFC" stroke="black" stroke-width="0.5"/>
<circle cx="37" cy="147.5" r="3.5" fill="#CADEFC" stroke="black" stroke-width="0.5"/>
<defs>
<linearGradient id="paint0_linear" x1="371.5" y1="176" x2="371.5" y2="163" gradientUnits="userSpaceOnUse">
<stop stop-color="#C4C4C4" stop-opacity="0"/>
<stop offset="0.53125" stop-color="#CECECE" stop-opacity="0.385417"/>
<stop offset="0.880208" stop-color="#D1D1D1" stop-opacity="0.74"/>
</linearGradient>
<linearGradient id="paint1_linear" x1="16.5" y1="0" x2="16.5" y2="13" gradientUnits="userSpaceOnUse">
<stop stop-color="#C4C4C4" stop-opacity="0"/>
<stop offset="0.53125" stop-color="#CECECE" stop-opacity="0.385417"/>
<stop offset="0.880208" stop-color="#D1D1D1" stop-opacity="0.74"/>
</linearGradient>
</defs>
</svg>
