<svg width="350" height="350" viewBox="0 0 350 350" fill="none" xmlns="http://www.w3.org/2000/svg">
<path d="M91.5 79.5V267" stroke="#818181" stroke-linecap="round"/>
<path d="M91.5 79.5H255.5" stroke="#818181" stroke-linecap="round"/>
<path d="M255.5 79.5V267" stroke="#818181" stroke-linecap="round"/>
<line x1="231" y1="267.5" x2="281" y2="267.5" stroke="#4E4E4E"/>
<line x1="68" y1="267.5" x2="118" y2="267.5" stroke="#4E4E4E"/>
<path d="M246 268L240 274" stroke="#888888" stroke-width="0.5"/>
<path d="M269 268L263 274" stroke="#888888" stroke-width="0.5"/>
<path d="M261 268L255 274" stroke="#888888" stroke-width="0.5"/>
<path d="M253 268L247 274" stroke="#888888" stroke-width="0.5"/>
<path d="M82 268L76 274" stroke="#888888" stroke-width="0.5"/>
<path d="M105 268L99 274" stroke="#888888" stroke-width="0.5"/>
<path d="M97 268L91 274" stroke="#888888" stroke-width="0.5"/>
<path d="M89 268L83 274" stroke="#888888" stroke-width="0.5"/>
<path d="M117.212 48.12C116.18 48.12 115.38 47.844 114.812 47.292C114.252 46.732 113.972 45.888 113.972 44.76V39.888C113.972 39.8 113.996 39.732 114.044 39.684C114.1 39.628 114.168 39.6 114.248 39.6H114.86C114.948 39.6 115.016 39.628 115.064 39.684C115.12 39.732 115.148 39.8 115.148 39.888V44.784C115.148 45.552 115.328 46.128 115.688 46.512C116.048 46.896 116.556 47.088 117.212 47.088C117.868 47.088 118.376 46.896 118.736 46.512C119.096 46.128 119.276 45.552 119.276 44.784V39.888C119.276 39.8 119.3 39.732 119.348 39.684C119.404 39.628 119.472 39.6 119.552 39.6H120.176C120.256 39.6 120.32 39.628 120.368 39.684C120.424 39.74 120.452 39.808 120.452 39.888V44.76C120.452 45.888 120.168 46.732 119.6 47.292C119.04 47.844 118.244 48.12 117.212 48.12ZM122.578 48C122.498 48 122.43 47.976 122.374 47.928C122.326 47.872 122.302 47.804 122.302 47.724V42.036C122.302 41.956 122.326 41.892 122.374 41.844C122.43 41.788 122.498 41.76 122.578 41.76H123.142C123.222 41.76 123.286 41.788 123.334 41.844C123.39 41.892 123.418 41.956 123.418 42.036V42.564C123.65 42.268 123.922 42.04 124.234 41.88C124.554 41.72 124.95 41.64 125.422 41.64C126.19 41.64 126.786 41.888 127.21 42.384C127.642 42.872 127.858 43.524 127.858 44.34V47.724C127.858 47.804 127.83 47.872 127.774 47.928C127.726 47.976 127.662 48 127.582 48H126.982C126.902 48 126.834 47.976 126.778 47.928C126.73 47.872 126.706 47.804 126.706 47.724V44.4C126.706 43.832 126.566 43.392 126.286 43.08C126.014 42.768 125.618 42.612 125.098 42.612C124.594 42.612 124.194 42.772 123.898 43.092C123.602 43.404 123.454 43.84 123.454 44.4V47.724C123.454 47.804 123.426 47.872 123.37 47.928C123.322 47.976 123.258 48 123.178 48H122.578ZM129.855 48C129.775 48 129.707 47.976 129.651 47.928C129.603 47.872 129.579 47.804 129.579 47.724V42.048C129.579 41.968 129.603 41.9 129.651 41.844C129.707 41.788 129.775 41.76 129.855 41.76H130.407C130.487 41.76 130.555 41.788 130.611 41.844C130.667 41.9 130.695 41.968 130.695 42.048V42.576C131.023 42.032 131.583 41.76 132.375 41.76H132.843C132.923 41.76 132.987 41.788 133.035 41.844C133.091 41.892 133.119 41.956 133.119 42.036V42.528C133.119 42.608 133.091 42.672 133.035 42.72C132.987 42.768 132.923 42.792 132.843 42.792H132.123C131.691 42.792 131.351 42.92 131.103 43.176C130.855 43.424 130.731 43.764 130.731 44.196V47.724C130.731 47.804 130.703 47.872 130.647 47.928C130.591 47.976 130.523 48 130.443 48H129.855ZM136.517 48.12C135.693 48.12 135.033 47.868 134.537 47.364C134.049 46.852 133.781 46.156 133.733 45.276L133.721 44.868L133.733 44.472C133.789 43.608 134.061 42.92 134.549 42.408C135.045 41.896 135.697 41.64 136.505 41.64C137.393 41.64 138.081 41.924 138.569 42.492C139.057 43.052 139.301 43.812 139.301 44.772V44.976C139.301 45.056 139.273 45.124 139.217 45.18C139.169 45.228 139.105 45.252 139.025 45.252H134.873V45.36C134.897 45.88 135.053 46.324 135.341 46.692C135.637 47.052 136.025 47.232 136.505 47.232C136.873 47.232 137.173 47.16 137.405 47.016C137.645 46.864 137.821 46.708 137.933 46.548C138.005 46.452 138.057 46.396 138.089 46.38C138.129 46.356 138.197 46.344 138.293 46.344H138.881C138.953 46.344 139.013 46.364 139.061 46.404C139.109 46.444 139.133 46.5 139.133 46.572C139.133 46.748 139.021 46.96 138.797 47.208C138.581 47.456 138.273 47.672 137.873 47.856C137.481 48.032 137.029 48.12 136.517 48.12ZM138.161 44.424V44.388C138.161 43.836 138.009 43.388 137.705 43.044C137.409 42.692 137.009 42.516 136.505 42.516C136.001 42.516 135.601 42.692 135.305 43.044C135.017 43.388 134.873 43.836 134.873 44.388V44.424H138.161ZM142.896 48.12C142.336 48.12 141.864 48.032 141.48 47.856C141.104 47.672 140.82 47.464 140.628 47.232C140.444 47 140.352 46.808 140.352 46.656C140.352 46.576 140.38 46.516 140.436 46.476C140.5 46.428 140.564 46.404 140.628 46.404H141.168C141.248 46.404 141.32 46.444 141.384 46.524C141.576 46.748 141.784 46.924 142.008 47.052C142.232 47.18 142.532 47.244 142.908 47.244C143.324 47.244 143.66 47.164 143.916 47.004C144.18 46.836 144.312 46.608 144.312 46.32C144.312 46.128 144.256 45.972 144.144 45.852C144.04 45.724 143.856 45.616 143.592 45.528C143.336 45.432 142.952 45.328 142.44 45.216C141.744 45.064 141.248 44.844 140.952 44.556C140.664 44.268 140.52 43.896 140.52 43.44C140.52 43.136 140.608 42.848 140.784 42.576C140.968 42.296 141.232 42.072 141.576 41.904C141.928 41.728 142.348 41.64 142.836 41.64C143.348 41.64 143.784 41.724 144.144 41.892C144.504 42.06 144.772 42.26 144.948 42.492C145.132 42.716 145.224 42.904 145.224 43.056C145.224 43.128 145.196 43.188 145.14 43.236C145.092 43.284 145.032 43.308 144.96 43.308H144.456C144.36 43.308 144.28 43.268 144.216 43.188C144.088 43.036 143.976 42.92 143.88 42.84C143.792 42.752 143.66 42.676 143.484 42.612C143.316 42.548 143.1 42.516 142.836 42.516C142.452 42.516 142.156 42.6 141.948 42.768C141.74 42.928 141.636 43.14 141.636 43.404C141.636 43.572 141.68 43.716 141.768 43.836C141.856 43.948 142.024 44.052 142.272 44.148C142.528 44.244 142.896 44.344 143.376 44.448C144.136 44.608 144.672 44.84 144.984 45.144C145.304 45.44 145.464 45.82 145.464 46.284C145.464 46.628 145.364 46.94 145.164 47.22C144.964 47.5 144.668 47.72 144.276 47.88C143.892 48.04 143.432 48.12 142.896 48.12ZM149.277 48C148.013 48 147.381 47.296 147.381 45.888V42.72H146.445C146.365 42.72 146.297 42.696 146.241 42.648C146.193 42.592 146.169 42.524 146.169 42.444V42.036C146.169 41.956 146.193 41.892 146.241 41.844C146.297 41.788 146.365 41.76 146.445 41.76H147.381V39.756C147.381 39.676 147.405 39.612 147.453 39.564C147.509 39.508 147.577 39.48 147.657 39.48H148.221C148.301 39.48 148.365 39.508 148.413 39.564C148.469 39.612 148.497 39.676 148.497 39.756V41.76H149.985C150.065 41.76 150.129 41.788 150.177 41.844C150.233 41.892 150.261 41.956 150.261 42.036V42.444C150.261 42.524 150.233 42.592 150.177 42.648C150.129 42.696 150.065 42.72 149.985 42.72H148.497V45.804C148.497 46.204 148.565 46.508 148.701 46.716C148.837 46.916 149.061 47.016 149.373 47.016H150.105C150.185 47.016 150.249 47.044 150.297 47.1C150.353 47.148 150.381 47.212 150.381 47.292V47.724C150.381 47.804 150.353 47.872 150.297 47.928C150.249 47.976 150.185 48 150.105 48H149.277ZM151.805 48C151.725 48 151.657 47.976 151.601 47.928C151.553 47.872 151.529 47.804 151.529 47.724V42.048C151.529 41.968 151.553 41.9 151.601 41.844C151.657 41.788 151.725 41.76 151.805 41.76H152.357C152.437 41.76 152.505 41.788 152.561 41.844C152.617 41.9 152.645 41.968 152.645 42.048V42.576C152.973 42.032 153.533 41.76 154.325 41.76H154.793C154.873 41.76 154.937 41.788 154.985 41.844C155.041 41.892 155.069 41.956 155.069 42.036V42.528C155.069 42.608 155.041 42.672 154.985 42.72C154.937 42.768 154.873 42.792 154.793 42.792H154.073C153.641 42.792 153.301 42.92 153.053 43.176C152.805 43.424 152.681 43.764 152.681 44.196V47.724C152.681 47.804 152.653 47.872 152.597 47.928C152.541 47.976 152.473 48 152.393 48H151.805ZM157.733 48.12C157.341 48.12 156.977 48.04 156.641 47.88C156.305 47.72 156.037 47.504 155.837 47.232C155.645 46.952 155.549 46.644 155.549 46.308C155.549 45.78 155.765 45.348 156.197 45.012C156.637 44.668 157.229 44.444 157.973 44.34L159.761 44.088V43.74C159.761 42.924 159.293 42.516 158.357 42.516C158.005 42.516 157.717 42.592 157.493 42.744C157.269 42.888 157.101 43.06 156.989 43.26C156.965 43.332 156.933 43.384 156.893 43.416C156.861 43.448 156.813 43.464 156.749 43.464H156.233C156.161 43.464 156.097 43.44 156.041 43.392C155.993 43.336 155.969 43.272 155.969 43.2C155.977 43.008 156.065 42.792 156.233 42.552C156.409 42.304 156.677 42.092 157.037 41.916C157.397 41.732 157.841 41.64 158.369 41.64C159.265 41.64 159.909 41.852 160.301 42.276C160.693 42.692 160.889 43.212 160.889 43.836V47.724C160.889 47.804 160.861 47.872 160.805 47.928C160.757 47.976 160.693 48 160.613 48H160.061C159.981 48 159.913 47.976 159.857 47.928C159.809 47.872 159.785 47.804 159.785 47.724V47.208C159.609 47.464 159.353 47.68 159.017 47.856C158.681 48.032 158.253 48.12 157.733 48.12ZM157.985 47.22C158.505 47.22 158.929 47.052 159.257 46.716C159.593 46.372 159.761 45.88 159.761 45.24V44.904L158.369 45.108C157.801 45.188 157.373 45.324 157.085 45.516C156.797 45.7 156.653 45.936 156.653 46.224C156.653 46.544 156.785 46.792 157.049 46.968C157.313 47.136 157.625 47.22 157.985 47.22ZM162.795 40.596C162.715 40.596 162.647 40.572 162.591 40.524C162.543 40.468 162.519 40.4 162.519 40.32V39.672C162.519 39.592 162.543 39.524 162.591 39.468C162.647 39.412 162.715 39.384 162.795 39.384H163.551C163.631 39.384 163.699 39.412 163.755 39.468C163.811 39.524 163.839 39.592 163.839 39.672V40.32C163.839 40.4 163.811 40.468 163.755 40.524C163.699 40.572 163.631 40.596 163.551 40.596H162.795ZM162.891 48C162.811 48 162.743 47.976 162.687 47.928C162.639 47.872 162.615 47.804 162.615 47.724V42.036C162.615 41.956 162.639 41.892 162.687 41.844C162.743 41.788 162.811 41.76 162.891 41.76H163.467C163.547 41.76 163.611 41.788 163.659 41.844C163.715 41.892 163.743 41.956 163.743 42.036V47.724C163.743 47.804 163.715 47.872 163.659 47.928C163.611 47.976 163.547 48 163.467 48H162.891ZM165.797 48C165.717 48 165.649 47.976 165.593 47.928C165.545 47.872 165.521 47.804 165.521 47.724V42.036C165.521 41.956 165.545 41.892 165.593 41.844C165.649 41.788 165.717 41.76 165.797 41.76H166.361C166.441 41.76 166.505 41.788 166.553 41.844C166.609 41.892 166.637 41.956 166.637 42.036V42.564C166.869 42.268 167.141 42.04 167.453 41.88C167.773 41.72 168.169 41.64 168.641 41.64C169.409 41.64 170.005 41.888 170.429 42.384C170.861 42.872 171.077 43.524 171.077 44.34V47.724C171.077 47.804 171.049 47.872 170.993 47.928C170.945 47.976 170.881 48 170.801 48H170.201C170.121 48 170.053 47.976 169.997 47.928C169.949 47.872 169.925 47.804 169.925 47.724V44.4C169.925 43.832 169.785 43.392 169.505 43.08C169.233 42.768 168.837 42.612 168.317 42.612C167.813 42.612 167.413 42.772 167.117 43.092C166.821 43.404 166.673 43.84 166.673 44.4V47.724C166.673 47.804 166.645 47.872 166.589 47.928C166.541 47.976 166.477 48 166.397 48H165.797ZM175.294 48.12C174.47 48.12 173.81 47.868 173.314 47.364C172.826 46.852 172.558 46.156 172.51 45.276L172.498 44.868L172.51 44.472C172.566 43.608 172.838 42.92 173.326 42.408C173.822 41.896 174.474 41.64 175.282 41.64C176.17 41.64 176.858 41.924 177.346 42.492C177.834 43.052 178.078 43.812 178.078 44.772V44.976C178.078 45.056 178.05 45.124 177.994 45.18C177.946 45.228 177.882 45.252 177.802 45.252H173.65V45.36C173.674 45.88 173.83 46.324 174.118 46.692C174.414 47.052 174.802 47.232 175.282 47.232C175.65 47.232 175.95 47.16 176.182 47.016C176.422 46.864 176.598 46.708 176.71 46.548C176.782 46.452 176.834 46.396 176.866 46.38C176.906 46.356 176.974 46.344 177.07 46.344H177.658C177.73 46.344 177.79 46.364 177.838 46.404C177.886 46.444 177.91 46.5 177.91 46.572C177.91 46.748 177.798 46.96 177.574 47.208C177.358 47.456 177.05 47.672 176.65 47.856C176.258 48.032 175.806 48.12 175.294 48.12ZM176.938 44.424V44.388C176.938 43.836 176.786 43.388 176.482 43.044C176.186 42.692 175.786 42.516 175.282 42.516C174.778 42.516 174.378 42.692 174.082 43.044C173.794 43.388 173.65 43.836 173.65 44.388V44.424H176.938ZM181.793 48.12C180.961 48.12 180.333 47.848 179.909 47.304C179.485 46.76 179.261 46.072 179.237 45.24L179.225 44.88L179.237 44.52C179.261 43.696 179.485 43.012 179.909 42.468C180.333 41.916 180.961 41.64 181.793 41.64C182.617 41.64 183.265 41.932 183.737 42.516V39.756C183.737 39.676 183.761 39.612 183.809 39.564C183.865 39.508 183.933 39.48 184.013 39.48H184.589C184.669 39.48 184.733 39.508 184.781 39.564C184.837 39.612 184.865 39.676 184.865 39.756V47.724C184.865 47.804 184.837 47.872 184.781 47.928C184.733 47.976 184.669 48 184.589 48H184.049C183.969 48 183.901 47.976 183.845 47.928C183.797 47.872 183.773 47.804 183.773 47.724V47.22C183.309 47.82 182.649 48.12 181.793 48.12ZM182.045 47.148C182.597 47.148 183.009 46.968 183.281 46.608C183.561 46.24 183.713 45.804 183.737 45.3C183.745 45.212 183.749 45.06 183.749 44.844C183.749 44.62 183.745 44.464 183.737 44.376C183.721 43.904 183.569 43.492 183.281 43.14C182.993 42.788 182.581 42.612 182.045 42.612C181.477 42.612 181.061 42.788 180.797 43.14C180.541 43.492 180.401 43.956 180.377 44.532L180.365 44.88C180.365 46.392 180.925 47.148 182.045 47.148ZM191.871 48.12C191.039 48.12 190.411 47.848 189.987 47.304C189.563 46.76 189.339 46.072 189.315 45.24L189.303 44.88L189.315 44.52C189.339 43.696 189.563 43.012 189.987 42.468C190.411 41.916 191.039 41.64 191.871 41.64C192.695 41.64 193.343 41.932 193.815 42.516V39.756C193.815 39.676 193.839 39.612 193.887 39.564C193.943 39.508 194.011 39.48 194.091 39.48H194.667C194.747 39.48 194.811 39.508 194.859 39.564C194.915 39.612 194.943 39.676 194.943 39.756V47.724C194.943 47.804 194.915 47.872 194.859 47.928C194.811 47.976 194.747 48 194.667 48H194.127C194.047 48 193.979 47.976 193.923 47.928C193.875 47.872 193.851 47.804 193.851 47.724V47.22C193.387 47.82 192.727 48.12 191.871 48.12ZM192.123 47.148C192.675 47.148 193.087 46.968 193.359 46.608C193.639 46.24 193.791 45.804 193.815 45.3C193.823 45.212 193.827 45.06 193.827 44.844C193.827 44.62 193.823 44.464 193.815 44.376C193.799 43.904 193.647 43.492 193.359 43.14C193.071 42.788 192.659 42.612 192.123 42.612C191.555 42.612 191.139 42.788 190.875 43.14C190.619 43.492 190.479 43.956 190.455 44.532L190.443 44.88C190.443 46.392 191.003 47.148 192.123 47.148ZM199.224 48.12C198.4 48.12 197.74 47.868 197.244 47.364C196.756 46.852 196.488 46.156 196.44 45.276L196.428 44.868L196.44 44.472C196.496 43.608 196.768 42.92 197.256 42.408C197.752 41.896 198.404 41.64 199.212 41.64C200.1 41.64 200.788 41.924 201.276 42.492C201.764 43.052 202.008 43.812 202.008 44.772V44.976C202.008 45.056 201.98 45.124 201.924 45.18C201.876 45.228 201.812 45.252 201.732 45.252H197.58V45.36C197.604 45.88 197.76 46.324 198.048 46.692C198.344 47.052 198.732 47.232 199.212 47.232C199.58 47.232 199.88 47.16 200.112 47.016C200.352 46.864 200.528 46.708 200.64 46.548C200.712 46.452 200.764 46.396 200.796 46.38C200.836 46.356 200.904 46.344 201 46.344H201.588C201.66 46.344 201.72 46.364 201.768 46.404C201.816 46.444 201.84 46.5 201.84 46.572C201.84 46.748 201.728 46.96 201.504 47.208C201.288 47.456 200.98 47.672 200.58 47.856C200.188 48.032 199.736 48.12 199.224 48.12ZM200.868 44.424V44.388C200.868 43.836 200.716 43.388 200.412 43.044C200.116 42.692 199.716 42.516 199.212 42.516C198.708 42.516 198.308 42.692 198.012 43.044C197.724 43.388 197.58 43.836 197.58 44.388V44.424H200.868ZM205.999 50.64C205.343 50.64 204.815 50.528 204.415 50.304C204.015 50.088 203.731 49.84 203.563 49.56C203.395 49.28 203.303 49.028 203.287 48.804C203.279 48.724 203.303 48.656 203.359 48.6C203.423 48.544 203.491 48.516 203.563 48.516H204.139C204.211 48.516 204.271 48.532 204.319 48.564C204.367 48.604 204.407 48.672 204.439 48.768C204.535 49.024 204.691 49.244 204.907 49.428C205.131 49.62 205.475 49.716 205.939 49.716C206.531 49.716 206.967 49.588 207.247 49.332C207.527 49.084 207.667 48.64 207.667 48V47.184C207.459 47.448 207.195 47.66 206.875 47.82C206.555 47.972 206.175 48.048 205.735 48.048C204.887 48.048 204.251 47.78 203.827 47.244C203.411 46.7 203.191 46.012 203.167 45.18L203.155 44.844L203.167 44.52C203.191 43.696 203.415 43.012 203.839 42.468C204.263 41.916 204.895 41.64 205.735 41.64C206.575 41.64 207.231 41.948 207.703 42.564V42.048C207.703 41.968 207.727 41.9 207.775 41.844C207.831 41.788 207.899 41.76 207.979 41.76H208.531C208.611 41.76 208.679 41.788 208.735 41.844C208.791 41.9 208.819 41.968 208.819 42.048V47.868C208.819 49.716 207.879 50.64 205.999 50.64ZM205.975 47.088C206.519 47.088 206.931 46.908 207.211 46.548C207.491 46.188 207.643 45.76 207.667 45.264C207.675 45.192 207.679 45.052 207.679 44.844C207.679 44.644 207.675 44.508 207.667 44.436C207.643 43.94 207.491 43.512 207.211 43.152C206.939 42.792 206.527 42.612 205.975 42.612C205.407 42.612 204.995 42.788 204.739 43.14C204.483 43.492 204.343 43.956 204.319 44.532L204.307 44.844L204.319 45.168C204.343 45.736 204.483 46.2 204.739 46.56C204.995 46.912 205.407 47.088 205.975 47.088ZM210.879 48C210.799 48 210.731 47.976 210.675 47.928C210.627 47.872 210.603 47.804 210.603 47.724V42.048C210.603 41.968 210.627 41.9 210.675 41.844C210.731 41.788 210.799 41.76 210.879 41.76H211.431C211.511 41.76 211.579 41.788 211.635 41.844C211.691 41.9 211.719 41.968 211.719 42.048V42.576C212.047 42.032 212.607 41.76 213.399 41.76H213.867C213.947 41.76 214.011 41.788 214.059 41.844C214.115 41.892 214.143 41.956 214.143 42.036V42.528C214.143 42.608 214.115 42.672 214.059 42.72C214.011 42.768 213.947 42.792 213.867 42.792H213.147C212.715 42.792 212.375 42.92 212.127 43.176C211.879 43.424 211.755 43.764 211.755 44.196V47.724C211.755 47.804 211.727 47.872 211.671 47.928C211.615 47.976 211.547 48 211.467 48H210.879ZM217.54 48.12C216.716 48.12 216.056 47.868 215.56 47.364C215.072 46.852 214.804 46.156 214.756 45.276L214.744 44.868L214.756 44.472C214.812 43.608 215.084 42.92 215.572 42.408C216.068 41.896 216.72 41.64 217.528 41.64C218.416 41.64 219.104 41.924 219.592 42.492C220.08 43.052 220.324 43.812 220.324 44.772V44.976C220.324 45.056 220.296 45.124 220.24 45.18C220.192 45.228 220.128 45.252 220.048 45.252H215.896V45.36C215.92 45.88 216.076 46.324 216.364 46.692C216.66 47.052 217.048 47.232 217.528 47.232C217.896 47.232 218.196 47.16 218.428 47.016C218.668 46.864 218.844 46.708 218.956 46.548C219.028 46.452 219.08 46.396 219.112 46.38C219.152 46.356 219.22 46.344 219.316 46.344H219.904C219.976 46.344 220.036 46.364 220.084 46.404C220.132 46.444 220.156 46.5 220.156 46.572C220.156 46.748 220.044 46.96 219.82 47.208C219.604 47.456 219.296 47.672 218.896 47.856C218.504 48.032 218.052 48.12 217.54 48.12ZM219.184 44.424V44.388C219.184 43.836 219.032 43.388 218.728 43.044C218.432 42.692 218.032 42.516 217.528 42.516C217.024 42.516 216.624 42.692 216.328 43.044C216.04 43.388 215.896 43.836 215.896 44.388V44.424H219.184ZM224.255 48.12C223.431 48.12 222.771 47.868 222.275 47.364C221.787 46.852 221.519 46.156 221.471 45.276L221.459 44.868L221.471 44.472C221.527 43.608 221.799 42.92 222.287 42.408C222.783 41.896 223.435 41.64 224.243 41.64C225.131 41.64 225.819 41.924 226.307 42.492C226.795 43.052 227.039 43.812 227.039 44.772V44.976C227.039 45.056 227.011 45.124 226.955 45.18C226.907 45.228 226.843 45.252 226.763 45.252H222.611V45.36C222.635 45.88 222.791 46.324 223.079 46.692C223.375 47.052 223.763 47.232 224.243 47.232C224.611 47.232 224.911 47.16 225.143 47.016C225.383 46.864 225.559 46.708 225.671 46.548C225.743 46.452 225.795 46.396 225.827 46.38C225.867 46.356 225.935 46.344 226.031 46.344H226.619C226.691 46.344 226.751 46.364 226.799 46.404C226.847 46.444 226.871 46.5 226.871 46.572C226.871 46.748 226.759 46.96 226.535 47.208C226.319 47.456 226.011 47.672 225.611 47.856C225.219 48.032 224.767 48.12 224.255 48.12ZM225.899 44.424V44.388C225.899 43.836 225.747 43.388 225.443 43.044C225.147 42.692 224.747 42.516 224.243 42.516C223.739 42.516 223.339 42.692 223.043 43.044C222.755 43.388 222.611 43.836 222.611 44.388V44.424H225.899ZM230.634 48.12C230.074 48.12 229.602 48.032 229.218 47.856C228.842 47.672 228.558 47.464 228.366 47.232C228.182 47 228.09 46.808 228.09 46.656C228.09 46.576 228.118 46.516 228.174 46.476C228.238 46.428 228.302 46.404 228.366 46.404H228.906C228.986 46.404 229.058 46.444 229.122 46.524C229.314 46.748 229.522 46.924 229.746 47.052C229.97 47.18 230.27 47.244 230.646 47.244C231.062 47.244 231.398 47.164 231.654 47.004C231.918 46.836 232.05 46.608 232.05 46.32C232.05 46.128 231.994 45.972 231.882 45.852C231.778 45.724 231.594 45.616 231.33 45.528C231.074 45.432 230.69 45.328 230.178 45.216C229.482 45.064 228.986 44.844 228.69 44.556C228.402 44.268 228.258 43.896 228.258 43.44C228.258 43.136 228.346 42.848 228.522 42.576C228.706 42.296 228.97 42.072 229.314 41.904C229.666 41.728 230.086 41.64 230.574 41.64C231.086 41.64 231.522 41.724 231.882 41.892C232.242 42.06 232.51 42.26 232.686 42.492C232.87 42.716 232.962 42.904 232.962 43.056C232.962 43.128 232.934 43.188 232.878 43.236C232.83 43.284 232.77 43.308 232.698 43.308H232.194C232.098 43.308 232.018 43.268 231.954 43.188C231.826 43.036 231.714 42.92 231.618 42.84C231.53 42.752 231.398 42.676 231.222 42.612C231.054 42.548 230.838 42.516 230.574 42.516C230.19 42.516 229.894 42.6 229.686 42.768C229.478 42.928 229.374 43.14 229.374 43.404C229.374 43.572 229.418 43.716 229.506 43.836C229.594 43.948 229.762 44.052 230.01 44.148C230.266 44.244 230.634 44.344 231.114 44.448C231.874 44.608 232.41 44.84 232.722 45.144C233.042 45.44 233.202 45.82 233.202 46.284C233.202 46.628 233.102 46.94 232.902 47.22C232.702 47.5 232.406 47.72 232.014 47.88C231.63 48.04 231.17 48.12 230.634 48.12ZM116.444 66.12C115.564 66.12 114.88 65.872 114.392 65.376C113.912 64.88 113.656 64.22 113.624 63.396L113.612 62.88L113.624 62.364C113.656 61.548 113.916 60.892 114.404 60.396C114.892 59.892 115.572 59.64 116.444 59.64C117.316 59.64 117.996 59.892 118.484 60.396C118.972 60.892 119.232 61.548 119.264 62.364C119.272 62.452 119.276 62.624 119.276 62.88C119.276 63.136 119.272 63.308 119.264 63.396C119.232 64.22 118.972 64.88 118.484 65.376C118.004 65.872 117.324 66.12 116.444 66.12ZM116.444 65.196C116.948 65.196 117.344 65.036 117.632 64.716C117.928 64.396 118.088 63.936 118.112 63.336C118.12 63.256 118.124 63.104 118.124 62.88C118.124 62.656 118.12 62.504 118.112 62.424C118.088 61.824 117.928 61.364 117.632 61.044C117.344 60.724 116.948 60.564 116.444 60.564C115.94 60.564 115.54 60.724 115.244 61.044C114.948 61.364 114.792 61.824 114.776 62.424L114.764 62.88L114.776 63.336C114.792 63.936 114.948 64.396 115.244 64.716C115.54 65.036 115.94 65.196 116.444 65.196ZM121.608 66C121.528 66 121.46 65.976 121.404 65.928C121.356 65.872 121.332 65.804 121.332 65.724V60.72H120.312C120.232 60.72 120.164 60.696 120.108 60.648C120.06 60.592 120.036 60.524 120.036 60.444V60.036C120.036 59.956 120.06 59.892 120.108 59.844C120.164 59.788 120.232 59.76 120.312 59.76H121.332V59.16C121.332 57.8 122.02 57.12 123.396 57.12H124.116C124.196 57.12 124.26 57.148 124.308 57.204C124.364 57.252 124.392 57.316 124.392 57.396V57.804C124.392 57.884 124.364 57.952 124.308 58.008C124.26 58.056 124.196 58.08 124.116 58.08H123.42C123.06 58.08 122.808 58.176 122.664 58.368C122.52 58.552 122.448 58.836 122.448 59.22V59.76H123.996C124.076 59.76 124.14 59.788 124.188 59.844C124.244 59.892 124.272 59.956 124.272 60.036V60.444C124.272 60.524 124.244 60.592 124.188 60.648C124.14 60.696 124.076 60.72 123.996 60.72H122.448V65.724C122.448 65.804 122.42 65.872 122.364 65.928C122.316 65.976 122.252 66 122.172 66H121.608ZM128.675 66C128.595 66 128.527 65.976 128.471 65.928C128.423 65.872 128.399 65.804 128.399 65.724V60.72H127.379C127.299 60.72 127.231 60.696 127.175 60.648C127.127 60.592 127.103 60.524 127.103 60.444V60.036C127.103 59.956 127.127 59.892 127.175 59.844C127.231 59.788 127.299 59.76 127.379 59.76H128.399V59.16C128.399 57.8 129.087 57.12 130.463 57.12H131.183C131.263 57.12 131.327 57.148 131.375 57.204C131.431 57.252 131.459 57.316 131.459 57.396V57.804C131.459 57.884 131.431 57.952 131.375 58.008C131.327 58.056 131.263 58.08 131.183 58.08H130.487C130.127 58.08 129.875 58.176 129.731 58.368C129.587 58.552 129.515 58.836 129.515 59.22V59.76H131.063C131.143 59.76 131.207 59.788 131.255 59.844C131.311 59.892 131.339 59.956 131.339 60.036V60.444C131.339 60.524 131.311 60.592 131.255 60.648C131.207 60.696 131.143 60.72 131.063 60.72H129.515V65.724C129.515 65.804 129.487 65.872 129.431 65.928C129.383 65.976 129.319 66 129.239 66H128.675ZM132.668 66C132.588 66 132.52 65.976 132.464 65.928C132.416 65.872 132.392 65.804 132.392 65.724V60.048C132.392 59.968 132.416 59.9 132.464 59.844C132.52 59.788 132.588 59.76 132.668 59.76H133.22C133.3 59.76 133.368 59.788 133.424 59.844C133.48 59.9 133.508 59.968 133.508 60.048V60.576C133.836 60.032 134.396 59.76 135.188 59.76H135.656C135.736 59.76 135.8 59.788 135.848 59.844C135.904 59.892 135.932 59.956 135.932 60.036V60.528C135.932 60.608 135.904 60.672 135.848 60.72C135.8 60.768 135.736 60.792 135.656 60.792H134.936C134.504 60.792 134.164 60.92 133.916 61.176C133.668 61.424 133.544 61.764 133.544 62.196V65.724C133.544 65.804 133.516 65.872 133.46 65.928C133.404 65.976 133.336 66 133.256 66H132.668ZM139.329 66.12C138.505 66.12 137.845 65.868 137.349 65.364C136.861 64.852 136.593 64.156 136.545 63.276L136.533 62.868L136.545 62.472C136.601 61.608 136.873 60.92 137.361 60.408C137.857 59.896 138.509 59.64 139.317 59.64C140.205 59.64 140.893 59.924 141.381 60.492C141.869 61.052 142.113 61.812 142.113 62.772V62.976C142.113 63.056 142.085 63.124 142.029 63.18C141.981 63.228 141.917 63.252 141.837 63.252H137.685V63.36C137.709 63.88 137.865 64.324 138.153 64.692C138.449 65.052 138.837 65.232 139.317 65.232C139.685 65.232 139.985 65.16 140.217 65.016C140.457 64.864 140.633 64.708 140.745 64.548C140.817 64.452 140.869 64.396 140.901 64.38C140.941 64.356 141.009 64.344 141.105 64.344H141.693C141.765 64.344 141.825 64.364 141.873 64.404C141.921 64.444 141.945 64.5 141.945 64.572C141.945 64.748 141.833 64.96 141.609 65.208C141.393 65.456 141.085 65.672 140.685 65.856C140.293 66.032 139.841 66.12 139.329 66.12ZM140.973 62.424V62.388C140.973 61.836 140.821 61.388 140.517 61.044C140.221 60.692 139.821 60.516 139.317 60.516C138.813 60.516 138.413 60.692 138.117 61.044C137.829 61.388 137.685 61.836 137.685 62.388V62.424H140.973ZM146.044 66.12C145.22 66.12 144.56 65.868 144.064 65.364C143.576 64.852 143.308 64.156 143.26 63.276L143.248 62.868L143.26 62.472C143.316 61.608 143.588 60.92 144.076 60.408C144.572 59.896 145.224 59.64 146.032 59.64C146.92 59.64 147.608 59.924 148.096 60.492C148.584 61.052 148.828 61.812 148.828 62.772V62.976C148.828 63.056 148.8 63.124 148.744 63.18C148.696 63.228 148.632 63.252 148.552 63.252H144.4V63.36C144.424 63.88 144.58 64.324 144.868 64.692C145.164 65.052 145.552 65.232 146.032 65.232C146.4 65.232 146.7 65.16 146.932 65.016C147.172 64.864 147.348 64.708 147.46 64.548C147.532 64.452 147.584 64.396 147.616 64.38C147.656 64.356 147.724 64.344 147.82 64.344H148.408C148.48 64.344 148.54 64.364 148.588 64.404C148.636 64.444 148.66 64.5 148.66 64.572C148.66 64.748 148.548 64.96 148.324 65.208C148.108 65.456 147.8 65.672 147.4 65.856C147.008 66.032 146.556 66.12 146.044 66.12ZM147.688 62.424V62.388C147.688 61.836 147.536 61.388 147.232 61.044C146.936 60.692 146.536 60.516 146.032 60.516C145.528 60.516 145.128 60.692 144.832 61.044C144.544 61.388 144.4 61.836 144.4 62.388V62.424H147.688ZM152.543 66.12C151.711 66.12 151.083 65.848 150.659 65.304C150.235 64.76 150.011 64.072 149.987 63.24L149.975 62.88L149.987 62.52C150.011 61.696 150.235 61.012 150.659 60.468C151.083 59.916 151.711 59.64 152.543 59.64C153.367 59.64 154.015 59.932 154.487 60.516V57.756C154.487 57.676 154.511 57.612 154.559 57.564C154.615 57.508 154.683 57.48 154.763 57.48H155.339C155.419 57.48 155.483 57.508 155.531 57.564C155.587 57.612 155.615 57.676 155.615 57.756V65.724C155.615 65.804 155.587 65.872 155.531 65.928C155.483 65.976 155.419 66 155.339 66H154.799C154.719 66 154.651 65.976 154.595 65.928C154.547 65.872 154.523 65.804 154.523 65.724V65.22C154.059 65.82 153.399 66.12 152.543 66.12ZM152.795 65.148C153.347 65.148 153.759 64.968 154.031 64.608C154.311 64.24 154.463 63.804 154.487 63.3C154.495 63.212 154.499 63.06 154.499 62.844C154.499 62.62 154.495 62.464 154.487 62.376C154.471 61.904 154.319 61.492 154.031 61.14C153.743 60.788 153.331 60.612 152.795 60.612C152.227 60.612 151.811 60.788 151.547 61.14C151.291 61.492 151.151 61.956 151.127 62.532L151.115 62.88C151.115 64.392 151.675 65.148 152.795 65.148ZM159.956 66.12C159.076 66.12 158.392 65.872 157.904 65.376C157.424 64.88 157.168 64.22 157.136 63.396L157.124 62.88L157.136 62.364C157.168 61.548 157.428 60.892 157.916 60.396C158.404 59.892 159.084 59.64 159.956 59.64C160.828 59.64 161.508 59.892 161.996 60.396C162.484 60.892 162.744 61.548 162.776 62.364C162.784 62.452 162.788 62.624 162.788 62.88C162.788 63.136 162.784 63.308 162.776 63.396C162.744 64.22 162.484 64.88 161.996 65.376C161.516 65.872 160.836 66.12 159.956 66.12ZM159.956 65.196C160.46 65.196 160.856 65.036 161.144 64.716C161.44 64.396 161.6 63.936 161.624 63.336C161.632 63.256 161.636 63.104 161.636 62.88C161.636 62.656 161.632 62.504 161.624 62.424C161.6 61.824 161.44 61.364 161.144 61.044C160.856 60.724 160.46 60.564 159.956 60.564C159.452 60.564 159.052 60.724 158.756 61.044C158.46 61.364 158.304 61.824 158.288 62.424L158.276 62.88L158.288 63.336C158.304 63.936 158.46 64.396 158.756 64.716C159.052 65.036 159.452 65.196 159.956 65.196ZM164.566 66C164.486 66 164.418 65.976 164.362 65.928C164.314 65.872 164.29 65.804 164.29 65.724V60.036C164.29 59.956 164.314 59.892 164.362 59.844C164.418 59.788 164.486 59.76 164.566 59.76H165.106C165.186 59.76 165.25 59.788 165.298 59.844C165.354 59.892 165.382 59.956 165.382 60.036V60.456C165.798 59.912 166.378 59.64 167.122 59.64C168.01 59.64 168.638 60.008 169.006 60.744C169.198 60.408 169.47 60.14 169.822 59.94C170.174 59.74 170.57 59.64 171.01 59.64C171.666 59.64 172.202 59.864 172.618 60.312C173.034 60.76 173.242 61.408 173.242 62.256V65.724C173.242 65.804 173.214 65.872 173.158 65.928C173.11 65.976 173.046 66 172.966 66H172.402C172.322 66 172.254 65.976 172.198 65.928C172.15 65.872 172.126 65.804 172.126 65.724V62.364C172.126 61.74 171.994 61.292 171.73 61.02C171.474 60.748 171.134 60.612 170.71 60.612C170.334 60.612 170.01 60.752 169.738 61.032C169.466 61.304 169.33 61.748 169.33 62.364V65.724C169.33 65.804 169.302 65.872 169.246 65.928C169.198 65.976 169.134 66 169.054 66H168.49C168.41 66 168.342 65.976 168.286 65.928C168.238 65.872 168.214 65.804 168.214 65.724V62.364C168.214 61.74 168.078 61.292 167.806 61.02C167.542 60.748 167.206 60.612 166.798 60.612C166.422 60.612 166.098 60.752 165.826 61.032C165.554 61.304 165.418 61.744 165.418 62.352V65.724C165.418 65.804 165.39 65.872 165.334 65.928C165.286 65.976 165.222 66 165.142 66H164.566Z" fill="#4E4E4E"/>
<circle cx="92" cy="79" r="6.5" stroke="black"/>
<circle cx="255" cy="79" r="6.5" stroke="black"/>
<path d="M96.0042 72.5647C96.0399 72.8385 96.2908 73.0315 96.5647 72.9958L101.027 72.4138C101.301 72.3781 101.494 72.1271 101.458 71.8533C101.422 71.5795 101.171 71.3865 100.898 71.4222L96.9311 71.9395L96.4138 67.9731C96.3781 67.6993 96.1271 67.5063 95.8533 67.542C95.5795 67.5777 95.3865 67.8286 95.4222 68.1025L96.0042 72.5647ZM111.5 53L111.5 52.5L111.254 52.5L111.104 52.6951L111.5 53ZM96.8963 72.8049L111.896 53.3049L111.104 52.6951L96.1037 72.1951L96.8963 72.8049ZM111.5 53.5L152 53.5V52.5L111.5 52.5L111.5 53.5Z" fill="#4E4E4E"/>
<path d="M250.996 72.5647C250.96 72.8385 250.709 73.0315 250.435 72.9958L245.973 72.4138C245.699 72.3781 245.506 72.1271 245.542 71.8533C245.578 71.5795 245.829 71.3865 246.102 71.4222L250.069 71.9395L250.586 67.9731C250.622 67.6993 250.873 67.5063 251.147 67.542C251.421 67.5777 251.614 67.8286 251.578 68.1025L250.996 72.5647ZM235.5 53V52.5H235.746L235.896 52.6951L235.5 53ZM250.104 72.8049L235.104 53.3049L235.896 52.6951L250.896 72.1951L250.104 72.8049ZM235.5 53.5H195V52.5H235.5V53.5Z" fill="#4E4E4E"/>
</svg>
