<svg width="63" height="63" viewBox="0 0 63 63" fill="none" xmlns="http://www.w3.org/2000/svg">
<path d="M58.9999 57C59 61 52.9999 61 52.9999 57C52.9999 53 59 53 58.9999 57Z" stroke="black" stroke-width="0.5"/>
<path d="M48.9999 57C49 61 42.9999 61 42.9999 57C42.9999 53 49 53 48.9999 57Z" stroke="black" stroke-width="0.5"/>
<path d="M38.9999 57C39 61 32.9999 61 32.9999 57C32.9999 53 39 53 38.9999 57Z" stroke="black" stroke-width="0.5"/>
<path d="M28.9999 57C29 61 22.9999 61 22.9999 57C22.9999 53 29 53 28.9999 57Z" stroke="black" stroke-width="0.5"/>
<path d="M58.9999 47C59 51 52.9999 51 52.9999 47C52.9999 43 59 43 58.9999 47Z" stroke="black" stroke-width="0.5"/>
<path d="M48.9999 47C49 51 42.9999 51 42.9999 47C42.9999 43 49 43 48.9999 47Z" stroke="black" stroke-width="0.5"/>
<path d="M38.9999 47C39 51 32.9999 51 32.9999 47C32.9999 43 39 43 38.9999 47Z" stroke="black" stroke-width="0.5"/>
<path d="M28.9999 47C29 51 22.9999 51 22.9999 47C22.9999 43 29 43 28.9999 47Z" stroke="black" stroke-width="0.5"/>
<path d="M58.9999 37C59 41 52.9999 41 52.9999 37C52.9999 33 59 33 58.9999 37Z" stroke="black" stroke-width="0.5"/>
<path d="M48.9999 37C49 41 42.9999 41 42.9999 37C42.9999 33 49 33 48.9999 37Z" stroke="black" stroke-width="0.5"/>
<path d="M38.9999 37C39 41 32.9999 41 32.9999 37C32.9999 33 39 33 38.9999 37Z" stroke="black" stroke-width="0.5"/>
<path d="M28.9999 37C29 41 22.9999 41 22.9999 37C22.9999 33 29 33 28.9999 37Z" stroke="black" stroke-width="0.5"/>
<path d="M58.9999 27C59 31 52.9999 31 52.9999 27C52.9999 23 59 23 58.9999 27Z" stroke="black" stroke-width="0.5"/>
<path d="M48.9999 27C49 31 42.9999 31 42.9999 27C42.9999 23 49 23 48.9999 27Z" stroke="black" stroke-width="0.5"/>
<path d="M38.9999 27C39 31 32.9999 31 32.9999 27C32.9999 23 39 23 38.9999 27Z" stroke="black" stroke-width="0.5"/>
<path d="M28.9999 27C29 31 22.9999 31 22.9999 27C22.9999 23 29 23 28.9999 27Z" stroke="black" stroke-width="0.5"/>
<path d="M58.9999 17C59 21 52.9999 21 52.9999 17C52.9999 13 59 13 58.9999 17Z" stroke="black" stroke-width="0.5"/>
<path d="M48.9999 17C49 21 42.9999 21 42.9999 17C42.9999 13 49 13 48.9999 17Z" stroke="black" stroke-width="0.5"/>
<path d="M38.9999 17C39 21 32.9999 21 32.9999 17C32.9999 13 39 13 38.9999 17Z" stroke="black" stroke-width="0.5"/>
<path d="M28.9999 17C29 21 22.9999 21 22.9999 17C22.9999 13 29 13 28.9999 17Z" stroke="black" stroke-width="0.5"/>
<path d="M58.9999 6.99999C59 11 52.9999 11 52.9999 6.99999C52.9999 2.99999 59 2.99999 58.9999 6.99999Z" stroke="black" stroke-width="0.5"/>
<path d="M48.9999 6.99999C49 11 42.9999 11 42.9999 6.99999C42.9999 2.99999 49 2.99999 48.9999 6.99999Z" stroke="black" stroke-width="0.5"/>
<path d="M38.9999 6.99999C39 11 32.9999 11 32.9999 6.99999C32.9999 2.99999 39 2.99999 38.9999 6.99999Z" stroke="black" stroke-width="0.5"/>
<path d="M28.9999 6.99999C29 11 22.9999 11 22.9999 6.99999C22.9999 2.99999 29 2.99999 28.9999 6.99999Z" stroke="black" stroke-width="0.5"/>
<path d="M18.9999 57C19 61 12.9999 61 12.9999 57C12.9999 53 19 53 18.9999 57Z" stroke="black" stroke-width="0.5"/>
<path d="M8.99994 57C9 61 2.99994 61 2.99994 57C2.99994 53 9 53 8.99994 57Z" stroke="black" stroke-width="0.5"/>
<path d="M18.9999 47C19 51 12.9999 51 12.9999 47C12.9999 43 19 43 18.9999 47Z" stroke="black" stroke-width="0.5"/>
<path d="M8.99994 47C9 51 2.99994 51 2.99994 47C2.99994 43 9 43 8.99994 47Z" stroke="black" stroke-width="0.5"/>
<path d="M18.9999 37C19 41 12.9999 41 12.9999 37C12.9999 33 19 33 18.9999 37Z" stroke="black" stroke-width="0.5"/>
<path d="M8.99994 37C9 41 2.99994 41 2.99994 37C2.99994 33 9 33 8.99994 37Z" stroke="black" stroke-width="0.5"/>
<path d="M18.9999 27C19 31 12.9999 31 12.9999 27C12.9999 23 19 23 18.9999 27Z" stroke="black" stroke-width="0.5"/>
<path d="M8.99994 27C9 31 2.99994 31 2.99994 27C2.99994 23 9 23 8.99994 27Z" stroke="black" stroke-width="0.5"/>
<path d="M18.9999 17C19 21 12.9999 21 12.9999 17C12.9999 13 19 13 18.9999 17Z" stroke="black" stroke-width="0.5"/>
<path d="M8.99994 17C9 21 2.99994 21 2.99994 17C2.99994 13 9 13 8.99994 17Z" stroke="black" stroke-width="0.5"/>
<path d="M18.9999 6.99999C19 11 12.9999 11 12.9999 6.99999C12.9999 2.99999 19 2.99999 18.9999 6.99999Z" stroke="black" stroke-width="0.5"/>
<path d="M8.99994 6.99999C9 11 2.99994 11 2.99994 6.99999C2.99994 2.99999 9 2.99999 8.99994 6.99999Z" stroke="black" stroke-width="0.5"/>
<circle cx="46" cy="57" r="3" transform="rotate(-180 46 57)" fill="#3D69C2" fill-opacity="0.7"/>
<circle cx="36" cy="57" r="3" transform="rotate(-180 36 57)" fill="#6967BC" fill-opacity="0.7"/>
<circle cx="26" cy="57" r="3" transform="rotate(-180 26 57)" fill="#6967BC" fill-opacity="0.7"/>
<circle cx="56" cy="47" r="3" transform="rotate(-180 56 47)" fill="#3D69C2" fill-opacity="0.7"/>
<circle cx="26" cy="47" r="3" transform="rotate(-180 26 47)" fill="#8665B4" fill-opacity="0.7"/>
<circle cx="56" cy="37" r="3" transform="rotate(-180 56 37)" fill="#6967BC" fill-opacity="0.7"/>
<circle cx="26" cy="37" r="3" transform="rotate(-180 26 37)" fill="#9B65AA" fill-opacity="0.7"/>
<circle cx="56" cy="27" r="3" transform="rotate(-180 56 27)" fill="#6967BC" fill-opacity="0.7"/>
<circle cx="46" cy="27" r="3" transform="rotate(-180 46 27)" fill="#8665B4" fill-opacity="0.7"/>
<circle cx="36" cy="27" r="3" transform="rotate(-180 36 27)" fill="#9B65AA" fill-opacity="0.7"/>
<circle cx="56" cy="17" r="3" transform="rotate(-180 56 17)" fill="#8665B4" fill-opacity="0.7"/>
<circle cx="46" cy="17" r="3" transform="rotate(-180 46 17)" fill="#9B65AA" fill-opacity="0.7"/>
<circle cx="36" cy="17" r="3" transform="rotate(-180 36 17)" fill="#9B65AA" fill-opacity="0.7"/>
<circle cx="26" cy="17" r="3" transform="rotate(-180 26 17)" fill="#AA66A0" fill-opacity="0.7"/>
<circle cx="56" cy="7" r="3" transform="rotate(-180 56 7)" fill="#9B65AA" fill-opacity="0.7"/>
<circle cx="46" cy="7" r="3" transform="rotate(-180 46 7)" fill="#9B65AA" fill-opacity="0.7"/>
<circle cx="36" cy="7" r="3" transform="rotate(-180 36 7)" fill="#AA66A0" fill-opacity="0.7"/>
<circle cx="26" cy="7" r="3" transform="rotate(-180 26 7)" fill="#AA66A0" fill-opacity="0.7"/>
<circle cx="16" cy="57" r="3" transform="rotate(-180 16 57)" fill="#8665B4" fill-opacity="0.7"/>
<circle cx="6" cy="57" r="3" transform="rotate(-180 6 57)" fill="#9B65AA" fill-opacity="0.7"/>
<circle cx="16" cy="47" r="3" transform="rotate(-180 16 47)" fill="#9B65AA" fill-opacity="0.7"/>
<circle cx="6" cy="47" r="3" transform="rotate(-180 6 47)" fill="#9B65AA" fill-opacity="0.7"/>
<circle cx="16" cy="37" r="3" transform="rotate(-180 16 37)" fill="#9B65AA" fill-opacity="0.7"/>
<circle cx="6" cy="37" r="3" transform="rotate(-180 6 37)" fill="#AA66A0" fill-opacity="0.7"/>
<circle cx="16" cy="27" r="3" transform="rotate(-180 16 27)" fill="#AA66A0" fill-opacity="0.7"/>
<circle cx="6" cy="27" r="3" transform="rotate(-180 6 27)" fill="#AA66A0" fill-opacity="0.7"/>
<circle cx="56" cy="47" r="1" transform="rotate(-180 56 47)" fill="white"/>
<circle cx="46" cy="47" r="1" transform="rotate(-180 46 47)" fill="white"/>
<circle cx="36" cy="47" r="1" transform="rotate(-180 36 47)" fill="white"/>
<circle cx="26" cy="47" r="1" transform="rotate(-180 26 47)" fill="white"/>
<circle cx="56" cy="37" r="1" transform="rotate(-180 56 37)" fill="white"/>
<circle cx="46" cy="37" r="1" transform="rotate(-180 46 37)" fill="white"/>
<circle cx="36" cy="37" r="1" transform="rotate(-180 36 37)" fill="white"/>
<circle cx="26" cy="37" r="1" transform="rotate(-180 26 37)" fill="white"/>
<circle cx="56" cy="27" r="1" transform="rotate(-180 56 27)" fill="white"/>
<circle cx="46" cy="27" r="1" transform="rotate(-180 46 27)" fill="white"/>
<circle cx="36" cy="27" r="1" transform="rotate(-180 36 27)" fill="white"/>
<circle cx="26" cy="27" r="1" transform="rotate(-180 26 27)" fill="white"/>
<circle cx="56" cy="17" r="1" transform="rotate(-180 56 17)" fill="white"/>
<circle cx="46" cy="17" r="1" transform="rotate(-180 46 17)" fill="white"/>
<circle cx="36" cy="17" r="1" transform="rotate(-180 36 17)" fill="white"/>
<circle cx="26" cy="17" r="1" transform="rotate(-180 26 17)" fill="white"/>
<circle cx="56" cy="7" r="1" transform="rotate(-180 56 7)" fill="white"/>
<circle cx="46" cy="7" r="1" transform="rotate(-180 46 7)" fill="white"/>
<circle cx="36" cy="7" r="1" transform="rotate(-180 36 7)" fill="white"/>
<circle cx="26" cy="7" r="1" transform="rotate(-180 26 7)" fill="white"/>
<circle cx="16" cy="57" r="1" transform="rotate(-180 16 57)" fill="white"/>
<circle cx="6" cy="57" r="1" transform="rotate(-180 6 57)" fill="white"/>
<circle cx="16" cy="47" r="1" transform="rotate(-180 16 47)" fill="white"/>
<circle cx="6" cy="47" r="1" transform="rotate(-180 6 47)" fill="white"/>
<circle cx="16" cy="37" r="1" transform="rotate(-180 16 37)" fill="white"/>
<circle cx="6" cy="37" r="1" transform="rotate(-180 6 37)" fill="white"/>
<circle cx="16" cy="27" r="1" transform="rotate(-180 16 27)" fill="white"/>
<circle cx="6" cy="27" r="1" transform="rotate(-180 6 27)" fill="white"/>
<circle cx="16" cy="17" r="1" transform="rotate(-180 16 17)" fill="white"/>
<circle cx="6" cy="17" r="1" transform="rotate(-180 6 17)" fill="white"/>
<circle cx="16" cy="7" r="1" transform="rotate(-180 16 7)" fill="white"/>
<circle cx="6" cy="7" r="1" transform="rotate(-180 6 7)" fill="white"/>
<circle cx="56" cy="57" r="1" transform="rotate(-180 56 57)" fill="white"/>
<circle cx="46" cy="57" r="1" transform="rotate(-180 46 57)" fill="white"/>
<circle cx="36" cy="57" r="1" transform="rotate(-180 36 57)" fill="white"/>
<circle cx="26" cy="57" r="1" transform="rotate(-180 26 57)" fill="white"/>
</svg>
