<svg width="339" height="82" viewBox="0 0 339 82" fill="none" xmlns="http://www.w3.org/2000/svg">
<path d="M62 55.5H171H280" stroke="#252323"/>
<path d="M4.28495 78H2.66495V65.148H9.84695V66.57H4.28495V71.124H9.50495V72.546H4.28495V78ZM14.0689 73.068L10.7389 68.352H12.5389L15.0229 71.988L17.4889 68.352H19.2709L15.9409 73.068L19.4509 78H17.6509L15.0229 74.148L12.3589 78H10.5769L14.0689 73.068ZM26.1703 78H24.6223V69.018C24.6223 68.502 24.6283 68.088 24.6403 67.776C24.6523 67.464 24.6703 67.14 24.6943 66.804C24.5023 66.996 24.3283 67.158 24.1723 67.29C24.0163 67.422 23.8183 67.59 23.5783 67.794L22.2103 68.91L21.3823 67.848L24.8563 65.148H26.1703V78Z" fill="#252323"/>
<path d="M24.2849 26H22.6649V13.148H29.8469V14.57H24.2849V19.124H29.5049V20.546H24.2849V26ZM34.0689 21.068L30.7389 16.352H32.5389L35.0229 19.988L37.4889 16.352H39.2709L35.9409 21.068L39.4509 26H37.6509L35.0229 22.148L32.3589 26H30.5769L34.0689 21.068ZM49.1403 26H40.6443V24.686L44.0103 21.284C44.6583 20.636 45.2043 20.06 45.6483 19.556C46.0923 19.052 46.4283 18.56 46.6563 18.08C46.8843 17.588 46.9983 17.054 46.9983 16.478C46.9983 15.77 46.7883 15.236 46.3683 14.876C45.9483 14.504 45.4023 14.318 44.7303 14.318C44.1063 14.318 43.5543 14.426 43.0743 14.642C42.6063 14.858 42.1263 15.158 41.6343 15.542L40.7883 14.48C41.2923 14.06 41.8683 13.706 42.5163 13.418C43.1763 13.118 43.9143 12.968 44.7303 12.968C45.9303 12.968 46.8783 13.274 47.5743 13.886C48.2703 14.486 48.6183 15.32 48.6183 16.388C48.6183 17.06 48.4803 17.69 48.2043 18.278C47.9283 18.866 47.5443 19.448 47.0523 20.024C46.5603 20.588 45.9843 21.194 45.3243 21.842L42.6423 24.488V24.56H49.1403V26Z" fill="#252323"/>
<path d="M299.285 78H297.665V65.148H304.847V66.57H299.285V71.124H304.505V72.546H299.285V78ZM309.069 73.068L305.739 68.352H307.539L310.023 71.988L312.489 68.352H314.271L310.941 73.068L314.451 78H312.651L310.023 74.148L307.359 78H305.577L309.069 73.068ZM323.654 68.154C323.654 69.018 323.414 69.708 322.934 70.224C322.454 70.728 321.806 71.064 320.99 71.232V71.304C322.022 71.424 322.79 71.748 323.294 72.276C323.798 72.804 324.05 73.494 324.05 74.346C324.05 75.09 323.876 75.756 323.528 76.344C323.18 76.92 322.64 77.37 321.908 77.694C321.188 78.018 320.258 78.18 319.118 78.18C318.446 78.18 317.822 78.126 317.246 78.018C316.67 77.922 316.118 77.742 315.59 77.478V76.002C316.13 76.266 316.712 76.476 317.336 76.632C317.96 76.776 318.56 76.848 319.136 76.848C320.288 76.848 321.116 76.626 321.62 76.182C322.136 75.726 322.394 75.102 322.394 74.31C322.394 73.506 322.076 72.93 321.44 72.582C320.816 72.222 319.934 72.042 318.794 72.042H317.552V70.692H318.812C319.868 70.692 320.666 70.47 321.206 70.026C321.758 69.582 322.034 68.994 322.034 68.262C322.034 67.638 321.824 67.158 321.404 66.822C320.984 66.474 320.414 66.3 319.694 66.3C318.998 66.3 318.404 66.402 317.912 66.606C317.42 66.81 316.934 67.068 316.454 67.38L315.662 66.3C316.118 65.94 316.682 65.628 317.354 65.364C318.038 65.1 318.812 64.968 319.676 64.968C321.02 64.968 322.016 65.268 322.664 65.868C323.324 66.468 323.654 67.23 323.654 68.154Z" fill="#252323"/>
<path d="M251.285 26H249.665V13.148H256.847V14.57H251.285V19.124H256.505V20.546H251.285V26ZM261.069 21.068L257.739 16.352H259.539L262.023 19.988L264.489 16.352H266.271L262.941 21.068L266.451 26H264.651L262.023 22.148L259.359 26H257.577L261.069 21.068ZM276.716 23.084H274.844V26H273.314V23.084H267.158V21.734L273.206 13.076H274.844V21.662H276.716V23.084ZM273.314 17.612C273.314 16.988 273.326 16.46 273.35 16.028C273.374 15.584 273.392 15.164 273.404 14.768H273.332C273.236 14.996 273.116 15.242 272.972 15.506C272.828 15.77 272.69 15.992 272.558 16.172L268.706 21.662H273.314V17.612Z" fill="#252323"/>
<path d="M44.1768 55.1768C44.2744 55.0791 44.2744 54.9209 44.1768 54.8232L42.5858 53.2322C42.4882 53.1346 42.3299 53.1346 42.2322 53.2322C42.1346 53.3299 42.1346 53.4882 42.2322 53.5858L43.6464 55L42.2322 56.4142C42.1346 56.5118 42.1346 56.6701 42.2322 56.7678C42.3299 56.8654 42.4882 56.8654 42.5858 56.7678L44.1768 55.1768ZM4 55.25H44V54.75H4V55.25Z" fill="#4E4E4E"/>
<path d="M58.1768 0.823223C58.0791 0.725594 57.9209 0.725594 57.8232 0.823223L56.2322 2.41422C56.1346 2.51184 56.1346 2.67014 56.2322 2.76777C56.3299 2.8654 56.4882 2.8654 56.5858 2.76777L58 1.35355L59.4142 2.76777C59.5118 2.8654 59.6701 2.8654 59.7678 2.76777C59.8654 2.67014 59.8654 2.51184 59.7678 2.41422L58.1768 0.823223ZM58.25 41V1H57.75V41H58.25Z" fill="#4E4E4E"/>
<path d="M284.177 0.823223C284.079 0.725594 283.921 0.725594 283.823 0.823223L282.232 2.41422C282.135 2.51184 282.135 2.67014 282.232 2.76777C282.33 2.8654 282.488 2.8654 282.586 2.76777L284 1.35355L285.414 2.76777C285.512 2.8654 285.67 2.8654 285.768 2.76777C285.865 2.67014 285.865 2.51184 285.768 2.41422L284.177 0.823223ZM284.25 41V1H283.75V41H284.25Z" fill="#4E4E4E"/>
<path d="M338.177 55.1768C338.274 55.0791 338.274 54.9209 338.177 54.8232L336.586 53.2322C336.488 53.1346 336.33 53.1346 336.232 53.2322C336.135 53.3299 336.135 53.4882 336.232 53.5858L337.646 55L336.232 56.4142C336.135 56.5118 336.135 56.6701 336.232 56.7678C336.33 56.8654 336.488 56.8654 336.586 56.7678L338.177 55.1768ZM298 55.25H338V54.75H298V55.25Z" fill="#4E4E4E"/>
<circle cx="284" cy="55" r="4" transform="rotate(-180 284 55)" fill="#CADEFC"/>
<circle cx="58" cy="55" r="4" transform="rotate(-180 58 55)" fill="#CADEFC"/>
<path d="M62 55.5C62 53 60 51.5 58 51.5" stroke="#252323"/>
<path d="M54 55.5C54 53 55.5 51.5 58 51.5" stroke="#252323"/>
<path d="M62 55C62 57.5 60 59 58 59" stroke="#252323"/>
<path d="M54 55C54 57.5 55.5 59 58 59" stroke="#252323"/>
<path d="M288 55C288 53 286 51.5 284 51.5" stroke="#252323"/>
<path d="M280 55C280 53 281.5 51.5 284 51.5" stroke="#252323"/>
<path d="M288 55C288 57.5 286 59 284 59" stroke="#252323"/>
<path d="M280 55C280 57.5 281.5 59 284 59" stroke="#252323"/>
</svg>
