<svg width="349" height="77" viewBox="0 0 349 77" fill="none" xmlns="http://www.w3.org/2000/svg">
<path d="M285.354 34.6464C285.158 34.4512 284.842 34.4512 284.646 34.6464L281.464 37.8284C281.269 38.0237 281.269 38.3403 281.464 38.5355C281.66 38.7308 281.976 38.7308 282.172 38.5355L285 35.7071L287.828 38.5355C288.024 38.7308 288.34 38.7308 288.536 38.5355C288.731 38.3403 288.731 38.0237 288.536 37.8284L285.354 34.6464ZM285.5 65V35H284.5V65H285.5Z" fill="#4E4E4E"/>
<path d="M59.3536 34.6464C59.1583 34.4512 58.8417 34.4512 58.6464 34.6464L55.4645 37.8284C55.2692 38.0237 55.2692 38.3403 55.4645 38.5355C55.6597 38.7308 55.9763 38.7308 56.1716 38.5355L59 35.7071L61.8284 38.5355C62.0237 38.7308 62.3403 38.7308 62.5355 38.5355C62.7308 38.3403 62.7308 38.0237 62.5355 37.8284L59.3536 34.6464ZM59.5 65L59.5 35L58.5 35L58.5 65L59.5 65Z" fill="#4E4E4E"/>
<path d="M294.395 61C294.275 61 294.179 60.964 294.107 60.892C294.035 60.82 293.999 60.724 293.999 60.604V52.684H292.397C292.277 52.684 292.181 52.648 292.109 52.576C292.037 52.504 292.001 52.408 292.001 52.288V52.036C292.001 51.916 292.037 51.82 292.109 51.748C292.181 51.676 292.277 51.64 292.397 51.64H293.999V50.614C293.999 49.702 294.197 48.988 294.593 48.472C294.989 47.944 295.697 47.68 296.717 47.68H297.653C297.773 47.68 297.869 47.716 297.941 47.788C298.013 47.86 298.049 47.956 298.049 48.076V48.328C298.049 48.448 298.013 48.544 297.941 48.616C297.869 48.688 297.773 48.724 297.653 48.724H296.717C296.105 48.724 295.679 48.886 295.439 49.21C295.211 49.522 295.097 50.02 295.097 50.704V51.64H297.473C297.593 51.64 297.689 51.676 297.761 51.748C297.833 51.82 297.869 51.916 297.869 52.036V52.288C297.869 52.408 297.833 52.504 297.761 52.576C297.689 52.648 297.593 52.684 297.473 52.684H295.097V60.604C295.097 60.724 295.061 60.82 294.989 60.892C294.917 60.964 294.821 61 294.701 61H294.395ZM299.1 64.06C298.98 64.06 298.884 64.024 298.812 63.952C298.74 63.88 298.704 63.784 298.704 63.664V63.358C298.704 63.262 298.734 63.166 298.794 63.07C298.854 62.986 298.968 62.884 299.136 62.764L300.018 62.134C300.678 61.654 301.146 61.3 301.422 61.072C301.71 60.856 301.926 60.64 302.07 60.424C302.226 60.196 302.304 59.944 302.304 59.668C302.304 59.368 302.19 59.128 301.962 58.948C301.734 58.756 301.458 58.66 301.134 58.66C300.762 58.66 300.492 58.726 300.324 58.858C300.168 58.99 300.066 59.11 300.018 59.218C299.958 59.338 299.922 59.41 299.91 59.434C299.838 59.566 299.772 59.656 299.712 59.704C299.652 59.74 299.574 59.758 299.478 59.758H299.208C298.992 59.758 298.884 59.656 298.884 59.452C298.884 59.176 298.986 58.9 299.19 58.624C299.394 58.336 299.67 58.108 300.018 57.94C300.366 57.76 300.738 57.67 301.134 57.67C301.794 57.67 302.328 57.868 302.736 58.264C303.144 58.66 303.348 59.128 303.348 59.668C303.348 60.1 303.252 60.484 303.06 60.82C302.88 61.144 302.598 61.462 302.214 61.774C301.842 62.086 301.266 62.512 300.486 63.052H303.222C303.342 63.052 303.438 63.088 303.51 63.16C303.582 63.232 303.618 63.328 303.618 63.448V63.664C303.618 63.784 303.582 63.88 303.51 63.952C303.438 64.024 303.342 64.06 303.222 64.06H299.1ZM306.803 64.06C306.683 64.06 306.587 64.024 306.515 63.952C306.443 63.88 306.407 63.784 306.407 63.664V59.146L305.273 59.992C305.213 60.04 305.135 60.064 305.039 60.064C304.919 60.064 304.811 60.01 304.715 59.902L304.589 59.722C304.529 59.638 304.499 59.554 304.499 59.47C304.499 59.35 304.553 59.248 304.661 59.164L306.389 57.886C306.509 57.802 306.647 57.76 306.803 57.76H307.055C307.175 57.76 307.271 57.796 307.343 57.868C307.415 57.94 307.451 58.036 307.451 58.156V63.664C307.451 63.784 307.415 63.88 307.343 63.952C307.271 64.024 307.175 64.06 307.055 64.06H306.803Z" fill="#4E4E4E"/>
<path d="M317.464 30C317.344 30 317.248 29.964 317.176 29.892C317.104 29.82 317.068 29.724 317.068 29.604V21.684H315.466C315.346 21.684 315.25 21.648 315.178 21.576C315.106 21.504 315.07 21.408 315.07 21.288V21.036C315.07 20.916 315.106 20.82 315.178 20.748C315.25 20.676 315.346 20.64 315.466 20.64H317.068V19.614C317.068 18.702 317.266 17.988 317.662 17.472C318.058 16.944 318.766 16.68 319.786 16.68H320.722C320.842 16.68 320.938 16.716 321.01 16.788C321.082 16.86 321.118 16.956 321.118 17.076V17.328C321.118 17.448 321.082 17.544 321.01 17.616C320.938 17.688 320.842 17.724 320.722 17.724H319.786C319.174 17.724 318.748 17.886 318.508 18.21C318.28 18.522 318.166 19.02 318.166 19.704V20.64H320.542C320.662 20.64 320.758 20.676 320.83 20.748C320.902 20.82 320.938 20.916 320.938 21.036V21.288C320.938 21.408 320.902 21.504 320.83 21.576C320.758 21.648 320.662 21.684 320.542 21.684H318.166V29.604C318.166 29.724 318.13 29.82 318.058 29.892C317.986 29.964 317.89 30 317.77 30H317.464ZM322.168 33.06C322.048 33.06 321.952 33.024 321.88 32.952C321.808 32.88 321.772 32.784 321.772 32.664V32.358C321.772 32.262 321.802 32.166 321.862 32.07C321.922 31.986 322.036 31.884 322.204 31.764L323.086 31.134C323.746 30.654 324.214 30.3 324.49 30.072C324.778 29.856 324.994 29.64 325.138 29.424C325.294 29.196 325.372 28.944 325.372 28.668C325.372 28.368 325.258 28.128 325.03 27.948C324.802 27.756 324.526 27.66 324.202 27.66C323.83 27.66 323.56 27.726 323.392 27.858C323.236 27.99 323.134 28.11 323.086 28.218C323.026 28.338 322.99 28.41 322.978 28.434C322.906 28.566 322.84 28.656 322.78 28.704C322.72 28.74 322.642 28.758 322.546 28.758H322.276C322.06 28.758 321.952 28.656 321.952 28.452C321.952 28.176 322.054 27.9 322.258 27.624C322.462 27.336 322.738 27.108 323.086 26.94C323.434 26.76 323.806 26.67 324.202 26.67C324.862 26.67 325.396 26.868 325.804 27.264C326.212 27.66 326.416 28.128 326.416 28.668C326.416 29.1 326.32 29.484 326.128 29.82C325.948 30.144 325.666 30.462 325.282 30.774C324.91 31.086 324.334 31.512 323.554 32.052H326.29C326.41 32.052 326.506 32.088 326.578 32.16C326.65 32.232 326.686 32.328 326.686 32.448V32.664C326.686 32.784 326.65 32.88 326.578 32.952C326.506 33.024 326.41 33.06 326.29 33.06H322.168ZM328.197 33.06C328.077 33.06 327.981 33.024 327.909 32.952C327.837 32.88 327.801 32.784 327.801 32.664V32.358C327.801 32.262 327.831 32.166 327.891 32.07C327.951 31.986 328.065 31.884 328.233 31.764L329.115 31.134C329.775 30.654 330.243 30.3 330.519 30.072C330.807 29.856 331.023 29.64 331.167 29.424C331.323 29.196 331.401 28.944 331.401 28.668C331.401 28.368 331.287 28.128 331.059 27.948C330.831 27.756 330.555 27.66 330.231 27.66C329.859 27.66 329.589 27.726 329.421 27.858C329.265 27.99 329.163 28.11 329.115 28.218C329.055 28.338 329.019 28.41 329.007 28.434C328.935 28.566 328.869 28.656 328.809 28.704C328.749 28.74 328.671 28.758 328.575 28.758H328.305C328.089 28.758 327.981 28.656 327.981 28.452C327.981 28.176 328.083 27.9 328.287 27.624C328.491 27.336 328.767 27.108 329.115 26.94C329.463 26.76 329.835 26.67 330.231 26.67C330.891 26.67 331.425 26.868 331.833 27.264C332.241 27.66 332.445 28.128 332.445 28.668C332.445 29.1 332.349 29.484 332.157 29.82C331.977 30.144 331.695 30.462 331.311 30.774C330.939 31.086 330.363 31.512 329.583 32.052H332.319C332.439 32.052 332.535 32.088 332.607 32.16C332.679 32.232 332.715 32.328 332.715 32.448V32.664C332.715 32.784 332.679 32.88 332.607 32.952C332.535 33.024 332.439 33.06 332.319 33.06H328.197Z" fill="#4E4E4E"/>
<path d="M15.3952 30C15.2752 30 15.1792 29.964 15.1072 29.892C15.0352 29.82 14.9992 29.724 14.9992 29.604V21.684H13.3972C13.2772 21.684 13.1812 21.648 13.1092 21.576C13.0372 21.504 13.0012 21.408 13.0012 21.288V21.036C13.0012 20.916 13.0372 20.82 13.1092 20.748C13.1812 20.676 13.2772 20.64 13.3972 20.64H14.9992V19.614C14.9992 18.702 15.1972 17.988 15.5932 17.472C15.9892 16.944 16.6972 16.68 17.7172 16.68H18.6532C18.7732 16.68 18.8692 16.716 18.9412 16.788C19.0132 16.86 19.0492 16.956 19.0492 17.076V17.328C19.0492 17.448 19.0132 17.544 18.9412 17.616C18.8692 17.688 18.7732 17.724 18.6532 17.724H17.7172C17.1052 17.724 16.6792 17.886 16.4392 18.21C16.2112 18.522 16.0972 19.02 16.0972 19.704V20.64H18.4732C18.5932 20.64 18.6892 20.676 18.7612 20.748C18.8332 20.82 18.8692 20.916 18.8692 21.036V21.288C18.8692 21.408 18.8332 21.504 18.7612 21.576C18.6892 21.648 18.5932 21.684 18.4732 21.684H16.0972V29.604C16.0972 29.724 16.0612 29.82 15.9892 29.892C15.9172 29.964 15.8212 30 15.7012 30H15.3952ZM21.7735 33.06C21.6535 33.06 21.5575 33.024 21.4855 32.952C21.4135 32.88 21.3775 32.784 21.3775 32.664V28.146L20.2435 28.992C20.1835 29.04 20.1055 29.064 20.0095 29.064C19.8895 29.064 19.7815 29.01 19.6855 28.902L19.5595 28.722C19.4995 28.638 19.4695 28.554 19.4695 28.47C19.4695 28.35 19.5235 28.248 19.6315 28.164L21.3595 26.886C21.4795 26.802 21.6175 26.76 21.7735 26.76H22.0255C22.1455 26.76 22.2415 26.796 22.3135 26.868C22.3855 26.94 22.4215 27.036 22.4215 27.156V32.664C22.4215 32.784 22.3855 32.88 22.3135 32.952C22.2415 33.024 22.1455 33.06 22.0255 33.06H21.7735ZM24.2655 33.06C24.1455 33.06 24.0495 33.024 23.9775 32.952C23.9055 32.88 23.8695 32.784 23.8695 32.664V32.358C23.8695 32.262 23.8995 32.166 23.9595 32.07C24.0195 31.986 24.1335 31.884 24.3015 31.764L25.1835 31.134C25.8435 30.654 26.3115 30.3 26.5875 30.072C26.8755 29.856 27.0915 29.64 27.2355 29.424C27.3915 29.196 27.4695 28.944 27.4695 28.668C27.4695 28.368 27.3555 28.128 27.1275 27.948C26.8995 27.756 26.6235 27.66 26.2995 27.66C25.9275 27.66 25.6575 27.726 25.4895 27.858C25.3335 27.99 25.2315 28.11 25.1835 28.218C25.1235 28.338 25.0875 28.41 25.0755 28.434C25.0035 28.566 24.9375 28.656 24.8775 28.704C24.8175 28.74 24.7395 28.758 24.6435 28.758H24.3735C24.1575 28.758 24.0495 28.656 24.0495 28.452C24.0495 28.176 24.1515 27.9 24.3555 27.624C24.5595 27.336 24.8355 27.108 25.1835 26.94C25.5315 26.76 25.9035 26.67 26.2995 26.67C26.9595 26.67 27.4935 26.868 27.9015 27.264C28.3095 27.66 28.5135 28.128 28.5135 28.668C28.5135 29.1 28.4175 29.484 28.2255 29.82C28.0455 30.144 27.7635 30.462 27.3795 30.774C27.0075 31.086 26.4315 31.512 25.6515 32.052H28.3875C28.5075 32.052 28.6035 32.088 28.6755 32.16C28.7475 32.232 28.7835 32.328 28.7835 32.448V32.664C28.7835 32.784 28.7475 32.88 28.6755 32.952C28.6035 33.024 28.5075 33.06 28.3875 33.06H24.2655Z" fill="#4E4E4E"/>
<path d="M69.3268 61C69.2068 61 69.1108 60.964 69.0388 60.892C68.9668 60.82 68.9308 60.724 68.9308 60.604V52.684H67.3288C67.2088 52.684 67.1128 52.648 67.0408 52.576C66.9688 52.504 66.9328 52.408 66.9328 52.288V52.036C66.9328 51.916 66.9688 51.82 67.0408 51.748C67.1128 51.676 67.2088 51.64 67.3288 51.64H68.9308V50.614C68.9308 49.702 69.1288 48.988 69.5248 48.472C69.9208 47.944 70.6288 47.68 71.6488 47.68H72.5848C72.7048 47.68 72.8008 47.716 72.8728 47.788C72.9448 47.86 72.9808 47.956 72.9808 48.076V48.328C72.9808 48.448 72.9448 48.544 72.8728 48.616C72.8008 48.688 72.7048 48.724 72.5848 48.724H71.6488C71.0368 48.724 70.6108 48.886 70.3708 49.21C70.1428 49.522 70.0288 50.02 70.0288 50.704V51.64H72.4048C72.5248 51.64 72.6208 51.676 72.6928 51.748C72.7648 51.82 72.8008 51.916 72.8008 52.036V52.288C72.8008 52.408 72.7648 52.504 72.6928 52.576C72.6208 52.648 72.5248 52.684 72.4048 52.684H70.0288V60.604C70.0288 60.724 69.9928 60.82 69.9208 60.892C69.8488 60.964 69.7528 61 69.6328 61H69.3268ZM75.7051 64.06C75.5851 64.06 75.4891 64.024 75.4171 63.952C75.3451 63.88 75.3091 63.784 75.3091 63.664V59.146L74.1751 59.992C74.1151 60.04 74.0371 60.064 73.9411 60.064C73.8211 60.064 73.7131 60.01 73.6171 59.902L73.4911 59.722C73.4311 59.638 73.4011 59.554 73.4011 59.47C73.4011 59.35 73.4551 59.248 73.5631 59.164L75.2911 57.886C75.4111 57.802 75.5491 57.76 75.7051 57.76H75.9571C76.0771 57.76 76.1731 57.796 76.2451 57.868C76.3171 57.94 76.3531 58.036 76.3531 58.156V63.664C76.3531 63.784 76.3171 63.88 76.2451 63.952C76.1731 64.024 76.0771 64.06 75.9571 64.06H75.7051ZM79.8712 64.06C79.7512 64.06 79.6552 64.024 79.5832 63.952C79.5112 63.88 79.4752 63.784 79.4752 63.664V59.146L78.3412 59.992C78.2812 60.04 78.2032 60.064 78.1072 60.064C77.9872 60.064 77.8792 60.01 77.7832 59.902L77.6572 59.722C77.5972 59.638 77.5672 59.554 77.5672 59.47C77.5672 59.35 77.6212 59.248 77.7292 59.164L79.4572 57.886C79.5772 57.802 79.7152 57.76 79.8712 57.76H80.1232C80.2432 57.76 80.3392 57.796 80.4112 57.868C80.4832 57.94 80.5192 58.036 80.5192 58.156V63.664C80.5192 63.784 80.4832 63.88 80.4112 63.952C80.3392 64.024 80.2432 64.06 80.1232 64.06H79.8712Z" fill="#4E4E4E"/>
<path d="M63 23.5H172H281" stroke="#252323"/>
<circle cx="59" cy="23" r="4" transform="rotate(-180 59 23)" fill="#CADEFC" stroke="black"/>
<circle cx="285" cy="23" r="4" transform="rotate(-180 285 23)" fill="#CADEFC" stroke="black"/>
<path d="M47.7052 11.4692L42.5747 8.82132L42.8468 14.5884L47.7052 11.4692ZM44.0923 37.0086C38.3782 35.9349 35.7726 30.5683 35.85 24.9055C35.8884 22.0884 36.5979 19.2543 37.8895 16.9463C39.1809 14.6387 41.0363 12.8852 43.3592 12.1585L43.0606 11.2041C40.4331 12.0261 38.3981 13.9898 37.0169 16.458C35.6358 18.9258 34.8905 21.926 34.8501 24.8919C34.7695 30.7951 37.5092 36.7891 43.9077 37.9914L44.0923 37.0086Z" fill="#4E4E4E"/>
<path d="M296.235 35.6653L301.366 38.3131L301.094 32.546L296.235 35.6653ZM299.848 10.1259C305.562 11.1995 308.168 16.5662 308.091 22.2289C308.052 25.0461 307.343 27.8802 306.051 30.1881C304.76 32.4958 302.904 34.2493 300.581 34.9759L300.88 35.9303C303.508 35.1083 305.543 33.1446 306.924 30.6765C308.305 28.2087 309.05 25.2084 309.091 22.2426C309.171 16.3393 306.431 10.3453 300.033 9.14305L299.848 10.1259Z" fill="#4E4E4E"/>
</svg>
