<svg width="386" height="121" viewBox="0 0 386 121" fill="none" xmlns="http://www.w3.org/2000/svg">
<path d="M296 69C289.5 69.5 289 66 289 61" stroke="#252323" stroke-width="0.5" stroke-linecap="round"/>
<path d="M101.5 51C105.5 51 108 55 108 60.5" stroke="#252323" stroke-width="0.5" stroke-linecap="round"/>
<path d="M89 60.5H198H307" stroke="#BAB9B9"/>
<circle cx="311" cy="60" r="4" transform="rotate(-180 311 60)" fill="#CADEFC" stroke="black"/>
<circle cx="85" cy="60" r="4" transform="rotate(-180 85 60)" fill="#CADEFC" stroke="black"/>
<path d="M89 60.5C130 23 168 48.5 193.5 60.5C220.5 73.2058 275.5 93 306.5 60.5" stroke="#252323" stroke-linecap="round"/>
<path d="M89 60.5L145 15.5" stroke="#4E4E4E" stroke-linecap="round"/>
<path d="M306 61L262 107" stroke="#4E4E4E" stroke-linecap="round"/>
<path d="M79.5236 47.18C78.2276 47.18 77.2676 46.76 76.6436 45.92C76.0316 45.068 75.7076 44.036 75.6716 42.824L75.6536 42.32L75.6716 41.816C75.7076 40.604 76.0316 39.578 76.6436 38.738C77.2676 37.886 78.2276 37.46 79.5236 37.46C80.8316 37.46 81.8396 37.934 82.5476 38.882V34.616C82.5476 34.496 82.5836 34.4 82.6556 34.328C82.7276 34.256 82.8236 34.22 82.9436 34.22H83.2496C83.3696 34.22 83.4656 34.256 83.5376 34.328C83.6096 34.4 83.6456 34.496 83.6456 34.616V46.604C83.6456 46.724 83.6096 46.82 83.5376 46.892C83.4656 46.964 83.3696 47 83.2496 47H82.9436C82.8236 47 82.7276 46.964 82.6556 46.892C82.5836 46.82 82.5476 46.724 82.5476 46.604V45.758C81.8516 46.706 80.8436 47.18 79.5236 47.18ZM79.6316 46.136C80.5796 46.136 81.2936 45.824 81.7736 45.2C82.2536 44.564 82.5116 43.82 82.5476 42.968C82.5596 42.848 82.5656 42.614 82.5656 42.266C82.5656 41.918 82.5596 41.684 82.5476 41.564C82.5356 41.048 82.4216 40.562 82.2056 40.106C81.9896 39.638 81.6656 39.254 81.2336 38.954C80.8016 38.654 80.2676 38.504 79.6316 38.504C78.6596 38.504 77.9456 38.816 77.4896 39.44C77.0456 40.052 76.8056 40.844 76.7696 41.816L76.7516 42.32C76.7516 43.436 76.9676 44.354 77.3996 45.074C77.8316 45.782 78.5756 46.136 79.6316 46.136ZM87.751 50.06C87.631 50.06 87.535 50.024 87.463 49.952C87.391 49.88 87.355 49.784 87.355 49.664V45.146L86.221 45.992C86.161 46.04 86.083 46.064 85.987 46.064C85.867 46.064 85.759 46.01 85.663 45.902L85.537 45.722C85.477 45.638 85.447 45.554 85.447 45.47C85.447 45.35 85.501 45.248 85.609 45.164L87.337 43.886C87.457 43.802 87.595 43.76 87.751 43.76H88.003C88.123 43.76 88.219 43.796 88.291 43.868C88.363 43.94 88.399 44.036 88.399 44.156V49.664C88.399 49.784 88.363 49.88 88.291 49.952C88.219 50.024 88.123 50.06 88.003 50.06H87.751ZM90.2431 50.06C90.1231 50.06 90.0271 50.024 89.9551 49.952C89.8831 49.88 89.8471 49.784 89.8471 49.664V49.358C89.8471 49.262 89.8771 49.166 89.9371 49.07C89.9971 48.986 90.1111 48.884 90.2791 48.764L91.1611 48.134C91.8211 47.654 92.2891 47.3 92.5651 47.072C92.8531 46.856 93.0691 46.64 93.2131 46.424C93.3691 46.196 93.4471 45.944 93.4471 45.668C93.4471 45.368 93.3331 45.128 93.1051 44.948C92.8771 44.756 92.6011 44.66 92.2771 44.66C91.9051 44.66 91.6351 44.726 91.4671 44.858C91.3111 44.99 91.2091 45.11 91.1611 45.218C91.1011 45.338 91.0651 45.41 91.0531 45.434C90.9811 45.566 90.9151 45.656 90.8551 45.704C90.7951 45.74 90.7171 45.758 90.6211 45.758H90.3511C90.1351 45.758 90.0271 45.656 90.0271 45.452C90.0271 45.176 90.1291 44.9 90.3331 44.624C90.5371 44.336 90.8131 44.108 91.1611 43.94C91.5091 43.76 91.8811 43.67 92.2771 43.67C92.9371 43.67 93.4711 43.868 93.8791 44.264C94.2871 44.66 94.4911 45.128 94.4911 45.668C94.4911 46.1 94.3951 46.484 94.2031 46.82C94.0231 47.144 93.7411 47.462 93.3571 47.774C92.9851 48.086 92.4091 48.512 91.6291 49.052H94.3651C94.4851 49.052 94.5811 49.088 94.6531 49.16C94.7251 49.232 94.7611 49.328 94.7611 49.448V49.664C94.7611 49.784 94.7251 49.88 94.6531 49.952C94.5811 50.024 94.4851 50.06 94.3651 50.06H90.2431Z" fill="#4E4E4E"/>
<path d="M304.592 81.18C303.296 81.18 302.336 80.76 301.712 79.92C301.1 79.068 300.776 78.036 300.74 76.824L300.722 76.32L300.74 75.816C300.776 74.604 301.1 73.578 301.712 72.738C302.336 71.886 303.296 71.46 304.592 71.46C305.9 71.46 306.908 71.934 307.616 72.882V68.616C307.616 68.496 307.652 68.4 307.724 68.328C307.796 68.256 307.892 68.22 308.012 68.22H308.318C308.438 68.22 308.534 68.256 308.606 68.328C308.678 68.4 308.714 68.496 308.714 68.616V80.604C308.714 80.724 308.678 80.82 308.606 80.892C308.534 80.964 308.438 81 308.318 81H308.012C307.892 81 307.796 80.964 307.724 80.892C307.652 80.82 307.616 80.724 307.616 80.604V79.758C306.92 80.706 305.912 81.18 304.592 81.18ZM304.7 80.136C305.648 80.136 306.362 79.824 306.842 79.2C307.322 78.564 307.58 77.82 307.616 76.968C307.628 76.848 307.634 76.614 307.634 76.266C307.634 75.918 307.628 75.684 307.616 75.564C307.604 75.048 307.49 74.562 307.274 74.106C307.058 73.638 306.734 73.254 306.302 72.954C305.87 72.654 305.336 72.504 304.7 72.504C303.728 72.504 303.014 72.816 302.558 73.44C302.114 74.052 301.874 74.844 301.838 75.816L301.82 76.32C301.82 77.436 302.036 78.354 302.468 79.074C302.9 79.782 303.644 80.136 304.7 80.136ZM311.145 84.06C311.025 84.06 310.929 84.024 310.857 83.952C310.785 83.88 310.749 83.784 310.749 83.664V83.358C310.749 83.262 310.779 83.166 310.839 83.07C310.899 82.986 311.013 82.884 311.181 82.764L312.063 82.134C312.723 81.654 313.191 81.3 313.467 81.072C313.755 80.856 313.971 80.64 314.115 80.424C314.271 80.196 314.349 79.944 314.349 79.668C314.349 79.368 314.235 79.128 314.007 78.948C313.779 78.756 313.503 78.66 313.179 78.66C312.807 78.66 312.537 78.726 312.369 78.858C312.213 78.99 312.111 79.11 312.063 79.218C312.003 79.338 311.967 79.41 311.955 79.434C311.883 79.566 311.817 79.656 311.757 79.704C311.697 79.74 311.619 79.758 311.523 79.758H311.253C311.037 79.758 310.929 79.656 310.929 79.452C310.929 79.176 311.031 78.9 311.235 78.624C311.439 78.336 311.715 78.108 312.063 77.94C312.411 77.76 312.783 77.67 313.179 77.67C313.839 77.67 314.373 77.868 314.781 78.264C315.189 78.66 315.393 79.128 315.393 79.668C315.393 80.1 315.297 80.484 315.105 80.82C314.925 81.144 314.643 81.462 314.259 81.774C313.887 82.086 313.311 82.512 312.531 83.052H315.267C315.387 83.052 315.483 83.088 315.555 83.16C315.627 83.232 315.663 83.328 315.663 83.448V83.664C315.663 83.784 315.627 83.88 315.555 83.952C315.483 84.024 315.387 84.06 315.267 84.06H311.145ZM317.175 84.06C317.055 84.06 316.959 84.024 316.887 83.952C316.815 83.88 316.779 83.784 316.779 83.664V83.358C316.779 83.262 316.809 83.166 316.869 83.07C316.929 82.986 317.043 82.884 317.211 82.764L318.093 82.134C318.753 81.654 319.221 81.3 319.497 81.072C319.785 80.856 320.001 80.64 320.145 80.424C320.301 80.196 320.379 79.944 320.379 79.668C320.379 79.368 320.265 79.128 320.037 78.948C319.809 78.756 319.533 78.66 319.209 78.66C318.837 78.66 318.567 78.726 318.399 78.858C318.243 78.99 318.141 79.11 318.093 79.218C318.033 79.338 317.997 79.41 317.985 79.434C317.913 79.566 317.847 79.656 317.787 79.704C317.727 79.74 317.649 79.758 317.553 79.758H317.283C317.067 79.758 316.959 79.656 316.959 79.452C316.959 79.176 317.061 78.9 317.265 78.624C317.469 78.336 317.745 78.108 318.093 77.94C318.441 77.76 318.813 77.67 319.209 77.67C319.869 77.67 320.403 77.868 320.811 78.264C321.219 78.66 321.423 79.128 321.423 79.668C321.423 80.1 321.327 80.484 321.135 80.82C320.955 81.144 320.673 81.462 320.289 81.774C319.917 82.086 319.341 82.512 318.561 83.052H321.297C321.417 83.052 321.513 83.088 321.585 83.16C321.657 83.232 321.693 83.328 321.693 83.448V83.664C321.693 83.784 321.657 83.88 321.585 83.952C321.513 84.024 321.417 84.06 321.297 84.06H317.175Z" fill="#4E4E4E"/>
</svg>
