<svg width="386" height="121" viewBox="0 0 386 121" fill="none" xmlns="http://www.w3.org/2000/svg">
<path d="M91.3536 74.6464C91.1583 74.4512 90.8417 74.4512 90.6464 74.6464L87.4645 77.8284C87.2692 78.0237 87.2692 78.3403 87.4645 78.5355C87.6597 78.7308 87.9763 78.7308 88.1716 78.5355L91 75.7071L93.8284 78.5355C94.0237 78.7308 94.3403 78.7308 94.5355 78.5355C94.7308 78.3403 94.7308 78.0237 94.5355 77.8284L91.3536 74.6464ZM91.5 98L91.5 75L90.5 75L90.5 98L91.5 98Z" fill="#4E4E4E"/>
<path d="M90.6464 46.3536C90.8417 46.5488 91.1583 46.5488 91.3536 46.3536L94.5355 43.1716C94.7308 42.9763 94.7308 42.6597 94.5355 42.4645C94.3403 42.2692 94.0237 42.2692 93.8284 42.4645L91 45.2929L88.1716 42.4645C87.9763 42.2692 87.6597 42.2692 87.4645 42.4645C87.2692 42.6597 87.2692 42.9763 87.4645 43.1716L90.6464 46.3536ZM91.5 46L91.5 23L90.5 23L90.5 46L91.5 46Z" fill="#4E4E4E"/>
<path d="M109.455 94.18C108.159 94.18 107.199 93.76 106.575 92.92C105.963 92.068 105.639 91.036 105.603 89.824L105.585 89.32L105.603 88.816C105.639 87.604 105.963 86.578 106.575 85.738C107.199 84.886 108.159 84.46 109.455 84.46C110.763 84.46 111.771 84.934 112.479 85.882V81.616C112.479 81.496 112.515 81.4 112.587 81.328C112.659 81.256 112.755 81.22 112.875 81.22H113.181C113.301 81.22 113.397 81.256 113.469 81.328C113.541 81.4 113.577 81.496 113.577 81.616V93.604C113.577 93.724 113.541 93.82 113.469 93.892C113.397 93.964 113.301 94 113.181 94H112.875C112.755 94 112.659 93.964 112.587 93.892C112.515 93.82 112.479 93.724 112.479 93.604V92.758C111.783 93.706 110.775 94.18 109.455 94.18ZM109.563 93.136C110.511 93.136 111.225 92.824 111.705 92.2C112.185 91.564 112.443 90.82 112.479 89.968C112.491 89.848 112.497 89.614 112.497 89.266C112.497 88.918 112.491 88.684 112.479 88.564C112.467 88.048 112.353 87.562 112.137 87.106C111.921 86.638 111.597 86.254 111.165 85.954C110.733 85.654 110.199 85.504 109.563 85.504C108.591 85.504 107.877 85.816 107.421 86.44C106.977 87.052 106.737 87.844 106.701 88.816L106.683 89.32C106.683 90.436 106.899 91.354 107.331 92.074C107.763 92.782 108.507 93.136 109.563 93.136ZM117.683 97.06C117.563 97.06 117.467 97.024 117.395 96.952C117.323 96.88 117.287 96.784 117.287 96.664V92.146L116.153 92.992C116.093 93.04 116.015 93.064 115.919 93.064C115.799 93.064 115.691 93.01 115.595 92.902L115.469 92.722C115.409 92.638 115.379 92.554 115.379 92.47C115.379 92.35 115.433 92.248 115.541 92.164L117.269 90.886C117.389 90.802 117.527 90.76 117.683 90.76H117.935C118.055 90.76 118.151 90.796 118.223 90.868C118.295 90.94 118.331 91.036 118.331 91.156V96.664C118.331 96.784 118.295 96.88 118.223 96.952C118.151 97.024 118.055 97.06 117.935 97.06H117.683ZM121.849 97.06C121.729 97.06 121.633 97.024 121.561 96.952C121.489 96.88 121.453 96.784 121.453 96.664V92.146L120.319 92.992C120.259 93.04 120.181 93.064 120.085 93.064C119.965 93.064 119.857 93.01 119.761 92.902L119.635 92.722C119.575 92.638 119.545 92.554 119.545 92.47C119.545 92.35 119.599 92.248 119.707 92.164L121.435 90.886C121.555 90.802 121.693 90.76 121.849 90.76H122.101C122.221 90.76 122.317 90.796 122.389 90.868C122.461 90.94 122.497 91.036 122.497 91.156V96.664C122.497 96.784 122.461 96.88 122.389 96.952C122.317 97.024 122.221 97.06 122.101 97.06H121.849Z" fill="#4E4E4E"/>
<circle cx="339" cy="50" r="4" transform="rotate(-180 339 50)" fill="#CADEFC" stroke="black"/>
<circle r="4" transform="matrix(-1 8.74228e-08 8.74228e-08 1 113 50)" fill="#CADEFC" fill-opacity="0.7" stroke="#252323" stroke-opacity="0.3"/>
<circle r="4" transform="matrix(-1 8.74228e-08 8.74228e-08 1 113 70)" fill="#CADEFC" stroke="black"/>
<path d="M63 50H102" stroke="#4E4E4E" stroke-dasharray="5 5"/>
<path d="M63 71H102" stroke="#4E4E4E" stroke-dasharray="5 5"/>
<path d="M117 70C176.2 70 141 70 154.5 70C179.866 70 185.6 50 218 50C250.4 50 321.833 50 335 50" stroke="black"/>
<path d="M117 50H211" stroke="#252323" stroke-opacity="0.3" stroke-dasharray="2 2"/>
</svg>
