<svg width="386" height="121" viewBox="0 0 386 121" fill="none" xmlns="http://www.w3.org/2000/svg">
<path d="M86.3536 72.6464C86.1583 72.4512 85.8417 72.4512 85.6464 72.6464L82.4645 75.8284C82.2692 76.0237 82.2692 76.3403 82.4645 76.5355C82.6597 76.7308 82.9763 76.7308 83.1716 76.5355L86 73.7071L88.8284 76.5355C89.0237 76.7308 89.3403 76.7308 89.5355 76.5355C89.7308 76.3403 89.7308 76.0237 89.5355 75.8284L86.3536 72.6464ZM86.5 103V73H85.5V103H86.5Z" fill="#4E4E4E"/>
<path d="M96.3952 99C96.2752 99 96.1792 98.964 96.1072 98.892C96.0352 98.82 95.9992 98.724 95.9992 98.604V90.684H94.3972C94.2772 90.684 94.1812 90.648 94.1092 90.576C94.0372 90.504 94.0012 90.408 94.0012 90.288V90.036C94.0012 89.916 94.0372 89.82 94.1092 89.748C94.1812 89.676 94.2772 89.64 94.3972 89.64H95.9992V88.614C95.9992 87.702 96.1972 86.988 96.5932 86.472C96.9892 85.944 97.6972 85.68 98.7172 85.68H99.6532C99.7732 85.68 99.8692 85.716 99.9412 85.788C100.013 85.86 100.049 85.956 100.049 86.076V86.328C100.049 86.448 100.013 86.544 99.9412 86.616C99.8692 86.688 99.7732 86.724 99.6532 86.724H98.7172C98.1052 86.724 97.6792 86.886 97.4392 87.21C97.2112 87.522 97.0972 88.02 97.0972 88.704V89.64H99.4732C99.5932 89.64 99.6892 89.676 99.7612 89.748C99.8332 89.82 99.8692 89.916 99.8692 90.036V90.288C99.8692 90.408 99.8332 90.504 99.7612 90.576C99.6892 90.648 99.5932 90.684 99.4732 90.684H97.0972V98.604C97.0972 98.724 97.0612 98.82 96.9892 98.892C96.9172 98.964 96.8212 99 96.7012 99H96.3952ZM102.774 102.06C102.654 102.06 102.558 102.024 102.486 101.952C102.414 101.88 102.378 101.784 102.378 101.664V97.146L101.244 97.992C101.184 98.04 101.106 98.064 101.01 98.064C100.89 98.064 100.782 98.01 100.686 97.902L100.56 97.722C100.5 97.638 100.47 97.554 100.47 97.47C100.47 97.35 100.524 97.248 100.632 97.164L102.36 95.886C102.48 95.802 102.618 95.76 102.774 95.76H103.026C103.146 95.76 103.242 95.796 103.314 95.868C103.386 95.94 103.422 96.036 103.422 96.156V101.664C103.422 101.784 103.386 101.88 103.314 101.952C103.242 102.024 103.146 102.06 103.026 102.06H102.774ZM105.266 102.06C105.146 102.06 105.05 102.024 104.978 101.952C104.906 101.88 104.87 101.784 104.87 101.664V101.358C104.87 101.262 104.9 101.166 104.96 101.07C105.02 100.986 105.134 100.884 105.302 100.764L106.184 100.134C106.844 99.654 107.312 99.3 107.588 99.072C107.876 98.856 108.092 98.64 108.236 98.424C108.392 98.196 108.47 97.944 108.47 97.668C108.47 97.368 108.356 97.128 108.128 96.948C107.9 96.756 107.624 96.66 107.3 96.66C106.928 96.66 106.658 96.726 106.49 96.858C106.334 96.99 106.232 97.11 106.184 97.218C106.124 97.338 106.088 97.41 106.076 97.434C106.004 97.566 105.938 97.656 105.878 97.704C105.818 97.74 105.74 97.758 105.644 97.758H105.374C105.158 97.758 105.05 97.656 105.05 97.452C105.05 97.176 105.152 96.9 105.356 96.624C105.56 96.336 105.836 96.108 106.184 95.94C106.532 95.76 106.904 95.67 107.3 95.67C107.96 95.67 108.494 95.868 108.902 96.264C109.31 96.66 109.514 97.128 109.514 97.668C109.514 98.1 109.418 98.484 109.226 98.82C109.046 99.144 108.764 99.462 108.38 99.774C108.008 100.086 107.432 100.512 106.652 101.052H109.388C109.508 101.052 109.604 101.088 109.676 101.16C109.748 101.232 109.784 101.328 109.784 101.448V101.664C109.784 101.784 109.748 101.88 109.676 101.952C109.604 102.024 109.508 102.06 109.388 102.06H105.266Z" fill="#4E4E4E"/>
<circle cx="282" cy="61" r="4" transform="rotate(-180 282 61)" fill="#CADEFC" stroke="black"/>
<path d="M90 41C149.2 41 114 41 127.5 41C152.866 41 158.6 61 191 61C223.4 61 264.833 61 278 61" stroke="black"/>
<circle cx="86" cy="41" r="4" transform="rotate(-180 86 41)" fill="#CADEFC" stroke="black"/>
<circle cx="86" cy="61" r="4" transform="rotate(-180 86 61)" fill="#CADEFC" fill-opacity="0.7" stroke="#242121" stroke-opacity="0.3"/>
<path d="M64.3536 65.6464C64.1583 65.4512 63.8417 65.4512 63.6464 65.6464L60.4645 68.8284C60.2692 69.0237 60.2692 69.3403 60.4645 69.5355C60.6597 69.7308 60.9763 69.7308 61.1716 69.5355L64 66.7071L66.8284 69.5355C67.0237 69.7308 67.3403 69.7308 67.5355 69.5355C67.7308 69.3403 67.7308 69.0237 67.5355 68.8284L64.3536 65.6464ZM64.5 89L64.5 66L63.5 66L63.5 89L64.5 89Z" fill="#4E4E4E"/>
<path d="M63.6464 37.3536C63.8417 37.5488 64.1583 37.5488 64.3536 37.3536L67.5355 34.1716C67.7308 33.9763 67.7308 33.6597 67.5355 33.4645C67.3403 33.2692 67.0237 33.2692 66.8284 33.4645L64 36.2929L61.1716 33.4645C60.9763 33.2692 60.6597 33.2692 60.4645 33.4645C60.2692 33.6597 60.2692 33.9763 60.4645 34.1716L63.6464 37.3536ZM64.5 37L64.5 14L63.5 14L63.5 37L64.5 37Z" fill="#4E4E4E"/>
<path d="M41.4553 27.18C40.1593 27.18 39.1993 26.76 38.5753 25.92C37.9633 25.068 37.6393 24.036 37.6033 22.824L37.5853 22.32L37.6033 21.816C37.6393 20.604 37.9633 19.578 38.5753 18.738C39.1993 17.886 40.1593 17.46 41.4553 17.46C42.7633 17.46 43.7713 17.934 44.4793 18.882V14.616C44.4793 14.496 44.5153 14.4 44.5873 14.328C44.6593 14.256 44.7553 14.22 44.8753 14.22H45.1813C45.3013 14.22 45.3973 14.256 45.4693 14.328C45.5413 14.4 45.5773 14.496 45.5773 14.616V26.604C45.5773 26.724 45.5413 26.82 45.4693 26.892C45.3973 26.964 45.3013 27 45.1813 27H44.8753C44.7553 27 44.6593 26.964 44.5873 26.892C44.5153 26.82 44.4793 26.724 44.4793 26.604V25.758C43.7833 26.706 42.7753 27.18 41.4553 27.18ZM41.5633 26.136C42.5113 26.136 43.2253 25.824 43.7053 25.2C44.1853 24.564 44.4433 23.82 44.4793 22.968C44.4913 22.848 44.4973 22.614 44.4973 22.266C44.4973 21.918 44.4913 21.684 44.4793 21.564C44.4673 21.048 44.3533 20.562 44.1373 20.106C43.9213 19.638 43.5973 19.254 43.1653 18.954C42.7333 18.654 42.1993 18.504 41.5633 18.504C40.5913 18.504 39.8773 18.816 39.4213 19.44C38.9773 20.052 38.7373 20.844 38.7013 21.816L38.6833 22.32C38.6833 23.436 38.8993 24.354 39.3313 25.074C39.7633 25.782 40.5073 26.136 41.5633 26.136ZM49.6827 30.06C49.5627 30.06 49.4667 30.024 49.3947 29.952C49.3227 29.88 49.2867 29.784 49.2867 29.664V25.146L48.1527 25.992C48.0927 26.04 48.0147 26.064 47.9187 26.064C47.7987 26.064 47.6907 26.01 47.5947 25.902L47.4687 25.722C47.4087 25.638 47.3787 25.554 47.3787 25.47C47.3787 25.35 47.4327 25.248 47.5407 25.164L49.2687 23.886C49.3887 23.802 49.5267 23.76 49.6827 23.76H49.9347C50.0547 23.76 50.1507 23.796 50.2227 23.868C50.2947 23.94 50.3307 24.036 50.3307 24.156V29.664C50.3307 29.784 50.2947 29.88 50.2227 29.952C50.1507 30.024 50.0547 30.06 49.9347 30.06H49.6827ZM53.8487 30.06C53.7287 30.06 53.6327 30.024 53.5607 29.952C53.4887 29.88 53.4527 29.784 53.4527 29.664V25.146L52.3187 25.992C52.2587 26.04 52.1807 26.064 52.0847 26.064C51.9647 26.064 51.8567 26.01 51.7607 25.902L51.6347 25.722C51.5747 25.638 51.5447 25.554 51.5447 25.47C51.5447 25.35 51.5987 25.248 51.7067 25.164L53.4347 23.886C53.5547 23.802 53.6927 23.76 53.8487 23.76H54.1007C54.2207 23.76 54.3167 23.796 54.3887 23.868C54.4607 23.94 54.4967 24.036 54.4967 24.156V29.664C54.4967 29.784 54.4607 29.88 54.3887 29.952C54.3167 30.024 54.2207 30.06 54.1007 30.06H53.8487Z" fill="#4E4E4E"/>
<path d="M36 41H75" stroke="#4E4E4E" stroke-dasharray="5 5"/>
<path d="M36 62H75" stroke="#4E4E4E" stroke-dasharray="5 5"/>
<path d="M90 61L138.5 61L187 61" stroke="#252323" stroke-opacity="0.3"/>
<path d="M86 57L86 45" stroke="#252323" stroke-opacity="0.3" stroke-dasharray="2 2"/>
</svg>
