<svg width="386" height="121" viewBox="0 0 386 121" fill="none" xmlns="http://www.w3.org/2000/svg">
<circle cx="86" cy="61" r="4" transform="rotate(-180 86 61)" fill="#CADEFC" stroke="#242121"/>
<path d="M181 61L229.5 61L278 61" stroke="#252323" stroke-opacity="0.3"/>
<circle r="4" transform="matrix(1 -8.74228e-08 -8.74228e-08 -1 282 41)" fill="#CADEFC" stroke="black"/>
<path d="M339.592 58.18C338.296 58.18 337.336 57.76 336.712 56.92C336.1 56.068 335.776 55.036 335.74 53.824L335.722 53.32L335.74 52.816C335.776 51.604 336.1 50.578 336.712 49.738C337.336 48.886 338.296 48.46 339.592 48.46C340.9 48.46 341.908 48.934 342.616 49.882V45.616C342.616 45.496 342.652 45.4 342.724 45.328C342.796 45.256 342.892 45.22 343.012 45.22H343.318C343.438 45.22 343.534 45.256 343.606 45.328C343.678 45.4 343.714 45.496 343.714 45.616V57.604C343.714 57.724 343.678 57.82 343.606 57.892C343.534 57.964 343.438 58 343.318 58H343.012C342.892 58 342.796 57.964 342.724 57.892C342.652 57.82 342.616 57.724 342.616 57.604V56.758C341.92 57.706 340.912 58.18 339.592 58.18ZM339.7 57.136C340.648 57.136 341.362 56.824 341.842 56.2C342.322 55.564 342.58 54.82 342.616 53.968C342.628 53.848 342.634 53.614 342.634 53.266C342.634 52.918 342.628 52.684 342.616 52.564C342.604 52.048 342.49 51.562 342.274 51.106C342.058 50.638 341.734 50.254 341.302 49.954C340.87 49.654 340.336 49.504 339.7 49.504C338.728 49.504 338.014 49.816 337.558 50.44C337.114 51.052 336.874 51.844 336.838 52.816L336.82 53.32C336.82 54.436 337.036 55.354 337.468 56.074C337.9 56.782 338.644 57.136 339.7 57.136ZM346.145 61.06C346.025 61.06 345.929 61.024 345.857 60.952C345.785 60.88 345.749 60.784 345.749 60.664V60.358C345.749 60.262 345.779 60.166 345.839 60.07C345.899 59.986 346.013 59.884 346.181 59.764L347.063 59.134C347.723 58.654 348.191 58.3 348.467 58.072C348.755 57.856 348.971 57.64 349.115 57.424C349.271 57.196 349.349 56.944 349.349 56.668C349.349 56.368 349.235 56.128 349.007 55.948C348.779 55.756 348.503 55.66 348.179 55.66C347.807 55.66 347.537 55.726 347.369 55.858C347.213 55.99 347.111 56.11 347.063 56.218C347.003 56.338 346.967 56.41 346.955 56.434C346.883 56.566 346.817 56.656 346.757 56.704C346.697 56.74 346.619 56.758 346.523 56.758H346.253C346.037 56.758 345.929 56.656 345.929 56.452C345.929 56.176 346.031 55.9 346.235 55.624C346.439 55.336 346.715 55.108 347.063 54.94C347.411 54.76 347.783 54.67 348.179 54.67C348.839 54.67 349.373 54.868 349.781 55.264C350.189 55.66 350.393 56.128 350.393 56.668C350.393 57.1 350.297 57.484 350.105 57.82C349.925 58.144 349.643 58.462 349.259 58.774C348.887 59.086 348.311 59.512 347.531 60.052H350.267C350.387 60.052 350.483 60.088 350.555 60.16C350.627 60.232 350.663 60.328 350.663 60.448V60.664C350.663 60.784 350.627 60.88 350.555 60.952C350.483 61.024 350.387 61.06 350.267 61.06H346.145ZM352.175 61.06C352.055 61.06 351.959 61.024 351.887 60.952C351.815 60.88 351.779 60.784 351.779 60.664V60.358C351.779 60.262 351.809 60.166 351.869 60.07C351.929 59.986 352.043 59.884 352.211 59.764L353.093 59.134C353.753 58.654 354.221 58.3 354.497 58.072C354.785 57.856 355.001 57.64 355.145 57.424C355.301 57.196 355.379 56.944 355.379 56.668C355.379 56.368 355.265 56.128 355.037 55.948C354.809 55.756 354.533 55.66 354.209 55.66C353.837 55.66 353.567 55.726 353.399 55.858C353.243 55.99 353.141 56.11 353.093 56.218C353.033 56.338 352.997 56.41 352.985 56.434C352.913 56.566 352.847 56.656 352.787 56.704C352.727 56.74 352.649 56.758 352.553 56.758H352.283C352.067 56.758 351.959 56.656 351.959 56.452C351.959 56.176 352.061 55.9 352.265 55.624C352.469 55.336 352.745 55.108 353.093 54.94C353.441 54.76 353.813 54.67 354.209 54.67C354.869 54.67 355.403 54.868 355.811 55.264C356.219 55.66 356.423 56.128 356.423 56.668C356.423 57.1 356.327 57.484 356.135 57.82C355.955 58.144 355.673 58.462 355.289 58.774C354.917 59.086 354.341 59.512 353.561 60.052H356.297C356.417 60.052 356.513 60.088 356.585 60.16C356.657 60.232 356.693 60.328 356.693 60.448V60.664C356.693 60.784 356.657 60.88 356.585 60.952C356.513 61.024 356.417 61.06 356.297 61.06H352.175Z" fill="#4E4E4E"/>
<path d="M334 41H295" stroke="#4E4E4E" stroke-dasharray="5 5"/>
<path d="M334 62H295" stroke="#4E4E4E" stroke-dasharray="5 5"/>
<path d="M319.646 63.6464C319.842 63.4512 320.158 63.4512 320.354 63.6464L323.536 66.8284C323.731 67.0237 323.731 67.3403 323.536 67.5355C323.34 67.7308 323.024 67.7308 322.828 67.5355L320 64.7071L317.172 67.5355C316.976 67.7308 316.66 67.7308 316.464 67.5355C316.269 67.3403 316.269 67.0237 316.464 66.8284L319.646 63.6464ZM319.5 87L319.5 64L320.5 64L320.5 87L319.5 87Z" fill="#4E4E4E"/>
<path d="M320.354 39.3536C320.158 39.5488 319.842 39.5488 319.646 39.3536L316.464 36.1716C316.269 35.9763 316.269 35.6597 316.464 35.4645C316.66 35.2692 316.976 35.2692 317.172 35.4645L320 38.2929L322.828 35.4645C323.024 35.2692 323.34 35.2692 323.536 35.4645C323.731 35.6597 323.731 35.9763 323.536 36.1716L320.354 39.3536ZM319.5 39L319.5 16L320.5 16L320.5 39L319.5 39Z" fill="#4E4E4E"/>
<path d="M282 57L282 45" stroke="#252323" stroke-opacity="0.3" stroke-dasharray="2 2"/>
<circle cx="282" cy="61" r="4" transform="rotate(-180 282 61)" fill="#CADEFC" fill-opacity="0.7" stroke="black" stroke-opacity="0.3"/>
<path d="M282.354 72.6464C282.158 72.4512 281.842 72.4512 281.646 72.6464L278.464 75.8284C278.269 76.0237 278.269 76.3403 278.464 76.5355C278.66 76.7308 278.976 76.7308 279.172 76.5355L282 73.7071L284.828 76.5355C285.024 76.7308 285.34 76.7308 285.536 76.5355C285.731 76.3403 285.731 76.0237 285.536 75.8284L282.354 72.6464ZM282.5 103V73H281.5V103H282.5Z" fill="#4E4E4E"/>
<path d="M259.464 99C259.344 99 259.248 98.964 259.176 98.892C259.104 98.82 259.068 98.724 259.068 98.604V90.684H257.466C257.346 90.684 257.25 90.648 257.178 90.576C257.106 90.504 257.07 90.408 257.07 90.288V90.036C257.07 89.916 257.106 89.82 257.178 89.748C257.25 89.676 257.346 89.64 257.466 89.64H259.068V88.614C259.068 87.702 259.266 86.988 259.662 86.472C260.058 85.944 260.766 85.68 261.786 85.68H262.722C262.842 85.68 262.938 85.716 263.01 85.788C263.082 85.86 263.118 85.956 263.118 86.076V86.328C263.118 86.448 263.082 86.544 263.01 86.616C262.938 86.688 262.842 86.724 262.722 86.724H261.786C261.174 86.724 260.748 86.886 260.508 87.21C260.28 87.522 260.166 88.02 260.166 88.704V89.64H262.542C262.662 89.64 262.758 89.676 262.83 89.748C262.902 89.82 262.938 89.916 262.938 90.036V90.288C262.938 90.408 262.902 90.504 262.83 90.576C262.758 90.648 262.662 90.684 262.542 90.684H260.166V98.604C260.166 98.724 260.13 98.82 260.058 98.892C259.986 98.964 259.89 99 259.77 99H259.464ZM264.168 102.06C264.048 102.06 263.952 102.024 263.88 101.952C263.808 101.88 263.772 101.784 263.772 101.664V101.358C263.772 101.262 263.802 101.166 263.862 101.07C263.922 100.986 264.036 100.884 264.204 100.764L265.086 100.134C265.746 99.654 266.214 99.3 266.49 99.072C266.778 98.856 266.994 98.64 267.138 98.424C267.294 98.196 267.372 97.944 267.372 97.668C267.372 97.368 267.258 97.128 267.03 96.948C266.802 96.756 266.526 96.66 266.202 96.66C265.83 96.66 265.56 96.726 265.392 96.858C265.236 96.99 265.134 97.11 265.086 97.218C265.026 97.338 264.99 97.41 264.978 97.434C264.906 97.566 264.84 97.656 264.78 97.704C264.72 97.74 264.642 97.758 264.546 97.758H264.276C264.06 97.758 263.952 97.656 263.952 97.452C263.952 97.176 264.054 96.9 264.258 96.624C264.462 96.336 264.738 96.108 265.086 95.94C265.434 95.76 265.806 95.67 266.202 95.67C266.862 95.67 267.396 95.868 267.804 96.264C268.212 96.66 268.416 97.128 268.416 97.668C268.416 98.1 268.32 98.484 268.128 98.82C267.948 99.144 267.666 99.462 267.282 99.774C266.91 100.086 266.334 100.512 265.554 101.052H268.29C268.41 101.052 268.506 101.088 268.578 101.16C268.65 101.232 268.686 101.328 268.686 101.448V101.664C268.686 101.784 268.65 101.88 268.578 101.952C268.506 102.024 268.41 102.06 268.29 102.06H264.168ZM270.197 102.06C270.077 102.06 269.981 102.024 269.909 101.952C269.837 101.88 269.801 101.784 269.801 101.664V101.358C269.801 101.262 269.831 101.166 269.891 101.07C269.951 100.986 270.065 100.884 270.233 100.764L271.115 100.134C271.775 99.654 272.243 99.3 272.519 99.072C272.807 98.856 273.023 98.64 273.167 98.424C273.323 98.196 273.401 97.944 273.401 97.668C273.401 97.368 273.287 97.128 273.059 96.948C272.831 96.756 272.555 96.66 272.231 96.66C271.859 96.66 271.589 96.726 271.421 96.858C271.265 96.99 271.163 97.11 271.115 97.218C271.055 97.338 271.019 97.41 271.007 97.434C270.935 97.566 270.869 97.656 270.809 97.704C270.749 97.74 270.671 97.758 270.575 97.758H270.305C270.089 97.758 269.981 97.656 269.981 97.452C269.981 97.176 270.083 96.9 270.287 96.624C270.491 96.336 270.767 96.108 271.115 95.94C271.463 95.76 271.835 95.67 272.231 95.67C272.891 95.67 273.425 95.868 273.833 96.264C274.241 96.66 274.445 97.128 274.445 97.668C274.445 98.1 274.349 98.484 274.157 98.82C273.977 99.144 273.695 99.462 273.311 99.774C272.939 100.086 272.363 100.512 271.583 101.052H274.319C274.439 101.052 274.535 101.088 274.607 101.16C274.679 101.232 274.715 101.328 274.715 101.448V101.664C274.715 101.784 274.679 101.88 274.607 101.952C274.535 102.024 274.439 102.06 274.319 102.06H270.197Z" fill="#4E4E4E"/>
<path d="M278 41C218.8 41 254 41 240.5 41C215.134 41 209.4 61 177 61C144.6 61 103.167 61 90 61" stroke="black"/>
</svg>
