<svg width="160" height="90" viewBox="0 0 160 90" fill="none" xmlns="http://www.w3.org/2000/svg">
<rect width="160" height="90" fill="white"/>
<path d="M2.33975 45L11 53.6603L19.6603 45L11 36.3397L2.33975 45ZM11 46.5C11.1794 46.5 11.3586 46.5 11.5376 46.5C11.7166 46.5 11.8954 46.5 12.0741 46.5C12.2527 46.5 12.4312 46.5 12.6095 46.5C12.7878 46.5 12.966 46.5 13.1439 46.5C13.3219 46.5 13.4996 46.5 13.6772 46.5C13.8548 46.5 14.0322 46.5 14.2095 46.5C14.3867 46.5 14.5638 46.5 14.7407 46.5C14.9176 46.5 15.0943 46.5 15.2708 46.5C15.4473 46.5 15.6237 46.5 15.7999 46.5C15.976 46.5 16.152 46.5 16.3279 46.5C16.5037 46.5 16.6793 46.5 16.8548 46.5C17.0303 46.5 17.2056 46.5 17.3807 46.5C17.5558 46.5 17.7308 46.5 17.9055 46.5C18.0803 46.5 18.2549 46.5 18.4293 46.5C18.6037 46.5 18.7779 46.5 18.952 46.5C19.126 46.5 19.2999 46.5 19.4736 46.5C19.6473 46.5 19.8209 46.5 19.9942 46.5C20.1676 46.5 20.3407 46.5 20.5137 46.5C20.6867 46.5 20.8596 46.5 21.0322 46.5C21.2048 46.5 21.3773 46.5 21.5496 46.5C21.7219 46.5 21.894 46.5 22.066 46.5C22.2379 46.5 22.4097 46.5 22.5813 46.5C22.7529 46.5 22.9243 46.5 23.0955 46.5C23.2668 46.5 23.4378 46.5 23.6087 46.5C23.7796 46.5 23.9503 46.5 24.1208 46.5C24.2914 46.5 24.4617 46.5 24.6319 46.5C24.8021 46.5 24.9721 46.5 25.1419 46.5C25.3118 46.5 25.4814 46.5 25.6509 46.5C25.8204 46.5 25.9897 46.5 26.1588 46.5C26.328 46.5 26.4969 46.5 26.6657 46.5C26.8345 46.5 27.0031 46.5 27.1715 46.5C27.34 46.5 27.5082 46.5 27.6763 46.5C27.8444 46.5 28.0123 46.5 28.18 46.5C28.3477 46.5 28.5153 46.5 28.6827 46.5C28.8501 46.5 29.0173 46.5 29.1843 46.5C29.3513 46.5 29.5182 46.5 29.6849 46.5C29.8515 46.5 30.018 46.5 30.1844 46.5C30.3507 46.5 30.5169 46.5 30.6829 46.5C30.8488 46.5 31.0146 46.5 31.1803 46.5C31.3459 46.5 31.5114 46.5 31.6766 46.5C31.8419 46.5 32.007 46.5 32.172 46.5C32.3369 46.5 32.5017 46.5 32.6663 46.5C32.8308 46.5 32.9953 46.5 33.1595 46.5C33.3237 46.5 33.4878 46.5 33.6517 46.5C33.8156 46.5 33.9793 46.5 34.1428 46.5C34.3064 46.5 34.4697 46.5 34.6329 46.5C34.7961 46.5 34.9591 46.5 35.122 46.5C35.2848 46.5 35.4475 46.5 35.61 46.5C35.7725 46.5 35.9348 46.5 36.097 46.5C36.2591 46.5 36.4211 46.5 36.5829 46.5C36.7447 46.5 36.9063 46.5 37.0678 46.5C37.2292 46.5 37.3905 46.5 37.5516 46.5C37.7127 46.5 37.8737 46.5 38.0344 46.5C38.1952 46.5 38.3558 46.5 38.5162 46.5C38.6766 46.5 38.8368 46.5 38.9969 46.5C39.157 46.5 39.3169 46.5 39.4766 46.5C39.6363 46.5 39.7959 46.5 39.9552 46.5C40.1146 46.5 40.2738 46.5 40.4328 46.5C40.5919 46.5 40.7507 46.5 40.9094 46.5C41.0681 46.5 41.2266 46.5 41.3849 46.5C41.5433 46.5 41.7014 46.5 41.8594 46.5C42.0174 46.5 42.1752 46.5 42.3329 46.5C42.4905 46.5 42.648 46.5 42.8053 46.5C42.9626 46.5 43.1197 46.5 43.2767 46.5C43.4336 46.5 43.5904 46.5 43.747 46.5C43.9036 46.5 44.0601 46.5 44.2163 46.5C44.3726 46.5 44.5287 46.5 44.6846 46.5C44.8405 46.5 44.9963 46.5 45.1519 46.5C45.3074 46.5 45.4628 46.5 45.6181 46.5C45.7733 46.5 45.9284 46.5 46.0832 46.5C46.2381 46.5 46.3928 46.5 46.5474 46.5C46.7019 46.5 46.8563 46.5 47.0105 46.5C47.1647 46.5 47.3187 46.5 47.4726 46.5C47.6264 46.5 47.7801 46.5 47.9336 46.5C48.0871 46.5 48.2405 46.5 48.3936 46.5C48.5468 46.5 48.6998 46.5 48.8526 46.5C49.0055 46.5 49.1581 46.5 49.3106 46.5C49.4631 46.5 49.6154 46.5 49.7675 46.5C49.9197 46.5 50.0716 46.5 50.2234 46.5C50.3752 46.5 50.5268 46.5 50.6783 46.5C50.8298 46.5 50.981 46.5 51.1321 46.5C51.2833 46.5 51.4342 46.5 51.585 46.5C51.7357 46.5 51.8863 46.5 52.0368 46.5C52.1872 46.5 52.3374 46.5 52.4875 46.5C52.6376 46.5 52.7875 46.5 52.9373 46.5C53.087 46.5 53.2366 46.5 53.386 46.5C53.5354 46.5 53.6846 46.5 53.8337 46.5C53.9827 46.5 54.1316 46.5 54.2803 46.5C54.429 46.5 54.5776 46.5 54.726 46.5C54.8743 46.5 55.0225 46.5 55.1706 46.5C55.3186 46.5 55.4665 46.5 55.6142 46.5C55.7619 46.5 55.9094 46.5 56.0568 46.5C56.2041 46.5 56.3513 46.5 56.4983 46.5C56.6453 46.5 56.7922 46.5 56.9388 46.5C57.0855 46.5 57.232 46.5 57.3783 46.5C57.5247 46.5 57.6708 46.5 57.8168 46.5C57.9628 46.5 58.1086 46.5 58.2543 46.5C58.3999 46.5 58.5454 46.5 58.6907 46.5C58.8361 46.5 58.9812 46.5 59.1262 46.5C59.2711 46.5 59.4159 46.5 59.5606 46.5C59.7052 46.5 59.8497 46.5 59.994 46.5C60.1383 46.5 60.2824 46.5 60.4263 46.5C60.5703 46.5 60.7141 46.5 60.8577 46.5C61.0013 46.5 61.1448 46.5 61.288 46.5C61.4313 46.5 61.5744 46.5 61.7174 46.5C61.8603 46.5 62.0031 46.5 62.1457 46.5C62.2883 46.5 62.4307 46.5 62.573 46.5C62.7152 46.5 62.8573 46.5 62.9992 46.5C63.1412 46.5 63.2829 46.5 63.4245 46.5C63.5661 46.5 63.7075 46.5 63.8488 46.5C63.99 46.5 64.1311 46.5 64.272 46.5C64.4129 46.5 64.5536 46.5 64.6942 46.5C64.8348 46.5 64.9752 46.5 65.1154 46.5C65.2557 46.5 65.3957 46.5 65.5356 46.5C65.6755 46.5 65.8153 46.5 65.9548 46.5C66.0944 46.5 66.2338 46.5 66.373 46.5C66.5122 46.5 66.6513 46.5 66.7902 46.5C66.9291 46.5 67.0678 46.5 67.2063 46.5C67.3449 46.5 67.4833 46.5 67.6215 46.5C67.7597 46.5 67.8977 46.5 68.0356 46.5C68.1735 46.5 68.3112 46.5 68.4487 46.5C68.5863 46.5 68.7237 46.5 68.8609 46.5C68.9981 46.5 69.1351 46.5 69.272 46.5C69.4088 46.5 69.5455 46.5 69.6821 46.5C69.8186 46.5 69.955 46.5 70.0912 46.5C70.2274 46.5 70.3634 46.5 70.4993 46.5C70.6351 46.5 70.7708 46.5 70.9064 46.5C71.0419 46.5 71.1773 46.5 71.3124 46.5C71.4476 46.5 71.5827 46.5 71.7175 46.5C71.8524 46.5 71.9871 46.5 72.1216 46.5C72.2561 46.5 72.3905 46.5 72.5247 46.5C72.6589 46.5 72.7929 46.5 72.9267 46.5C73.0606 46.5 73.1943 46.5 73.3278 46.5C73.4613 46.5 73.5947 46.5 73.7279 46.5C73.8611 46.5 73.9941 46.5 74.1269 46.5C74.2598 46.5 74.3925 46.5 74.525 46.5C74.6575 46.5 74.7899 46.5 74.922 46.5C75.0542 46.5 75.1862 46.5 75.3181 46.5C75.45 46.5 75.5816 46.5 75.7132 46.5C75.8447 46.5 75.976 46.5 76.1072 46.5C76.2384 46.5 76.3694 46.5 76.5003 46.5C76.6311 46.5 76.7618 46.5 76.8923 46.5C77.0229 46.5 77.1532 46.5 77.2834 46.5C77.4136 46.5 77.5436 46.5 77.6735 46.5C77.8033 46.5 77.933 46.5 78.0625 46.5C78.1921 46.5 78.3214 46.5 78.4506 46.5C78.5798 46.5 78.7088 46.5 78.8377 46.5C78.9665 46.5 79.0952 46.5 79.2238 46.5C79.3523 46.5 79.4806 46.5 79.6088 46.5C79.737 46.5 79.8651 46.5 79.9929 46.5C80.1208 46.5 80.2485 46.5 80.376 46.5C80.5036 46.5 80.6309 46.5 80.7581 46.5C80.8853 46.5 81.0124 46.5 81.1392 46.5C81.2661 46.5 81.3928 46.5 81.5194 46.5C81.6459 46.5 81.7723 46.5 81.8985 46.5C82.0247 46.5 82.1507 46.5 82.2766 46.5C82.4025 46.5 82.5282 46.5 82.6538 46.5C82.7793 46.5 82.9047 46.5 83.0299 46.5C83.1551 46.5 83.2802 46.5 83.4051 46.5C83.53 46.5 83.6547 46.5 83.7792 46.5C83.9038 46.5 84.0282 46.5 84.1524 46.5C84.2766 46.5 84.4007 46.5 84.5246 46.5C84.6485 46.5 84.7722 46.5 84.8958 46.5C85.0194 46.5 85.1428 46.5 85.266 46.5C85.3893 46.5 85.5123 46.5 85.6353 46.5C85.7582 46.5 85.8809 46.5 86.0035 46.5C86.1261 46.5 86.2485 46.5 86.3707 46.5C86.493 46.5 86.6151 46.5 86.737 46.5C86.8589 46.5 86.9807 46.5 87.1023 46.5C87.2239 46.5 87.3453 46.5 87.4666 46.5C87.5879 46.5 87.709 46.5 87.8299 46.5C87.9508 46.5 88.0716 46.5 88.1922 46.5C88.3128 46.5 88.4333 46.5 88.5536 46.5C88.6739 46.5 88.794 46.5 88.9139 46.5C89.0339 46.5 89.1537 46.5 89.2733 46.5C89.393 46.5 89.5124 46.5 89.6317 46.5C89.751 46.5 89.8702 46.5 89.9891 46.5C90.1081 46.5 90.2269 46.5 90.3456 46.5C90.4642 46.5 90.5827 46.5 90.701 46.5C90.8193 46.5 90.9375 46.5 91.0555 46.5C91.1735 46.5 91.2913 46.5 91.409 46.5C91.5267 46.5 91.6442 46.5 91.7615 46.5C91.8788 46.5 91.996 46.5 92.113 46.5C92.2301 46.5 92.3469 46.5 92.4636 46.5C92.5803 46.5 92.6968 46.5 92.8132 46.5C92.9295 46.5 93.0457 46.5 93.1618 46.5C93.2778 46.5 93.3937 46.5 93.5094 46.5C93.6251 46.5 93.7407 46.5 93.856 46.5C93.9714 46.5 94.0867 46.5 94.2017 46.5C94.3168 46.5 94.4317 46.5 94.5464 46.5C94.6612 46.5 94.7757 46.5 94.8901 46.5C95.0045 46.5 95.1188 46.5 95.2329 46.5C95.347 46.5 95.4609 46.5 95.5747 46.5C95.6884 46.5 95.802 46.5 95.9155 46.5C96.0289 46.5 96.1422 46.5 96.2553 46.5C96.3684 46.5 96.4813 46.5 96.5941 46.5C96.7069 46.5 96.8196 46.5 96.932 46.5C97.0445 46.5 97.1568 46.5 97.2689 46.5C97.3811 46.5 97.493 46.5 97.6049 46.5C97.7167 46.5 97.8283 46.5 97.9398 46.5C98.0513 46.5 98.1627 46.5 98.2738 46.5C98.385 46.5 98.496 46.5 98.6069 46.5C98.7177 46.5 98.8284 46.5 98.9389 46.5C99.0494 46.5 99.1598 46.5 99.27 46.5C99.3802 46.5 99.4903 46.5 99.6001 46.5C99.71 46.5 99.8197 46.5 99.9293 46.5C100.039 46.5 100.148 46.5 100.257 46.5C100.367 46.5 100.476 46.5 100.585 46.5C100.694 46.5 100.802 46.5 100.911 46.5C101.02 46.5 101.128 46.5 101.236 46.5C101.344 46.5 101.453 46.5 101.561 46.5C101.668 46.5 101.776 46.5 101.884 46.5C101.992 46.5 102.099 46.5 102.206 46.5C102.314 46.5 102.421 46.5 102.528 46.5C102.635 46.5 102.742 46.5 102.848 46.5C102.955 46.5 103.061 46.5 103.168 46.5C103.274 46.5 103.38 46.5 103.486 46.5C103.592 46.5 103.698 46.5 103.804 46.5C103.91 46.5 104.015 46.5 104.12 46.5C104.226 46.5 104.331 46.5 104.436 46.5C104.541 46.5 104.646 46.5 104.751 46.5C104.856 46.5 104.96 46.5 105.065 46.5C105.169 46.5 105.273 46.5 105.377 46.5C105.481 46.5 105.585 46.5 105.689 46.5C105.793 46.5 105.896 46.5 106 46.5C106.103 46.5 106.207 46.5 106.31 46.5C106.413 46.5 106.516 46.5 106.619 46.5C106.722 46.5 106.824 46.5 106.927 46.5C107.029 46.5 107.132 46.5 107.234 46.5C107.336 46.5 107.438 46.5 107.54 46.5C107.642 46.5 107.743 46.5 107.845 46.5C107.947 46.5 108.048 46.5 108.149 46.5C108.25 46.5 108.351 46.5 108.452 46.5C108.553 46.5 108.654 46.5 108.755 46.5C108.855 46.5 108.956 46.5 109.056 46.5C109.156 46.5 109.256 46.5 109.356 46.5C109.456 46.5 109.556 46.5 109.656 46.5C109.755 46.5 109.855 46.5 109.954 46.5C110.053 46.5 110.153 46.5 110.252 46.5C110.351 46.5 110.449 46.5 110.548 46.5C110.647 46.5 110.745 46.5 110.844 46.5C110.942 46.5 111.04 46.5 111.138 46.5C111.236 46.5 111.334 46.5 111.432 46.5C111.53 46.5 111.627 46.5 111.725 46.5C111.822 46.5 111.919 46.5 112.016 46.5C112.114 46.5 112.211 46.5 112.307 46.5C112.404 46.5 112.501 46.5 112.597 46.5C112.694 46.5 112.79 46.5 112.886 46.5C112.982 46.5 113.078 46.5 113.174 46.5C113.27 46.5 113.366 46.5 113.461 46.5C113.557 46.5 113.652 46.5 113.747 46.5C113.842 46.5 113.938 46.5 114.032 46.5C114.127 46.5 114.222 46.5 114.317 46.5C114.411 46.5 114.506 46.5 114.6 46.5C114.694 46.5 114.788 46.5 114.882 46.5C114.976 46.5 115.07 46.5 115.164 46.5C115.257 46.5 115.351 46.5 115.444 46.5C115.537 46.5 115.63 46.5 115.723 46.5C115.816 46.5 115.909 46.5 116.002 46.5C116.095 46.5 116.187 46.5 116.28 46.5C116.372 46.5 116.464 46.5 116.556 46.5C116.648 46.5 116.74 46.5 116.832 46.5C116.924 46.5 117.015 46.5 117.107 46.5C117.198 46.5 117.289 46.5 117.381 46.5C117.472 46.5 117.563 46.5 117.654 46.5C117.744 46.5 117.835 46.5 117.925 46.5C118.016 46.5 118.106 46.5 118.196 46.5C118.287 46.5 118.377 46.5 118.467 46.5C118.556 46.5 118.646 46.5 118.736 46.5C118.825 46.5 118.915 46.5 119.004 46.5C119.093 46.5 119.182 46.5 119.271 46.5C119.36 46.5 119.449 46.5 119.538 46.5C119.626 46.5 119.715 46.5 119.803 46.5C119.891 46.5 119.979 46.5 120.067 46.5C120.155 46.5 120.243 46.5 120.331 46.5C120.419 46.5 120.506 46.5 120.594 46.5C120.681 46.5 120.768 46.5 120.855 46.5C120.942 46.5 121.029 46.5 121.116 46.5C121.203 46.5 121.289 46.5 121.376 46.5C121.462 46.5 121.548 46.5 121.635 46.5C121.721 46.5 121.807 46.5 121.893 46.5C121.978 46.5 122.064 46.5 122.15 46.5C122.235 46.5 122.32 46.5 122.406 46.5C122.491 46.5 122.576 46.5 122.661 46.5C122.746 46.5 122.83 46.5 122.915 46.5C123 46.5 123.084 46.5 123.168 46.5C123.252 46.5 123.337 46.5 123.421 46.5C123.505 46.5 123.588 46.5 123.672 46.5C123.756 46.5 123.839 46.5 123.922 46.5C124.006 46.5 124.089 46.5 124.172 46.5C124.255 46.5 124.338 46.5 124.421 46.5C124.503 46.5 124.586 46.5 124.668 46.5C124.751 46.5 124.833 46.5 124.915 46.5C124.997 46.5 125.079 46.5 125.161 46.5C125.243 46.5 125.324 46.5 125.406 46.5C125.487 46.5 125.569 46.5 125.65 46.5C125.731 46.5 125.812 46.5 125.893 46.5C125.974 46.5 126.055 46.5 126.135 46.5C126.216 46.5 126.296 46.5 126.376 46.5C126.457 46.5 126.537 46.5 126.617 46.5C126.697 46.5 126.777 46.5 126.856 46.5C126.936 46.5 127.015 46.5 127.095 46.5C127.174 46.5 127.253 46.5 127.332 46.5C127.411 46.5 127.49 46.5 127.569 46.5C127.648 46.5 127.726 46.5 127.805 46.5C127.883 46.5 127.961 46.5 128.039 46.5C128.117 46.5 128.195 46.5 128.273 46.5C128.351 46.5 128.429 46.5 128.506 46.5C128.584 46.5 128.661 46.5 128.738 46.5C128.815 46.5 128.892 46.5 128.969 46.5C129.046 46.5 129.123 46.5 129.199 46.5C129.276 46.5 129.352 46.5 129.429 46.5C129.505 46.5 129.581 46.5 129.657 46.5C129.733 46.5 129.809 46.5 129.885 46.5C129.96 46.5 130.036 46.5 130.111 46.5C130.186 46.5 130.262 46.5 130.337 46.5C130.412 46.5 130.487 46.5 130.561 46.5C130.636 46.5 130.711 46.5 130.785 46.5C130.86 46.5 130.934 46.5 131.008 46.5C131.082 46.5 131.156 46.5 131.23 46.5C131.304 46.5 131.378 46.5 131.451 46.5C131.525 46.5 131.598 46.5 131.671 46.5C131.744 46.5 131.818 46.5 131.89 46.5C131.963 46.5 132.036 46.5 132.109 46.5C132.181 46.5 132.254 46.5 132.326 46.5C132.398 46.5 132.471 46.5 132.543 46.5C132.615 46.5 132.687 46.5 132.758 46.5C132.83 46.5 132.901 46.5 132.973 46.5C133.044 46.5 133.116 46.5 133.187 46.5C133.258 46.5 133.329 46.5 133.4 46.5C133.47 46.5 133.541 46.5 133.611 46.5C133.682 46.5 133.752 46.5 133.823 46.5C133.893 46.5 133.963 46.5 134.033 46.5C134.103 46.5 134.172 46.5 134.242 46.5C134.311 46.5 134.381 46.5 134.45 46.5C134.519 46.5 134.589 46.5 134.658 46.5C134.727 46.5 134.795 46.5 134.864 46.5C134.933 46.5 135.001 46.5 135.07 46.5C135.138 46.5 135.206 46.5 135.274 46.5C135.342 46.5 135.41 46.5 135.478 46.5C135.546 46.5 135.614 46.5 135.681 46.5C135.749 46.5 135.816 46.5 135.883 46.5C135.95 46.5 136.017 46.5 136.084 46.5C136.151 46.5 136.218 46.5 136.284 46.5C136.351 46.5 136.417 46.5 136.484 46.5C136.55 46.5 136.616 46.5 136.682 46.5C136.748 46.5 136.814 46.5 136.88 46.5C136.945 46.5 137.011 46.5 137.076 46.5C137.141 46.5 137.207 46.5 137.272 46.5C137.337 46.5 137.402 46.5 137.467 46.5C137.531 46.5 137.596 46.5 137.66 46.5C137.725 46.5 137.789 46.5 137.853 46.5C137.918 46.5 137.982 46.5 138.046 46.5C138.109 46.5 138.173 46.5 138.237 46.5C138.3 46.5 138.364 46.5 138.427 46.5C138.49 46.5 138.553 46.5 138.616 46.5C138.679 46.5 138.742 46.5 138.805 46.5C138.868 46.5 138.93 46.5 138.993 46.5C139.055 46.5 139.117 46.5 139.179 46.5C139.241 46.5 139.303 46.5 139.365 46.5C139.427 46.5 139.489 46.5 139.55 46.5C139.612 46.5 139.673 46.5 139.734 46.5C139.795 46.5 139.856 46.5 139.917 46.5C139.978 46.5 140.039 46.5 140.099 46.5C140.16 46.5 140.221 46.5 140.281 46.5C140.341 46.5 140.401 46.5 140.461 46.5C140.521 46.5 140.581 46.5 140.641 46.5C140.701 46.5 140.76 46.5 140.82 46.5C140.879 46.5 140.938 46.5 140.997 46.5C141.056 46.5 141.115 46.5 141.174 46.5C141.233 46.5 141.292 46.5 141.35 46.5C141.409 46.5 141.467 46.5 141.525 46.5C141.584 46.5 141.642 46.5 141.7 46.5C141.758 46.5 141.815 46.5 141.873 46.5C141.931 46.5 141.988 46.5 142.045 46.5C142.103 46.5 142.16 46.5 142.217 46.5C142.274 46.5 142.331 46.5 142.388 46.5C142.445 46.5 142.501 46.5 142.558 46.5C142.614 46.5 142.67 46.5 142.727 46.5C142.783 46.5 142.839 46.5 142.895 46.5C142.95 46.5 143.006 46.5 143.062 46.5C143.117 46.5 143.173 46.5 143.228 46.5C143.283 46.5 143.338 46.5 143.393 46.5C143.448 46.5 143.503 46.5 143.558 46.5C143.613 46.5 143.667 46.5 143.722 46.5C143.776 46.5 143.83 46.5 143.884 46.5C143.938 46.5 143.992 46.5 144.046 46.5C144.1 46.5 144.154 46.5 144.207 46.5C144.261 46.5 144.314 46.5 144.367 46.5C144.42 46.5 144.474 46.5 144.526 46.5C144.579 46.5 144.632 46.5 144.685 46.5C144.737 46.5 144.79 46.5 144.842 46.5C144.895 46.5 144.947 46.5 144.999 46.5C145.051 46.5 145.103 46.5 145.155 46.5C145.206 46.5 145.258 46.5 145.309 46.5C145.361 46.5 145.412 46.5 145.463 46.5C145.515 46.5 145.566 46.5 145.616 46.5C145.667 46.5 145.718 46.5 145.769 46.5C145.819 46.5 145.87 46.5 145.92 46.5C145.97 46.5 146.02 46.5 146.07 46.5C146.12 46.5 146.17 46.5 146.22 46.5C146.27 46.5 146.319 46.5 146.369 46.5C146.418 46.5 146.467 46.5 146.517 46.5C146.566 46.5 146.615 46.5 146.663 46.5C146.712 46.5 146.761 46.5 146.81 46.5C146.858 46.5 146.907 46.5 146.955 46.5C147.003 46.5 147.051 46.5 147.099 46.5C147.147 46.5 147.195 46.5 147.243 46.5C147.29 46.5 147.338 46.5 147.385 46.5C147.433 46.5 147.48 46.5 147.527 46.5C147.574 46.5 147.621 46.5 147.668 46.5C147.715 46.5 147.761 46.5 147.808 46.5C147.854 46.5 147.901 46.5 147.947 46.5C147.993 46.5 148.039 46.5 148.085 46.5C148.131 46.5 148.177 46.5 148.223 46.5C148.268 46.5 148.314 46.5 148.359 46.5C148.404 46.5 148.45 46.5 148.495 46.5C148.54 46.5 148.585 46.5 148.63 46.5C148.674 46.5 148.719 46.5 148.763 46.5C148.808 46.5 148.852 46.5 148.896 46.5C148.941 46.5 148.985 46.5 149.029 46.5C149.073 46.5 149.116 46.5 149.16 46.5C149.204 46.5 149.247 46.5 149.29 46.5C149.334 46.5 149.377 46.5 149.42 46.5C149.463 46.5 149.506 46.5 149.549 46.5C149.592 46.5 149.634 46.5 149.677 46.5C149.719 46.5 149.762 46.5 149.804 46.5C149.846 46.5 149.888 46.5 149.93 46.5C149.972 46.5 150.014 46.5 150.055 46.5C150.097 46.5 150.138 46.5 150.18 46.5C150.221 46.5 150.262 46.5 150.303 46.5C150.344 46.5 150.385 46.5 150.426 46.5C150.467 46.5 150.507 46.5 150.548 46.5C150.588 46.5 150.629 46.5 150.669 46.5C150.709 46.5 150.749 46.5 150.789 46.5C150.829 46.5 150.868 46.5 150.908 46.5C150.948 46.5 150.987 46.5 151.027 46.5C151.066 46.5 151.105 46.5 151.144 46.5C151.183 46.5 151.222 46.5 151.261 46.5C151.3 46.5 151.338 46.5 151.377 46.5C151.415 46.5 151.453 46.5 151.492 46.5C151.53 46.5 151.568 46.5 151.606 46.5C151.644 46.5 151.681 46.5 151.719 46.5C151.757 46.5 151.794 46.5 151.831 46.5C151.869 46.5 151.906 46.5 151.943 46.5C151.98 46.5 152.017 46.5 152.054 46.5C152.091 46.5 152.127 46.5 152.164 46.5C152.2 46.5 152.236 46.5 152.273 46.5C152.309 46.5 152.345 46.5 152.381 46.5C152.417 46.5 152.453 46.5 152.488 46.5C152.524 46.5 152.559 46.5 152.595 46.5C152.63 46.5 152.665 46.5 152.7 46.5C152.735 46.5 152.77 46.5 152.805 46.5C152.84 46.5 152.874 46.5 152.909 46.5C152.943 46.5 152.978 46.5 153.012 46.5C153.046 46.5 153.08 46.5 153.114 46.5C153.148 46.5 153.182 46.5 153.216 46.5C153.249 46.5 153.283 46.5 153.316 46.5C153.35 46.5 153.383 46.5 153.416 46.5C153.449 46.5 153.482 46.5 153.515 46.5C153.547 46.5 153.58 46.5 153.613 46.5C153.645 46.5 153.678 46.5 153.71 46.5C153.742 46.5 153.774 46.5 153.806 46.5C153.838 46.5 153.87 46.5 153.902 46.5C153.933 46.5 153.965 46.5 153.996 46.5C154.028 46.5 154.059 46.5 154.09 46.5C154.121 46.5 154.152 46.5 154.183 46.5C154.214 46.5 154.244 46.5 154.275 46.5C154.306 46.5 154.336 46.5 154.366 46.5C154.396 46.5 154.427 46.5 154.457 46.5C154.487 46.5 154.516 46.5 154.546 46.5C154.576 46.5 154.605 46.5 154.635 46.5C154.664 46.5 154.694 46.5 154.723 46.5C154.752 46.5 154.781 46.5 154.81 46.5C154.839 46.5 154.867 46.5 154.896 46.5C154.925 46.5 154.953 46.5 154.981 46.5C155.01 46.5 155.038 46.5 155.066 46.5C155.094 46.5 155.122 46.5 155.15 46.5C155.177 46.5 155.205 46.5 155.232 46.5C155.26 46.5 155.287 46.5 155.314 46.5C155.342 46.5 155.369 46.5 155.396 46.5C155.423 46.5 155.449 46.5 155.476 46.5C155.503 46.5 155.529 46.5 155.555 46.5C155.582 46.5 155.608 46.5 155.634 46.5C155.66 46.5 155.686 46.5 155.712 46.5C155.738 46.5 155.763 46.5 155.789 46.5C155.814 46.5 155.84 46.5 155.865 46.5C155.89 46.5 155.916 46.5 155.94 46.5C155.965 46.5 155.99 46.5 156.015 46.5C156.04 46.5 156.064 46.5 156.089 46.5C156.113 46.5 156.137 46.5 156.161 46.5C156.186 46.5 156.21 46.5 156.234 46.5C156.257 46.5 156.281 46.5 156.305 46.5C156.328 46.5 156.352 46.5 156.375 46.5C156.398 46.5 156.422 46.5 156.445 46.5C156.468 46.5 156.49 46.5 156.513 46.5C156.536 46.5 156.559 46.5 156.581 46.5C156.604 46.5 156.626 46.5 156.648 46.5C156.67 46.5 156.692 46.5 156.714 46.5C156.736 46.5 156.758 46.5 156.78 46.5C156.801 46.5 156.823 46.5 156.844 46.5C156.866 46.5 156.887 46.5 156.908 46.5C156.929 46.5 156.95 46.5 156.971 46.5C156.992 46.5 157.012 46.5 157.033 46.5C157.054 46.5 157.074 46.5 157.094 46.5C157.115 46.5 157.135 46.5 157.155 46.5C157.175 46.5 157.195 46.5 157.214 46.5C157.234 46.5 157.254 46.5 157.273 46.5C157.293 46.5 157.312 46.5 157.331 46.5C157.35 46.5 157.369 46.5 157.388 46.5C157.407 46.5 157.426 46.5 157.445 46.5C157.463 46.5 157.482 46.5 157.5 46.5V43.5C157.482 43.5 157.463 43.5 157.445 43.5C157.426 43.5 157.407 43.5 157.388 43.5C157.369 43.5 157.35 43.5 157.331 43.5C157.312 43.5 157.293 43.5 157.273 43.5C157.254 43.5 157.234 43.5 157.214 43.5C157.195 43.5 157.175 43.5 157.155 43.5C157.135 43.5 157.115 43.5 157.094 43.5C157.074 43.5 157.054 43.5 157.033 43.5C157.012 43.5 156.992 43.5 156.971 43.5C156.95 43.5 156.929 43.5 156.908 43.5C156.887 43.5 156.866 43.5 156.844 43.5C156.823 43.5 156.801 43.5 156.78 43.5C156.758 43.5 156.736 43.5 156.714 43.5C156.692 43.5 156.67 43.5 156.648 43.5C156.626 43.5 156.604 43.5 156.581 43.5C156.559 43.5 156.536 43.5 156.513 43.5C156.49 43.5 156.468 43.5 156.445 43.5C156.422 43.5 156.398 43.5 156.375 43.5C156.352 43.5 156.328 43.5 156.305 43.5C156.281 43.5 156.257 43.5 156.234 43.5C156.21 43.5 156.186 43.5 156.161 43.5C156.137 43.5 156.113 43.5 156.089 43.5C156.064 43.5 156.04 43.5 156.015 43.5C155.99 43.5 155.965 43.5 155.94 43.5C155.916 43.5 155.89 43.5 155.865 43.5C155.84 43.5 155.814 43.5 155.789 43.5C155.763 43.5 155.738 43.5 155.712 43.5C155.686 43.5 155.66 43.5 155.634 43.5C155.608 43.5 155.582 43.5 155.555 43.5C155.529 43.5 155.503 43.5 155.476 43.5C155.449 43.5 155.423 43.5 155.396 43.5C155.369 43.5 155.342 43.5 155.314 43.5C155.287 43.5 155.26 43.5 155.232 43.5C155.205 43.5 155.177 43.5 155.15 43.5C155.122 43.5 155.094 43.5 155.066 43.5C155.038 43.5 155.01 43.5 154.981 43.5C154.953 43.5 154.925 43.5 154.896 43.5C154.867 43.5 154.839 43.5 154.81 43.5C154.781 43.5 154.752 43.5 154.723 43.5C154.694 43.5 154.664 43.5 154.635 43.5C154.605 43.5 154.576 43.5 154.546 43.5C154.516 43.5 154.487 43.5 154.457 43.5C154.427 43.5 154.396 43.5 154.366 43.5C154.336 43.5 154.306 43.5 154.275 43.5C154.244 43.5 154.214 43.5 154.183 43.5C154.152 43.5 154.121 43.5 154.09 43.5C154.059 43.5 154.028 43.5 153.996 43.5C153.965 43.5 153.933 43.5 153.902 43.5C153.87 43.5 153.838 43.5 153.806 43.5C153.774 43.5 153.742 43.5 153.71 43.5C153.678 43.5 153.645 43.5 153.613 43.5C153.58 43.5 153.547 43.5 153.515 43.5C153.482 43.5 153.449 43.5 153.416 43.5C153.383 43.5 153.35 43.5 153.316 43.5C153.283 43.5 153.249 43.5 153.216 43.5C153.182 43.5 153.148 43.5 153.114 43.5C153.08 43.5 153.046 43.5 153.012 43.5C152.978 43.5 152.943 43.5 152.909 43.5C152.874 43.5 152.84 43.5 152.805 43.5C152.77 43.5 152.735 43.5 152.7 43.5C152.665 43.5 152.63 43.5 152.595 43.5C152.559 43.5 152.524 43.5 152.488 43.5C152.453 43.5 152.417 43.5 152.381 43.5C152.345 43.5 152.309 43.5 152.273 43.5C152.236 43.5 152.2 43.5 152.164 43.5C152.127 43.5 152.091 43.5 152.054 43.5C152.017 43.5 151.98 43.5 151.943 43.5C151.906 43.5 151.869 43.5 151.831 43.5C151.794 43.5 151.757 43.5 151.719 43.5C151.681 43.5 151.644 43.5 151.606 43.5C151.568 43.5 151.53 43.5 151.492 43.5C151.453 43.5 151.415 43.5 151.377 43.5C151.338 43.5 151.3 43.5 151.261 43.5C151.222 43.5 151.183 43.5 151.144 43.5C151.105 43.5 151.066 43.5 151.027 43.5C150.987 43.5 150.948 43.5 150.908 43.5C150.868 43.5 150.829 43.5 150.789 43.5C150.749 43.5 150.709 43.5 150.669 43.5C150.629 43.5 150.588 43.5 150.548 43.5C150.507 43.5 150.467 43.5 150.426 43.5C150.385 43.5 150.344 43.5 150.303 43.5C150.262 43.5 150.221 43.5 150.18 43.5C150.138 43.5 150.097 43.5 150.055 43.5C150.014 43.5 149.972 43.5 149.93 43.5C149.888 43.5 149.846 43.5 149.804 43.5C149.762 43.5 149.719 43.5 149.677 43.5C149.634 43.5 149.592 43.5 149.549 43.5C149.506 43.5 149.463 43.5 149.42 43.5C149.377 43.5 149.334 43.5 149.29 43.5C149.247 43.5 149.204 43.5 149.16 43.5C149.116 43.5 149.073 43.5 149.029 43.5C148.985 43.5 148.941 43.5 148.896 43.5C148.852 43.5 148.808 43.5 148.763 43.5C148.719 43.5 148.674 43.5 148.63 43.5C148.585 43.5 148.54 43.5 148.495 43.5C148.45 43.5 148.404 43.5 148.359 43.5C148.314 43.5 148.268 43.5 148.223 43.5C148.177 43.5 148.131 43.5 148.085 43.5C148.039 43.5 147.993 43.5 147.947 43.5C147.901 43.5 147.854 43.5 147.808 43.5C147.761 43.5 147.715 43.5 147.668 43.5C147.621 43.5 147.574 43.5 147.527 43.5C147.48 43.5 147.433 43.5 147.385 43.5C147.338 43.5 147.29 43.5 147.243 43.5C147.195 43.5 147.147 43.5 147.099 43.5C147.051 43.5 147.003 43.5 146.955 43.5C146.907 43.5 146.858 43.5 146.81 43.5C146.761 43.5 146.712 43.5 146.663 43.5C146.615 43.5 146.566 43.5 146.517 43.5C146.467 43.5 146.418 43.5 146.369 43.5C146.319 43.5 146.27 43.5 146.22 43.5C146.17 43.5 146.12 43.5 146.07 43.5C146.02 43.5 145.97 43.5 145.92 43.5C145.87 43.5 145.819 43.5 145.769 43.5C145.718 43.5 145.667 43.5 145.616 43.5C145.566 43.5 145.515 43.5 145.463 43.5C145.412 43.5 145.361 43.5 145.309 43.5C145.258 43.5 145.206 43.5 145.155 43.5C145.103 43.5 145.051 43.5 144.999 43.5C144.947 43.5 144.895 43.5 144.842 43.5C144.79 43.5 144.737 43.5 144.685 43.5C144.632 43.5 144.579 43.5 144.526 43.5C144.474 43.5 144.42 43.5 144.367 43.5C144.314 43.5 144.261 43.5 144.207 43.5C144.154 43.5 144.1 43.5 144.046 43.5C143.992 43.5 143.938 43.5 143.884 43.5C143.83 43.5 143.776 43.5 143.722 43.5C143.667 43.5 143.613 43.5 143.558 43.5C143.503 43.5 143.448 43.5 143.393 43.5C143.338 43.5 143.283 43.5 143.228 43.5C143.173 43.5 143.117 43.5 143.062 43.5C143.006 43.5 142.95 43.5 142.895 43.5C142.839 43.5 142.783 43.5 142.727 43.5C142.67 43.5 142.614 43.5 142.558 43.5C142.501 43.5 142.445 43.5 142.388 43.5C142.331 43.5 142.274 43.5 142.217 43.5C142.16 43.5 142.103 43.5 142.045 43.5C141.988 43.5 141.931 43.5 141.873 43.5C141.815 43.5 141.758 43.5 141.7 43.5C141.642 43.5 141.584 43.5 141.525 43.5C141.467 43.5 141.409 43.5 141.35 43.5C141.292 43.5 141.233 43.5 141.174 43.5C141.115 43.5 141.056 43.5 140.997 43.5C140.938 43.5 140.879 43.5 140.82 43.5C140.76 43.5 140.701 43.5 140.641 43.5C140.581 43.5 140.521 43.5 140.461 43.5C140.401 43.5 140.341 43.5 140.281 43.5C140.221 43.5 140.16 43.5 140.099 43.5C140.039 43.5 139.978 43.5 139.917 43.5C139.856 43.5 139.795 43.5 139.734 43.5C139.673 43.5 139.612 43.5 139.55 43.5C139.489 43.5 139.427 43.5 139.365 43.5C139.303 43.5 139.241 43.5 139.179 43.5C139.117 43.5 139.055 43.5 138.993 43.5C138.93 43.5 138.868 43.5 138.805 43.5C138.742 43.5 138.679 43.5 138.616 43.5C138.553 43.5 138.49 43.5 138.427 43.5C138.364 43.5 138.3 43.5 138.237 43.5C138.173 43.5 138.109 43.5 138.046 43.5C137.982 43.5 137.918 43.5 137.853 43.5C137.789 43.5 137.725 43.5 137.66 43.5C137.596 43.5 137.531 43.5 137.467 43.5C137.402 43.5 137.337 43.5 137.272 43.5C137.207 43.5 137.141 43.5 137.076 43.5C137.011 43.5 136.945 43.5 136.88 43.5C136.814 43.5 136.748 43.5 136.682 43.5C136.616 43.5 136.55 43.5 136.484 43.5C136.417 43.5 136.351 43.5 136.284 43.5C136.218 43.5 136.151 43.5 136.084 43.5C136.017 43.5 135.95 43.5 135.883 43.5C135.816 43.5 135.749 43.5 135.681 43.5C135.614 43.5 135.546 43.5 135.478 43.5C135.41 43.5 135.342 43.5 135.274 43.5C135.206 43.5 135.138 43.5 135.07 43.5C135.001 43.5 134.933 43.5 134.864 43.5C134.795 43.5 134.727 43.5 134.658 43.5C134.589 43.5 134.519 43.5 134.45 43.5C134.381 43.5 134.311 43.5 134.242 43.5C134.172 43.5 134.103 43.5 134.033 43.5C133.963 43.5 133.893 43.5 133.823 43.5C133.752 43.5 133.682 43.5 133.611 43.5C133.541 43.5 133.47 43.5 133.4 43.5C133.329 43.5 133.258 43.5 133.187 43.5C133.116 43.5 133.044 43.5 132.973 43.5C132.901 43.5 132.83 43.5 132.758 43.5C132.687 43.5 132.615 43.5 132.543 43.5C132.471 43.5 132.398 43.5 132.326 43.5C132.254 43.5 132.181 43.5 132.109 43.5C132.036 43.5 131.963 43.5 131.89 43.5C131.818 43.5 131.744 43.5 131.671 43.5C131.598 43.5 131.525 43.5 131.451 43.5C131.378 43.5 131.304 43.5 131.23 43.5C131.156 43.5 131.082 43.5 131.008 43.5C130.934 43.5 130.86 43.5 130.785 43.5C130.711 43.5 130.636 43.5 130.561 43.5C130.487 43.5 130.412 43.5 130.337 43.5C130.262 43.5 130.186 43.5 130.111 43.5C130.036 43.5 129.96 43.5 129.885 43.5C129.809 43.5 129.733 43.5 129.657 43.5C129.581 43.5 129.505 43.5 129.429 43.5C129.352 43.5 129.276 43.5 129.199 43.5C129.123 43.5 129.046 43.5 128.969 43.5C128.892 43.5 128.815 43.5 128.738 43.5C128.661 43.5 128.584 43.5 128.506 43.5C128.429 43.5 128.351 43.5 128.273 43.5C128.195 43.5 128.117 43.5 128.039 43.5C127.961 43.5 127.883 43.5 127.805 43.5C127.726 43.5 127.648 43.5 127.569 43.5C127.49 43.5 127.411 43.5 127.332 43.5C127.253 43.5 127.174 43.5 127.095 43.5C127.015 43.5 126.936 43.5 126.856 43.5C126.777 43.5 126.697 43.5 126.617 43.5C126.537 43.5 126.457 43.5 126.376 43.5C126.296 43.5 126.216 43.5 126.135 43.5C126.055 43.5 125.974 43.5 125.893 43.5C125.812 43.5 125.731 43.5 125.65 43.5C125.569 43.5 125.487 43.5 125.406 43.5C125.324 43.5 125.243 43.5 125.161 43.5C125.079 43.5 124.997 43.5 124.915 43.5C124.833 43.5 124.751 43.5 124.668 43.5C124.586 43.5 124.503 43.5 124.421 43.5C124.338 43.5 124.255 43.5 124.172 43.5C124.089 43.5 124.006 43.5 123.922 43.5C123.839 43.5 123.756 43.5 123.672 43.5C123.588 43.5 123.505 43.5 123.421 43.5C123.337 43.5 123.252 43.5 123.168 43.5C123.084 43.5 123 43.5 122.915 43.5C122.83 43.5 122.746 43.5 122.661 43.5C122.576 43.5 122.491 43.5 122.406 43.5C122.32 43.5 122.235 43.5 122.15 43.5C122.064 43.5 121.978 43.5 121.893 43.5C121.807 43.5 121.721 43.5 121.635 43.5C121.548 43.5 121.462 43.5 121.376 43.5C121.289 43.5 121.203 43.5 121.116 43.5C121.029 43.5 120.942 43.5 120.855 43.5C120.768 43.5 120.681 43.5 120.594 43.5C120.506 43.5 120.419 43.5 120.331 43.5C120.243 43.5 120.155 43.5 120.067 43.5C119.979 43.5 119.891 43.5 119.803 43.5C119.715 43.5 119.626 43.5 119.538 43.5C119.449 43.5 119.36 43.5 119.271 43.5C119.182 43.5 119.093 43.5 119.004 43.5C118.915 43.5 118.825 43.5 118.736 43.5C118.646 43.5 118.556 43.5 118.467 43.5C118.377 43.5 118.287 43.5 118.196 43.5C118.106 43.5 118.016 43.5 117.925 43.5C117.835 43.5 117.744 43.5 117.654 43.5C117.563 43.5 117.472 43.5 117.381 43.5C117.289 43.5 117.198 43.5 117.107 43.5C117.015 43.5 116.924 43.5 116.832 43.5C116.74 43.5 116.648 43.5 116.556 43.5C116.464 43.5 116.372 43.5 116.28 43.5C116.187 43.5 116.095 43.5 116.002 43.5C115.909 43.5 115.816 43.5 115.723 43.5C115.63 43.5 115.537 43.5 115.444 43.5C115.351 43.5 115.257 43.5 115.164 43.5C115.07 43.5 114.976 43.5 114.882 43.5C114.788 43.5 114.694 43.5 114.6 43.5C114.506 43.5 114.411 43.5 114.317 43.5C114.222 43.5 114.127 43.5 114.032 43.5C113.938 43.5 113.842 43.5 113.747 43.5C113.652 43.5 113.557 43.5 113.461 43.5C113.366 43.5 113.27 43.5 113.174 43.5C113.078 43.5 112.982 43.5 112.886 43.5C112.79 43.5 112.694 43.5 112.597 43.5C112.501 43.5 112.404 43.5 112.307 43.5C112.211 43.5 112.114 43.5 112.016 43.5C111.919 43.5 111.822 43.5 111.725 43.5C111.627 43.5 111.53 43.5 111.432 43.5C111.334 43.5 111.236 43.5 111.138 43.5C111.04 43.5 110.942 43.5 110.844 43.5C110.745 43.5 110.647 43.5 110.548 43.5C110.449 43.5 110.351 43.5 110.252 43.5C110.153 43.5 110.053 43.5 109.954 43.5C109.855 43.5 109.755 43.5 109.656 43.5C109.556 43.5 109.456 43.5 109.356 43.5C109.256 43.5 109.156 43.5 109.056 43.5C108.956 43.5 108.855 43.5 108.755 43.5C108.654 43.5 108.553 43.5 108.452 43.5C108.351 43.5 108.25 43.5 108.149 43.5C108.048 43.5 107.947 43.5 107.845 43.5C107.743 43.5 107.642 43.5 107.54 43.5C107.438 43.5 107.336 43.5 107.234 43.5C107.132 43.5 107.029 43.5 106.927 43.5C106.824 43.5 106.722 43.5 106.619 43.5C106.516 43.5 106.413 43.5 106.31 43.5C106.207 43.5 106.103 43.5 106 43.5C105.896 43.5 105.793 43.5 105.689 43.5C105.585 43.5 105.481 43.5 105.377 43.5C105.273 43.5 105.169 43.5 105.065 43.5C104.96 43.5 104.856 43.5 104.751 43.5C104.646 43.5 104.541 43.5 104.436 43.5C104.331 43.5 104.226 43.5 104.12 43.5C104.015 43.5 103.91 43.5 103.804 43.5C103.698 43.5 103.592 43.5 103.486 43.5C103.38 43.5 103.274 43.5 103.168 43.5C103.061 43.5 102.955 43.5 102.848 43.5C102.742 43.5 102.635 43.5 102.528 43.5C102.421 43.5 102.314 43.5 102.206 43.5C102.099 43.5 101.992 43.5 101.884 43.5C101.776 43.5 101.668 43.5 101.561 43.5C101.453 43.5 101.344 43.5 101.236 43.5C101.128 43.5 101.02 43.5 100.911 43.5C100.802 43.5 100.694 43.5 100.585 43.5C100.476 43.5 100.367 43.5 100.257 43.5C100.148 43.5 100.039 43.5 99.9293 43.5C99.8197 43.5 99.71 43.5 99.6001 43.5C99.4903 43.5 99.3802 43.5 99.27 43.5C99.1598 43.5 99.0494 43.5 98.9389 43.5C98.8284 43.5 98.7177 43.5 98.6069 43.5C98.496 43.5 98.385 43.5 98.2738 43.5C98.1627 43.5 98.0513 43.5 97.9398 43.5C97.8283 43.5 97.7167 43.5 97.6049 43.5C97.493 43.5 97.3811 43.5 97.2689 43.5C97.1568 43.5 97.0445 43.5 96.932 43.5C96.8196 43.5 96.7069 43.5 96.5941 43.5C96.4813 43.5 96.3684 43.5 96.2553 43.5C96.1422 43.5 96.0289 43.5 95.9155 43.5C95.802 43.5 95.6884 43.5 95.5747 43.5C95.4609 43.5 95.347 43.5 95.2329 43.5C95.1188 43.5 95.0045 43.5 94.8901 43.5C94.7757 43.5 94.6612 43.5 94.5464 43.5C94.4317 43.5 94.3168 43.5 94.2017 43.5C94.0867 43.5 93.9714 43.5 93.856 43.5C93.7407 43.5 93.6251 43.5 93.5094 43.5C93.3937 43.5 93.2778 43.5 93.1618 43.5C93.0457 43.5 92.9295 43.5 92.8132 43.5C92.6968 43.5 92.5803 43.5 92.4636 43.5C92.3469 43.5 92.2301 43.5 92.113 43.5C91.996 43.5 91.8788 43.5 91.7615 43.5C91.6442 43.5 91.5267 43.5 91.409 43.5C91.2913 43.5 91.1735 43.5 91.0555 43.5C90.9375 43.5 90.8193 43.5 90.701 43.5C90.5827 43.5 90.4642 43.5 90.3456 43.5C90.2269 43.5 90.1081 43.5 89.9891 43.5C89.8702 43.5 89.751 43.5 89.6317 43.5C89.5124 43.5 89.393 43.5 89.2733 43.5C89.1537 43.5 89.0339 43.5 88.9139 43.5C88.794 43.5 88.6739 43.5 88.5536 43.5C88.4333 43.5 88.3128 43.5 88.1922 43.5C88.0716 43.5 87.9508 43.5 87.8299 43.5C87.709 43.5 87.5879 43.5 87.4666 43.5C87.3453 43.5 87.2239 43.5 87.1023 43.5C86.9807 43.5 86.8589 43.5 86.737 43.5C86.6151 43.5 86.493 43.5 86.3707 43.5C86.2485 43.5 86.1261 43.5 86.0035 43.5C85.8809 43.5 85.7582 43.5 85.6353 43.5C85.5123 43.5 85.3893 43.5 85.266 43.5C85.1428 43.5 85.0194 43.5 84.8958 43.5C84.7722 43.5 84.6485 43.5 84.5246 43.5C84.4007 43.5 84.2766 43.5 84.1524 43.5C84.0282 43.5 83.9038 43.5 83.7792 43.5C83.6547 43.5 83.53 43.5 83.4051 43.5C83.2802 43.5 83.1551 43.5 83.0299 43.5C82.9047 43.5 82.7793 43.5 82.6538 43.5C82.5282 43.5 82.4025 43.5 82.2766 43.5C82.1507 43.5 82.0247 43.5 81.8985 43.5C81.7723 43.5 81.6459 43.5 81.5194 43.5C81.3928 43.5 81.2661 43.5 81.1392 43.5C81.0124 43.5 80.8853 43.5 80.7581 43.5C80.6309 43.5 80.5036 43.5 80.376 43.5C80.2485 43.5 80.1208 43.5 79.9929 43.5C79.8651 43.5 79.737 43.5 79.6088 43.5C79.4806 43.5 79.3523 43.5 79.2238 43.5C79.0952 43.5 78.9665 43.5 78.8377 43.5C78.7088 43.5 78.5798 43.5 78.4506 43.5C78.3214 43.5 78.1921 43.5 78.0625 43.5C77.933 43.5 77.8033 43.5 77.6735 43.5C77.5436 43.5 77.4136 43.5 77.2834 43.5C77.1532 43.5 77.0229 43.5 76.8923 43.5C76.7618 43.5 76.6311 43.5 76.5003 43.5C76.3694 43.5 76.2384 43.5 76.1072 43.5C75.976 43.5 75.8447 43.5 75.7132 43.5C75.5816 43.5 75.45 43.5 75.3181 43.5C75.1862 43.5 75.0542 43.5 74.922 43.5C74.7899 43.5 74.6575 43.5 74.525 43.5C74.3925 43.5 74.2598 43.5 74.1269 43.5C73.9941 43.5 73.8611 43.5 73.7279 43.5C73.5947 43.5 73.4613 43.5 73.3278 43.5C73.1943 43.5 73.0606 43.5 72.9267 43.5C72.7929 43.5 72.6589 43.5 72.5247 43.5C72.3905 43.5 72.2561 43.5 72.1216 43.5C71.9871 43.5 71.8524 43.5 71.7175 43.5C71.5827 43.5 71.4476 43.5 71.3124 43.5C71.1773 43.5 71.0419 43.5 70.9064 43.5C70.7708 43.5 70.6351 43.5 70.4993 43.5C70.3634 43.5 70.2274 43.5 70.0912 43.5C69.955 43.5 69.8186 43.5 69.6821 43.5C69.5455 43.5 69.4088 43.5 69.272 43.5C69.1351 43.5 68.9981 43.5 68.8609 43.5C68.7237 43.5 68.5863 43.5 68.4487 43.5C68.3112 43.5 68.1735 43.5 68.0356 43.5C67.8977 43.5 67.7597 43.5 67.6215 43.5C67.4833 43.5 67.3449 43.5 67.2063 43.5C67.0678 43.5 66.9291 43.5 66.7902 43.5C66.6513 43.5 66.5122 43.5 66.373 43.5C66.2338 43.5 66.0944 43.5 65.9548 43.5C65.8153 43.5 65.6755 43.5 65.5356 43.5C65.3957 43.5 65.2557 43.5 65.1154 43.5C64.9752 43.5 64.8348 43.5 64.6942 43.5C64.5536 43.5 64.4129 43.5 64.272 43.5C64.1311 43.5 63.99 43.5 63.8488 43.5C63.7075 43.5 63.5661 43.5 63.4245 43.5C63.2829 43.5 63.1412 43.5 62.9992 43.5C62.8573 43.5 62.7152 43.5 62.573 43.5C62.4307 43.5 62.2883 43.5 62.1457 43.5C62.0031 43.5 61.8603 43.5 61.7174 43.5C61.5744 43.5 61.4313 43.5 61.288 43.5C61.1448 43.5 61.0013 43.5 60.8577 43.5C60.7141 43.5 60.5703 43.5 60.4263 43.5C60.2824 43.5 60.1383 43.5 59.994 43.5C59.8497 43.5 59.7052 43.5 59.5606 43.5C59.4159 43.5 59.2711 43.5 59.1262 43.5C58.9812 43.5 58.8361 43.5 58.6907 43.5C58.5454 43.5 58.3999 43.5 58.2543 43.5C58.1086 43.5 57.9628 43.5 57.8168 43.5C57.6708 43.5 57.5247 43.5 57.3783 43.5C57.232 43.5 57.0855 43.5 56.9388 43.5C56.7922 43.5 56.6453 43.5 56.4983 43.5C56.3513 43.5 56.2041 43.5 56.0568 43.5C55.9094 43.5 55.7619 43.5 55.6142 43.5C55.4665 43.5 55.3186 43.5 55.1706 43.5C55.0225 43.5 54.8743 43.5 54.726 43.5C54.5776 43.5 54.429 43.5 54.2803 43.5C54.1316 43.5 53.9827 43.5 53.8337 43.5C53.6846 43.5 53.5354 43.5 53.386 43.5C53.2366 43.5 53.087 43.5 52.9373 43.5C52.7875 43.5 52.6376 43.5 52.4875 43.5C52.3374 43.5 52.1872 43.5 52.0368 43.5C51.8863 43.5 51.7357 43.5 51.585 43.5C51.4342 43.5 51.2833 43.5 51.1321 43.5C50.981 43.5 50.8298 43.5 50.6783 43.5C50.5268 43.5 50.3752 43.5 50.2234 43.5C50.0716 43.5 49.9197 43.5 49.7675 43.5C49.6154 43.5 49.4631 43.5 49.3106 43.5C49.1581 43.5 49.0055 43.5 48.8526 43.5C48.6998 43.5 48.5468 43.5 48.3936 43.5C48.2405 43.5 48.0871 43.5 47.9336 43.5C47.7801 43.5 47.6264 43.5 47.4726 43.5C47.3187 43.5 47.1647 43.5 47.0105 43.5C46.8563 43.5 46.7019 43.5 46.5474 43.5C46.3928 43.5 46.2381 43.5 46.0832 43.5C45.9284 43.5 45.7733 43.5 45.6181 43.5C45.4628 43.5 45.3074 43.5 45.1519 43.5C44.9963 43.5 44.8405 43.5 44.6846 43.5C44.5287 43.5 44.3726 43.5 44.2163 43.5C44.0601 43.5 43.9036 43.5 43.747 43.5C43.5904 43.5 43.4336 43.5 43.2767 43.5C43.1197 43.5 42.9626 43.5 42.8053 43.5C42.648 43.5 42.4905 43.5 42.3329 43.5C42.1752 43.5 42.0174 43.5 41.8594 43.5C41.7014 43.5 41.5433 43.5 41.3849 43.5C41.2266 43.5 41.0681 43.5 40.9094 43.5C40.7507 43.5 40.5919 43.5 40.4328 43.5C40.2738 43.5 40.1146 43.5 39.9552 43.5C39.7959 43.5 39.6363 43.5 39.4766 43.5C39.3169 43.5 39.157 43.5 38.9969 43.5C38.8368 43.5 38.6766 43.5 38.5162 43.5C38.3558 43.5 38.1952 43.5 38.0344 43.5C37.8737 43.5 37.7127 43.5 37.5516 43.5C37.3905 43.5 37.2292 43.5 37.0678 43.5C36.9063 43.5 36.7447 43.5 36.5829 43.5C36.4211 43.5 36.2591 43.5 36.097 43.5C35.9348 43.5 35.7725 43.5 35.61 43.5C35.4475 43.5 35.2848 43.5 35.122 43.5C34.9591 43.5 34.7961 43.5 34.6329 43.5C34.4697 43.5 34.3064 43.5 34.1428 43.5C33.9793 43.5 33.8156 43.5 33.6517 43.5C33.4878 43.5 33.3237 43.5 33.1595 43.5C32.9953 43.5 32.8308 43.5 32.6663 43.5C32.5017 43.5 32.3369 43.5 32.172 43.5C32.007 43.5 31.8419 43.5 31.6766 43.5C31.5114 43.5 31.3459 43.5 31.1803 43.5C31.0146 43.5 30.8488 43.5 30.6829 43.5C30.5169 43.5 30.3507 43.5 30.1844 43.5C30.018 43.5 29.8515 43.5 29.6849 43.5C29.5182 43.5 29.3513 43.5 29.1843 43.5C29.0173 43.5 28.8501 43.5 28.6827 43.5C28.5153 43.5 28.3477 43.5 28.18 43.5C28.0123 43.5 27.8444 43.5 27.6763 43.5C27.5082 43.5 27.34 43.5 27.1715 43.5C27.0031 43.5 26.8345 43.5 26.6657 43.5C26.4969 43.5 26.328 43.5 26.1588 43.5C25.9897 43.5 25.8204 43.5 25.6509 43.5C25.4814 43.5 25.3118 43.5 25.1419 43.5C24.9721 43.5 24.8021 43.5 24.6319 43.5C24.4617 43.5 24.2914 43.5 24.1208 43.5C23.9503 43.5 23.7796 43.5 23.6087 43.5C23.4378 43.5 23.2668 43.5 23.0955 43.5C22.9243 43.5 22.7529 43.5 22.5813 43.5C22.4097 43.5 22.2379 43.5 22.066 43.5C21.894 43.5 21.7219 43.5 21.5496 43.5C21.3773 43.5 21.2048 43.5 21.0322 43.5C20.8596 43.5 20.6867 43.5 20.5137 43.5C20.3407 43.5 20.1676 43.5 19.9942 43.5C19.8209 43.5 19.6473 43.5 19.4736 43.5C19.2999 43.5 19.126 43.5 18.952 43.5C18.7779 43.5 18.6037 43.5 18.4293 43.5C18.2549 43.5 18.0803 43.5 17.9055 43.5C17.7308 43.5 17.5558 43.5 17.3807 43.5C17.2056 43.5 17.0303 43.5 16.8548 43.5C16.6793 43.5 16.5037 43.5 16.3279 43.5C16.152 43.5 15.976 43.5 15.7999 43.5C15.6237 43.5 15.4473 43.5 15.2708 43.5C15.0943 43.5 14.9176 43.5 14.7407 43.5C14.5638 43.5 14.3867 43.5 14.2095 43.5C14.0322 43.5 13.8548 43.5 13.6772 43.5C13.4996 43.5 13.3219 43.5 13.1439 43.5C12.966 43.5 12.7878 43.5 12.6095 43.5C12.4312 43.5 12.2527 43.5 12.0741 43.5C11.8954 43.5 11.7166 43.5 11.5376 43.5C11.3586 43.5 11.1794 43.5 11 43.5V46.5Z" fill="#2F2F2F"/>
<path d="M6 44.9992L10.9992 40L15.9985 44.9992L10.9992 49.9985L6 44.9992Z" fill="white"/>
</svg>
