<svg width="32" height="32" viewBox="0 0 32 32" fill="none" xmlns="http://www.w3.org/2000/svg">
<rect width="32" height="32" rx="3" fill="#343A40"/>
<path d="M4.08527 24.862C3.96527 24.862 3.86327 24.82 3.77927 24.736C3.69527 24.664 3.65327 24.562 3.65327 24.43V8.464C3.65327 8.332 3.69527 8.23 3.77927 8.158C3.86327 8.074 3.96527 8.032 4.08527 8.032H7.91927C8.05127 8.032 8.15327 8.074 8.22527 8.158C8.30927 8.23 8.35127 8.332 8.35127 8.464V9.562C8.35127 9.682 8.30927 9.784 8.22527 9.868C8.15327 9.952 8.05127 9.994 7.91927 9.994H5.84927V22.774H7.91927C8.05127 22.774 8.15327 22.816 8.22527 22.9C8.30927 22.984 8.35127 23.086 8.35127 23.206V24.43C8.35127 24.562 8.30927 24.664 8.22527 24.736C8.15327 24.82 8.05127 24.862 7.91927 24.862H4.08527ZM10.5591 22C10.4271 22 10.3191 21.964 10.2351 21.892C10.1511 21.808 10.1091 21.7 10.1091 21.568V9.85C10.1091 9.718 10.1511 9.61 10.2351 9.526C10.3191 9.442 10.4271 9.4 10.5591 9.4H11.9811C12.2331 9.4 12.4131 9.514 12.5211 9.742L15.9951 16.222L19.5051 9.742C19.6251 9.514 19.8051 9.4 20.0451 9.4H21.4491C21.5811 9.4 21.6891 9.442 21.7731 9.526C21.8571 9.61 21.8991 9.718 21.8991 9.85V21.568C21.8991 21.7 21.8571 21.808 21.7731 21.892C21.6891 21.964 21.5811 22 21.4491 22H19.9371C19.8171 22 19.7151 21.958 19.6311 21.874C19.5471 21.79 19.5051 21.688 19.5051 21.568V13.774L16.9851 18.58C16.8291 18.844 16.6251 18.976 16.3731 18.976H15.6351C15.3831 18.976 15.1791 18.844 15.0231 18.58L12.5031 13.774V21.568C12.5031 21.688 12.4611 21.79 12.3771 21.874C12.3051 21.958 12.2031 22 12.0711 22H10.5591ZM24.0895 24.862C23.9695 24.862 23.8675 24.82 23.7835 24.736C23.6995 24.652 23.6575 24.55 23.6575 24.43V23.206C23.6575 23.086 23.6995 22.984 23.7835 22.9C23.8675 22.816 23.9695 22.774 24.0895 22.774H26.1595V9.994H24.0895C23.9695 9.994 23.8675 9.952 23.7835 9.868C23.6995 9.784 23.6575 9.682 23.6575 9.562V8.464C23.6575 8.344 23.6995 8.242 23.7835 8.158C23.8675 8.074 23.9695 8.032 24.0895 8.032H27.9235C28.0555 8.032 28.1575 8.074 28.2295 8.158C28.3135 8.23 28.3555 8.332 28.3555 8.464V24.43C28.3555 24.562 28.3135 24.664 28.2295 24.736C28.1575 24.82 28.0555 24.862 27.9235 24.862H24.0895Z" fill="#F6F8FF"/>
</svg>
