<svg width="424" height="90" viewBox="0 0 424 90" fill="none" xmlns="http://www.w3.org/2000/svg">
<rect width="424" height="90" fill="white"/>
<path d="M3.33975 45L12 53.6603L20.6603 45L12 36.3397L3.33975 45ZM420.66 45L412 36.3398L403.34 45L412 53.6603L420.66 45ZM12 46.5C12.5017 46.5 13.0029 46.5 13.5036 46.5C14.0043 46.5 14.5044 46.5 15.004 46.5C15.5036 46.5 16.0027 46.5 16.5012 46.5C16.9997 46.5 17.4977 46.5 17.9952 46.5C18.4926 46.5 18.9896 46.5 19.486 46.5C19.9824 46.5 20.4782 46.5 20.9736 46.5C21.4689 46.5 21.9637 46.5 22.458 46.5C22.9523 46.5 23.446 46.5 23.9392 46.5C24.4324 46.5 24.9251 46.5 25.4172 46.5C25.9094 46.5 26.401 46.5 26.8921 46.5C27.3832 46.5 27.8737 46.5 28.3637 46.5C28.8538 46.5 29.3432 46.5 29.8322 46.5C30.3212 46.5 30.8096 46.5 31.2975 46.5C31.7854 46.5 32.2728 46.5 32.7596 46.5C33.2465 46.5 33.7328 46.5 34.2186 46.5C34.7044 46.5 35.1896 46.5 35.6743 46.5C36.1591 46.5 36.6433 46.5 37.127 46.5C37.6106 46.5 38.0938 46.5 38.5764 46.5C39.059 46.5 39.5411 46.5 40.0227 46.5C40.5042 46.5 40.9853 46.5 41.4658 46.5C41.9463 46.5 42.4262 46.5 42.9057 46.5C43.3852 46.5 43.8641 46.5 44.3425 46.5C44.8209 46.5 45.2988 46.5 45.7761 46.5C46.2535 46.5 46.7303 46.5 47.2066 46.5C47.6829 46.5 48.1587 46.5 48.6339 46.5C49.1092 46.5 49.5839 46.5 50.0581 46.5C50.5323 46.5 51.0059 46.5 51.4791 46.5C51.9522 46.5 52.4249 46.5 52.897 46.5C53.3691 46.5 53.8406 46.5 54.3117 46.5C54.7827 46.5 55.2533 46.5 55.7233 46.5C56.1933 46.5 56.6628 46.5 57.1317 46.5C57.6007 46.5 58.0691 46.5 58.537 46.5C59.005 46.5 59.4723 46.5 59.9392 46.5C60.4061 46.5 60.8724 46.5 61.3383 46.5C61.8041 46.5 62.2694 46.5 62.7342 46.5C63.199 46.5 63.6632 46.5 64.127 46.5C64.5907 46.5 65.0539 46.5 65.5166 46.5C65.9793 46.5 66.4415 46.5 66.9031 46.5C67.3648 46.5 67.8259 46.5 68.2866 46.5C68.7472 46.5 69.2073 46.5 69.6668 46.5C70.1264 46.5 70.5855 46.5 71.044 46.5C71.5026 46.5 71.9606 46.5 72.4181 46.5C72.8756 46.5 73.3326 46.5 73.789 46.5C74.2455 46.5 74.7014 46.5 75.1569 46.5C75.6123 46.5 76.0672 46.5 76.5216 46.5C76.976 46.5 77.4299 46.5 77.8832 46.5C78.3366 46.5 78.7894 46.5 79.2417 46.5C79.694 46.5 80.1459 46.5 80.5971 46.5C81.0484 46.5 81.4992 46.5 81.9495 46.5C82.3997 46.5 82.8495 46.5 83.2987 46.5C83.7479 46.5 84.1966 46.5 84.6448 46.5C85.093 46.5 85.5407 46.5 85.9878 46.5C86.435 46.5 86.8816 46.5 87.3278 46.5C87.7739 46.5 88.2195 46.5 88.6646 46.5C89.1097 46.5 89.5543 46.5 89.9984 46.5C90.4425 46.5 90.886 46.5 91.3291 46.5C91.7721 46.5 92.2146 46.5 92.6567 46.5C93.0987 46.5 93.5402 46.5 93.9812 46.5C94.4222 46.5 94.8626 46.5 95.3026 46.5C95.7426 46.5 96.182 46.5 96.621 46.5C97.0599 46.5 97.4984 46.5 97.9363 46.5C98.3742 46.5 98.8116 46.5 99.2485 46.5C99.6854 46.5 100.122 46.5 100.558 46.5C100.994 46.5 101.429 46.5 101.864 46.5C102.299 46.5 102.733 46.5 103.167 46.5C103.601 46.5 104.034 46.5 104.467 46.5C104.9 46.5 105.332 46.5 105.764 46.5C106.195 46.5 106.627 46.5 107.057 46.5C107.488 46.5 107.918 46.5 108.348 46.5C108.778 46.5 109.207 46.5 109.636 46.5C110.065 46.5 110.493 46.5 110.921 46.5C111.348 46.5 111.776 46.5 112.202 46.5C112.629 46.5 113.055 46.5 113.481 46.5C113.907 46.5 114.332 46.5 114.756 46.5C115.181 46.5 115.605 46.5 116.029 46.5C116.453 46.5 116.876 46.5 117.298 46.5C117.721 46.5 118.143 46.5 118.565 46.5C118.986 46.5 119.408 46.5 119.828 46.5C120.249 46.5 120.669 46.5 121.089 46.5C121.508 46.5 121.927 46.5 122.346 46.5C122.764 46.5 123.183 46.5 123.6 46.5C124.018 46.5 124.435 46.5 124.851 46.5C125.268 46.5 125.684 46.5 126.1 46.5C126.515 46.5 126.93 46.5 127.345 46.5C127.759 46.5 128.174 46.5 128.587 46.5C129.001 46.5 129.414 46.5 129.826 46.5C130.239 46.5 130.651 46.5 131.062 46.5C131.474 46.5 131.885 46.5 132.296 46.5C132.706 46.5 133.116 46.5 133.526 46.5C133.935 46.5 134.344 46.5 134.753 46.5C135.161 46.5 135.569 46.5 135.977 46.5C136.385 46.5 136.792 46.5 137.198 46.5C137.605 46.5 138.011 46.5 138.416 46.5C138.822 46.5 139.227 46.5 139.631 46.5C140.036 46.5 140.44 46.5 140.844 46.5C141.247 46.5 141.65 46.5 142.053 46.5C142.455 46.5 142.857 46.5 143.259 46.5C143.66 46.5 144.061 46.5 144.462 46.5C144.862 46.5 145.263 46.5 145.662 46.5C146.062 46.5 146.461 46.5 146.859 46.5C147.258 46.5 147.656 46.5 148.053 46.5C148.451 46.5 148.848 46.5 149.245 46.5C149.641 46.5 150.037 46.5 150.433 46.5C150.828 46.5 151.224 46.5 151.618 46.5C152.013 46.5 152.407 46.5 152.8 46.5C153.194 46.5 153.587 46.5 153.98 46.5C154.372 46.5 154.764 46.5 155.156 46.5C155.548 46.5 155.939 46.5 156.329 46.5C156.72 46.5 157.11 46.5 157.5 46.5C157.889 46.5 158.279 46.5 158.667 46.5C159.056 46.5 159.444 46.5 159.832 46.5C160.219 46.5 160.606 46.5 160.993 46.5C161.38 46.5 161.766 46.5 162.152 46.5C162.537 46.5 162.923 46.5 163.307 46.5C163.692 46.5 164.076 46.5 164.46 46.5C164.844 46.5 165.227 46.5 165.61 46.5C165.992 46.5 166.375 46.5 166.756 46.5C167.138 46.5 167.519 46.5 167.9 46.5C168.281 46.5 168.661 46.5 169.041 46.5C169.421 46.5 169.8 46.5 170.179 46.5C170.558 46.5 170.936 46.5 171.314 46.5C171.692 46.5 172.069 46.5 172.446 46.5C172.823 46.5 173.199 46.5 173.575 46.5C173.951 46.5 174.326 46.5 174.701 46.5C175.076 46.5 175.45 46.5 175.824 46.5C176.198 46.5 176.572 46.5 176.945 46.5C177.318 46.5 177.69 46.5 178.062 46.5C178.434 46.5 178.805 46.5 179.176 46.5C179.547 46.5 179.918 46.5 180.288 46.5C180.658 46.5 181.027 46.5 181.397 46.5C181.766 46.5 182.134 46.5 182.502 46.5C182.87 46.5 183.238 46.5 183.605 46.5C183.972 46.5 184.339 46.5 184.705 46.5C185.071 46.5 185.437 46.5 185.802 46.5C186.167 46.5 186.532 46.5 186.896 46.5C187.26 46.5 187.624 46.5 187.987 46.5C188.35 46.5 188.713 46.5 189.075 46.5C189.437 46.5 189.799 46.5 190.16 46.5C190.522 46.5 190.883 46.5 191.243 46.5C191.603 46.5 191.963 46.5 192.322 46.5C192.682 46.5 193.041 46.5 193.399 46.5C193.757 46.5 194.115 46.5 194.473 46.5C194.83 46.5 195.187 46.5 195.544 46.5C195.9 46.5 196.256 46.5 196.612 46.5C196.967 46.5 197.322 46.5 197.677 46.5C198.031 46.5 198.385 46.5 198.739 46.5C199.092 46.5 199.445 46.5 199.798 46.5C200.151 46.5 200.503 46.5 200.854 46.5C201.206 46.5 201.557 46.5 201.908 46.5C202.259 46.5 202.609 46.5 202.959 46.5C203.308 46.5 203.658 46.5 204.006 46.5C204.355 46.5 204.704 46.5 205.051 46.5C205.399 46.5 205.747 46.5 206.093 46.5C206.44 46.5 206.787 46.5 207.133 46.5C207.479 46.5 207.824 46.5 208.169 46.5C208.514 46.5 208.858 46.5 209.202 46.5C209.546 46.5 209.89 46.5 210.233 46.5C210.576 46.5 210.919 46.5 211.261 46.5C211.603 46.5 211.944 46.5 212.286 46.5C212.627 46.5 212.967 46.5 213.308 46.5C213.648 46.5 213.988 46.5 214.327 46.5C214.666 46.5 215.005 46.5 215.343 46.5C215.681 46.5 216.019 46.5 216.357 46.5C216.694 46.5 217.031 46.5 217.367 46.5C217.704 46.5 218.04 46.5 218.375 46.5C218.71 46.5 219.045 46.5 219.38 46.5C219.714 46.5 220.048 46.5 220.382 46.5C220.716 46.5 221.049 46.5 221.381 46.5C221.714 46.5 222.046 46.5 222.378 46.5C222.709 46.5 223.041 46.5 223.371 46.5C223.702 46.5 224.032 46.5 224.362 46.5C224.692 46.5 225.021 46.5 225.35 46.5C225.679 46.5 226.007 46.5 226.335 46.5C226.663 46.5 226.991 46.5 227.318 46.5C227.644 46.5 227.971 46.5 228.297 46.5C228.623 46.5 228.949 46.5 229.274 46.5C229.599 46.5 229.923 46.5 230.247 46.5C230.572 46.5 230.895 46.5 231.219 46.5C231.542 46.5 231.864 46.5 232.187 46.5C232.509 46.5 232.831 46.5 233.152 46.5C233.474 46.5 233.794 46.5 234.115 46.5C234.435 46.5 234.755 46.5 235.075 46.5C235.394 46.5 235.713 46.5 236.032 46.5C236.35 46.5 236.668 46.5 236.986 46.5C237.303 46.5 237.62 46.5 237.937 46.5C238.254 46.5 238.57 46.5 238.886 46.5C239.201 46.5 239.517 46.5 239.832 46.5C240.146 46.5 240.461 46.5 240.775 46.5C241.088 46.5 241.402 46.5 241.715 46.5C242.028 46.5 242.34 46.5 242.652 46.5C242.964 46.5 243.276 46.5 243.587 46.5C243.898 46.5 244.209 46.5 244.519 46.5C244.829 46.5 245.139 46.5 245.448 46.5C245.757 46.5 246.066 46.5 246.374 46.5C246.682 46.5 246.99 46.5 247.298 46.5C247.605 46.5 247.912 46.5 248.218 46.5C248.525 46.5 248.831 46.5 249.136 46.5C249.442 46.5 249.747 46.5 250.052 46.5C250.356 46.5 250.66 46.5 250.964 46.5C251.268 46.5 251.571 46.5 251.874 46.5C252.177 46.5 252.479 46.5 252.781 46.5C253.083 46.5 253.384 46.5 253.685 46.5C253.986 46.5 254.286 46.5 254.586 46.5C254.886 46.5 255.186 46.5 255.485 46.5C255.784 46.5 256.083 46.5 256.381 46.5C256.679 46.5 256.977 46.5 257.274 46.5C257.571 46.5 257.868 46.5 258.164 46.5C258.461 46.5 258.757 46.5 259.052 46.5C259.347 46.5 259.642 46.5 259.937 46.5C260.231 46.5 260.526 46.5 260.819 46.5C261.113 46.5 261.406 46.5 261.699 46.5C261.991 46.5 262.283 46.5 262.575 46.5C262.867 46.5 263.158 46.5 263.449 46.5C263.74 46.5 264.03 46.5 264.32 46.5C264.61 46.5 264.9 46.5 265.189 46.5C265.478 46.5 265.766 46.5 266.055 46.5C266.343 46.5 266.63 46.5 266.918 46.5C267.205 46.5 267.492 46.5 267.778 46.5C268.064 46.5 268.35 46.5 268.635 46.5C268.921 46.5 269.206 46.5 269.49 46.5C269.775 46.5 270.059 46.5 270.342 46.5C270.626 46.5 270.909 46.5 271.192 46.5C271.475 46.5 271.757 46.5 272.039 46.5C272.32 46.5 272.602 46.5 272.883 46.5C273.163 46.5 273.444 46.5 273.724 46.5C274.004 46.5 274.283 46.5 274.562 46.5C274.841 46.5 275.12 46.5 275.398 46.5C275.676 46.5 275.954 46.5 276.231 46.5C276.509 46.5 276.786 46.5 277.062 46.5C277.338 46.5 277.614 46.5 277.89 46.5C278.165 46.5 278.44 46.5 278.715 46.5C278.989 46.5 279.263 46.5 279.537 46.5C279.811 46.5 280.084 46.5 280.357 46.5C280.63 46.5 280.902 46.5 281.174 46.5C281.446 46.5 281.717 46.5 281.988 46.5C282.259 46.5 282.53 46.5 282.8 46.5C283.07 46.5 283.339 46.5 283.609 46.5C283.878 46.5 284.147 46.5 284.415 46.5C284.683 46.5 284.951 46.5 285.218 46.5C285.486 46.5 285.753 46.5 286.019 46.5C286.286 46.5 286.552 46.5 286.818 46.5C287.083 46.5 287.348 46.5 287.613 46.5C287.878 46.5 288.142 46.5 288.406 46.5C288.67 46.5 288.933 46.5 289.196 46.5C289.459 46.5 289.722 46.5 289.984 46.5C290.246 46.5 290.507 46.5 290.769 46.5C291.03 46.5 291.291 46.5 291.551 46.5C291.811 46.5 292.071 46.5 292.33 46.5C292.59 46.5 292.849 46.5 293.107 46.5C293.366 46.5 293.624 46.5 293.882 46.5C294.139 46.5 294.396 46.5 294.653 46.5C294.91 46.5 295.166 46.5 295.422 46.5C295.678 46.5 295.933 46.5 296.188 46.5C296.443 46.5 296.698 46.5 296.952 46.5C297.206 46.5 297.46 46.5 297.713 46.5C297.966 46.5 298.219 46.5 298.471 46.5C298.724 46.5 298.976 46.5 299.227 46.5C299.479 46.5 299.73 46.5 299.98 46.5C300.231 46.5 300.481 46.5 300.731 46.5C300.981 46.5 301.23 46.5 301.479 46.5C301.727 46.5 301.976 46.5 302.224 46.5C302.472 46.5 302.719 46.5 302.966 46.5C303.213 46.5 303.46 46.5 303.706 46.5C303.953 46.5 304.198 46.5 304.444 46.5C304.689 46.5 304.934 46.5 305.178 46.5C305.423 46.5 305.667 46.5 305.91 46.5C306.154 46.5 306.397 46.5 306.64 46.5C306.883 46.5 307.125 46.5 307.367 46.5C307.609 46.5 307.85 46.5 308.091 46.5C308.332 46.5 308.573 46.5 308.813 46.5C309.053 46.5 309.292 46.5 309.532 46.5C309.771 46.5 310.01 46.5 310.248 46.5C310.486 46.5 310.724 46.5 310.962 46.5C311.199 46.5 311.436 46.5 311.673 46.5C311.91 46.5 312.146 46.5 312.382 46.5C312.618 46.5 312.853 46.5 313.088 46.5C313.323 46.5 313.557 46.5 313.791 46.5C314.025 46.5 314.259 46.5 314.492 46.5C314.725 46.5 314.958 46.5 315.19 46.5C315.423 46.5 315.654 46.5 315.886 46.5C316.117 46.5 316.348 46.5 316.579 46.5C316.81 46.5 317.04 46.5 317.269 46.5C317.499 46.5 317.728 46.5 317.957 46.5C318.186 46.5 318.415 46.5 318.643 46.5C318.871 46.5 319.098 46.5 319.325 46.5C319.553 46.5 319.779 46.5 320.006 46.5C320.232 46.5 320.458 46.5 320.683 46.5C320.909 46.5 321.134 46.5 321.358 46.5C321.583 46.5 321.807 46.5 322.031 46.5C322.254 46.5 322.478 46.5 322.701 46.5C322.923 46.5 323.146 46.5 323.368 46.5C323.59 46.5 323.811 46.5 324.033 46.5C324.254 46.5 324.475 46.5 324.695 46.5C324.915 46.5 325.135 46.5 325.355 46.5C325.574 46.5 325.793 46.5 326.012 46.5C326.23 46.5 326.448 46.5 326.666 46.5C326.884 46.5 327.101 46.5 327.318 46.5C327.535 46.5 327.752 46.5 327.968 46.5C328.184 46.5 328.399 46.5 328.615 46.5C328.83 46.5 329.045 46.5 329.259 46.5C329.473 46.5 329.687 46.5 329.901 46.5C330.114 46.5 330.327 46.5 330.54 46.5C330.753 46.5 330.965 46.5 331.177 46.5C331.389 46.5 331.6 46.5 331.811 46.5C332.022 46.5 332.232 46.5 332.443 46.5C332.653 46.5 332.862 46.5 333.072 46.5C333.281 46.5 333.49 46.5 333.698 46.5C333.907 46.5 334.115 46.5 334.322 46.5C334.53 46.5 334.737 46.5 334.944 46.5C335.151 46.5 335.357 46.5 335.563 46.5C335.769 46.5 335.974 46.5 336.18 46.5C336.385 46.5 336.589 46.5 336.794 46.5C336.998 46.5 337.202 46.5 337.405 46.5C337.608 46.5 337.811 46.5 338.014 46.5C338.217 46.5 338.419 46.5 338.621 46.5C338.822 46.5 339.024 46.5 339.224 46.5C339.425 46.5 339.626 46.5 339.826 46.5C340.026 46.5 340.226 46.5 340.425 46.5C340.624 46.5 340.823 46.5 341.021 46.5C341.22 46.5 341.418 46.5 341.615 46.5C341.813 46.5 342.01 46.5 342.207 46.5C342.403 46.5 342.6 46.5 342.796 46.5C342.992 46.5 343.187 46.5 343.382 46.5C343.577 46.5 343.772 46.5 343.966 46.5C344.16 46.5 344.354 46.5 344.548 46.5C344.741 46.5 344.934 46.5 345.127 46.5C345.319 46.5 345.511 46.5 345.703 46.5C345.895 46.5 346.086 46.5 346.277 46.5C346.468 46.5 346.659 46.5 346.849 46.5C347.039 46.5 347.229 46.5 347.418 46.5C347.607 46.5 347.796 46.5 347.984 46.5C348.173 46.5 348.361 46.5 348.549 46.5C348.736 46.5 348.923 46.5 349.11 46.5C349.297 46.5 349.483 46.5 349.669 46.5C349.855 46.5 350.041 46.5 350.226 46.5C350.411 46.5 350.596 46.5 350.78 46.5C350.965 46.5 351.149 46.5 351.332 46.5C351.516 46.5 351.699 46.5 351.882 46.5C352.064 46.5 352.247 46.5 352.428 46.5C352.61 46.5 352.792 46.5 352.973 46.5C353.154 46.5 353.335 46.5 353.515 46.5C353.695 46.5 353.875 46.5 354.054 46.5C354.234 46.5 354.413 46.5 354.591 46.5C354.77 46.5 354.948 46.5 355.126 46.5C355.304 46.5 355.481 46.5 355.658 46.5C355.835 46.5 356.012 46.5 356.188 46.5C356.364 46.5 356.54 46.5 356.715 46.5C356.891 46.5 357.066 46.5 357.24 46.5C357.415 46.5 357.589 46.5 357.763 46.5C357.936 46.5 358.11 46.5 358.283 46.5C358.456 46.5 358.628 46.5 358.8 46.5C358.972 46.5 359.144 46.5 359.315 46.5C359.487 46.5 359.657 46.5 359.828 46.5C359.998 46.5 360.169 46.5 360.338 46.5C360.508 46.5 360.677 46.5 360.846 46.5C361.015 46.5 361.184 46.5 361.352 46.5C361.52 46.5 361.687 46.5 361.855 46.5C362.022 46.5 362.189 46.5 362.355 46.5C362.522 46.5 362.688 46.5 362.853 46.5C363.019 46.5 363.184 46.5 363.349 46.5C363.514 46.5 363.679 46.5 363.843 46.5C364.007 46.5 364.17 46.5 364.334 46.5C364.497 46.5 364.66 46.5 364.822 46.5C364.985 46.5 365.147 46.5 365.308 46.5C365.47 46.5 365.631 46.5 365.792 46.5C365.953 46.5 366.113 46.5 366.274 46.5C366.434 46.5 366.593 46.5 366.752 46.5C366.912 46.5 367.071 46.5 367.229 46.5C367.388 46.5 367.546 46.5 367.703 46.5C367.861 46.5 368.018 46.5 368.175 46.5C368.332 46.5 368.488 46.5 368.644 46.5C368.801 46.5 368.956 46.5 369.112 46.5C369.267 46.5 369.422 46.5 369.576 46.5C369.731 46.5 369.885 46.5 370.038 46.5C370.192 46.5 370.345 46.5 370.498 46.5C370.651 46.5 370.804 46.5 370.956 46.5C371.108 46.5 371.26 46.5 371.411 46.5C371.562 46.5 371.713 46.5 371.864 46.5C372.014 46.5 372.164 46.5 372.314 46.5C372.464 46.5 372.613 46.5 372.762 46.5C372.911 46.5 373.06 46.5 373.208 46.5C373.356 46.5 373.504 46.5 373.651 46.5C373.799 46.5 373.946 46.5 374.092 46.5C374.239 46.5 374.385 46.5 374.531 46.5C374.677 46.5 374.822 46.5 374.967 46.5C375.112 46.5 375.257 46.5 375.401 46.5C375.545 46.5 375.689 46.5 375.832 46.5C375.976 46.5 376.119 46.5 376.262 46.5C376.404 46.5 376.547 46.5 376.689 46.5C376.83 46.5 376.972 46.5 377.113 46.5C377.254 46.5 377.395 46.5 377.535 46.5C377.676 46.5 377.815 46.5 377.955 46.5C378.095 46.5 378.234 46.5 378.372 46.5C378.511 46.5 378.65 46.5 378.788 46.5C378.926 46.5 379.063 46.5 379.2 46.5C379.338 46.5 379.474 46.5 379.611 46.5C379.747 46.5 379.883 46.5 380.019 46.5C380.155 46.5 380.29 46.5 380.425 46.5C380.56 46.5 380.694 46.5 380.828 46.5C380.963 46.5 381.096 46.5 381.23 46.5C381.363 46.5 381.496 46.5 381.628 46.5C381.761 46.5 381.893 46.5 382.025 46.5C382.157 46.5 382.288 46.5 382.419 46.5C382.55 46.5 382.681 46.5 382.811 46.5C382.941 46.5 383.071 46.5 383.201 46.5C383.33 46.5 383.459 46.5 383.588 46.5C383.717 46.5 383.845 46.5 383.973 46.5C384.101 46.5 384.229 46.5 384.356 46.5C384.483 46.5 384.61 46.5 384.736 46.5C384.862 46.5 384.989 46.5 385.114 46.5C385.24 46.5 385.365 46.5 385.49 46.5C385.615 46.5 385.739 46.5 385.863 46.5C385.988 46.5 386.111 46.5 386.235 46.5C386.358 46.5 386.481 46.5 386.604 46.5C386.726 46.5 386.848 46.5 386.97 46.5C387.092 46.5 387.213 46.5 387.334 46.5C387.456 46.5 387.576 46.5 387.697 46.5C387.817 46.5 387.937 46.5 388.056 46.5C388.176 46.5 388.295 46.5 388.414 46.5C388.533 46.5 388.651 46.5 388.769 46.5C388.887 46.5 389.005 46.5 389.122 46.5C389.239 46.5 389.356 46.5 389.473 46.5C389.589 46.5 389.705 46.5 389.821 46.5C389.937 46.5 390.052 46.5 390.167 46.5C390.282 46.5 390.397 46.5 390.511 46.5C390.625 46.5 390.739 46.5 390.852 46.5C390.966 46.5 391.079 46.5 391.192 46.5C391.305 46.5 391.417 46.5 391.529 46.5C391.641 46.5 391.752 46.5 391.864 46.5C391.975 46.5 392.086 46.5 392.196 46.5C392.307 46.5 392.417 46.5 392.526 46.5C392.636 46.5 392.746 46.5 392.855 46.5C392.963 46.5 393.072 46.5 393.18 46.5C393.289 46.5 393.396 46.5 393.504 46.5C393.611 46.5 393.718 46.5 393.825 46.5C393.932 46.5 394.038 46.5 394.144 46.5C394.25 46.5 394.356 46.5 394.461 46.5C394.566 46.5 394.671 46.5 394.776 46.5C394.88 46.5 394.984 46.5 395.088 46.5C395.192 46.5 395.295 46.5 395.398 46.5C395.501 46.5 395.604 46.5 395.706 46.5C395.808 46.5 395.91 46.5 396.012 46.5C396.113 46.5 396.214 46.5 396.315 46.5C396.416 46.5 396.516 46.5 396.616 46.5C396.716 46.5 396.816 46.5 396.915 46.5C397.015 46.5 397.113 46.5 397.212 46.5C397.311 46.5 397.409 46.5 397.507 46.5C397.604 46.5 397.702 46.5 397.799 46.5C397.896 46.5 397.993 46.5 398.089 46.5C398.185 46.5 398.281 46.5 398.377 46.5C398.472 46.5 398.568 46.5 398.663 46.5C398.757 46.5 398.852 46.5 398.946 46.5C399.04 46.5 399.134 46.5 399.227 46.5C399.321 46.5 399.414 46.5 399.506 46.5C399.599 46.5 399.691 46.5 399.783 46.5C399.875 46.5 399.967 46.5 400.058 46.5C400.149 46.5 400.24 46.5 400.33 46.5C400.421 46.5 400.511 46.5 400.601 46.5C400.69 46.5 400.78 46.5 400.869 46.5C400.958 46.5 401.046 46.5 401.135 46.5C401.223 46.5 401.311 46.5 401.398 46.5C401.486 46.5 401.573 46.5 401.66 46.5C401.747 46.5 401.833 46.5 401.919 46.5C402.005 46.5 402.091 46.5 402.176 46.5C402.262 46.5 402.347 46.5 402.431 46.5C402.516 46.5 402.6 46.5 402.684 46.5C402.768 46.5 402.852 46.5 402.935 46.5C403.018 46.5 403.101 46.5 403.183 46.5C403.266 46.5 403.348 46.5 403.43 46.5C403.511 46.5 403.593 46.5 403.674 46.5C403.755 46.5 403.835 46.5 403.916 46.5C403.996 46.5 404.076 46.5 404.156 46.5C404.235 46.5 404.314 46.5 404.393 46.5C404.472 46.5 404.551 46.5 404.629 46.5C404.707 46.5 404.785 46.5 404.862 46.5C404.939 46.5 405.017 46.5 405.093 46.5C405.17 46.5 405.246 46.5 405.322 46.5C405.398 46.5 405.474 46.5 405.549 46.5C405.624 46.5 405.699 46.5 405.774 46.5C405.848 46.5 405.923 46.5 405.996 46.5C406.07 46.5 406.144 46.5 406.217 46.5C406.29 46.5 406.363 46.5 406.435 46.5C406.508 46.5 406.58 46.5 406.651 46.5C406.723 46.5 406.794 46.5 406.865 46.5C406.936 46.5 407.007 46.5 407.077 46.5C407.148 46.5 407.218 46.5 407.287 46.5C407.357 46.5 407.426 46.5 407.495 46.5C407.564 46.5 407.632 46.5 407.7 46.5C407.768 46.5 407.836 46.5 407.904 46.5C407.971 46.5 408.038 46.5 408.105 46.5C408.172 46.5 408.238 46.5 408.304 46.5C408.37 46.5 408.436 46.5 408.501 46.5C408.566 46.5 408.631 46.5 408.696 46.5C408.761 46.5 408.825 46.5 408.889 46.5C408.953 46.5 409.016 46.5 409.079 46.5C409.143 46.5 409.205 46.5 409.268 46.5C409.33 46.5 409.393 46.5 409.454 46.5C409.516 46.5 409.578 46.5 409.639 46.5C409.7 46.5 409.761 46.5 409.821 46.5C409.881 46.5 409.941 46.5 410.001 46.5C410.061 46.5 410.12 46.5 410.179 46.5C410.238 46.5 410.297 46.5 410.355 46.5C410.414 46.5 410.471 46.5 410.529 46.5C410.587 46.5 410.644 46.5 410.701 46.5C410.758 46.5 410.814 46.5 410.871 46.5C410.927 46.5 410.983 46.5 411.038 46.5C411.094 46.5 411.149 46.5 411.204 46.5C411.258 46.5 411.313 46.5 411.367 46.5C411.421 46.5 411.475 46.5 411.528 46.5C411.582 46.5 411.635 46.5 411.688 46.5C411.74 46.5 411.793 46.5 411.845 46.5C411.897 46.5 411.949 46.5 412 46.5L412 43.5C411.949 43.5 411.897 43.5 411.845 43.5C411.793 43.5 411.74 43.5 411.688 43.5C411.635 43.5 411.582 43.5 411.528 43.5C411.475 43.5 411.421 43.5 411.367 43.5C411.313 43.5 411.258 43.5 411.204 43.5C411.149 43.5 411.094 43.5 411.038 43.5C410.983 43.5 410.927 43.5 410.871 43.5C410.814 43.5 410.758 43.5 410.701 43.5C410.644 43.5 410.587 43.5 410.529 43.5C410.471 43.5 410.414 43.5 410.355 43.5C410.297 43.5 410.238 43.5 410.179 43.5C410.12 43.5 410.061 43.5 410.001 43.5C409.941 43.5 409.881 43.5 409.821 43.5C409.761 43.5 409.7 43.5 409.639 43.5C409.578 43.5 409.516 43.5 409.454 43.5C409.393 43.5 409.33 43.5 409.268 43.5C409.205 43.5 409.143 43.5 409.079 43.5C409.016 43.5 408.953 43.5 408.889 43.5C408.825 43.5 408.761 43.5 408.696 43.5C408.631 43.5 408.566 43.5 408.501 43.5C408.436 43.5 408.37 43.5 408.304 43.5C408.238 43.5 408.172 43.5 408.105 43.5C408.038 43.5 407.971 43.5 407.904 43.5C407.836 43.5 407.768 43.5 407.7 43.5C407.632 43.5 407.564 43.5 407.495 43.5C407.426 43.5 407.357 43.5 407.287 43.5C407.218 43.5 407.148 43.5 407.077 43.5C407.007 43.5 406.936 43.5 406.865 43.5C406.794 43.5 406.723 43.5 406.651 43.5C406.58 43.5 406.508 43.5 406.435 43.5C406.363 43.5 406.29 43.5 406.217 43.5C406.144 43.5 406.07 43.5 405.996 43.5C405.923 43.5 405.848 43.5 405.774 43.5C405.699 43.5 405.624 43.5 405.549 43.5C405.474 43.5 405.398 43.5 405.322 43.5C405.246 43.5 405.17 43.5 405.093 43.5C405.017 43.5 404.939 43.5 404.862 43.5C404.785 43.5 404.707 43.5 404.629 43.5C404.551 43.5 404.472 43.5 404.393 43.5C404.314 43.5 404.235 43.5 404.156 43.5C404.076 43.5 403.996 43.5 403.916 43.5C403.835 43.5 403.755 43.5 403.674 43.5C403.593 43.5 403.511 43.5 403.43 43.5C403.348 43.5 403.266 43.5 403.183 43.5C403.101 43.5 403.018 43.5 402.935 43.5C402.852 43.5 402.768 43.5 402.684 43.5C402.6 43.5 402.516 43.5 402.431 43.5C402.347 43.5 402.262 43.5 402.176 43.5C402.091 43.5 402.005 43.5 401.919 43.5C401.833 43.5 401.747 43.5 401.66 43.5C401.573 43.5 401.486 43.5 401.398 43.5C401.311 43.5 401.223 43.5 401.135 43.5C401.046 43.5 400.958 43.5 400.869 43.5C400.78 43.5 400.69 43.5 400.601 43.5C400.511 43.5 400.421 43.5 400.33 43.5C400.24 43.5 400.149 43.5 400.058 43.5C399.967 43.5 399.875 43.5 399.783 43.5C399.691 43.5 399.599 43.5 399.506 43.5C399.414 43.5 399.321 43.5 399.227 43.5C399.134 43.5 399.04 43.5 398.946 43.5C398.852 43.5 398.757 43.5 398.663 43.5C398.568 43.5 398.472 43.5 398.377 43.5C398.281 43.5 398.185 43.5 398.089 43.5C397.993 43.5 397.896 43.5 397.799 43.5C397.702 43.5 397.604 43.5 397.507 43.5C397.409 43.5 397.311 43.5 397.212 43.5C397.113 43.5 397.015 43.5 396.915 43.5C396.816 43.5 396.716 43.5 396.616 43.5C396.516 43.5 396.416 43.5 396.315 43.5C396.214 43.5 396.113 43.5 396.012 43.5C395.91 43.5 395.808 43.5 395.706 43.5C395.604 43.5 395.501 43.5 395.398 43.5C395.295 43.5 395.192 43.5 395.088 43.5C394.984 43.5 394.88 43.5 394.776 43.5C394.671 43.5 394.566 43.5 394.461 43.5C394.356 43.5 394.25 43.5 394.144 43.5C394.038 43.5 393.932 43.5 393.825 43.5C393.718 43.5 393.611 43.5 393.504 43.5C393.396 43.5 393.289 43.5 393.18 43.5C393.072 43.5 392.963 43.5 392.855 43.5C392.746 43.5 392.636 43.5 392.526 43.5C392.417 43.5 392.307 43.5 392.196 43.5C392.086 43.5 391.975 43.5 391.864 43.5C391.752 43.5 391.641 43.5 391.529 43.5C391.417 43.5 391.305 43.5 391.192 43.5C391.079 43.5 390.966 43.5 390.852 43.5C390.739 43.5 390.625 43.5 390.511 43.5C390.397 43.5 390.282 43.5 390.167 43.5C390.052 43.5 389.937 43.5 389.821 43.5C389.705 43.5 389.589 43.5 389.473 43.5C389.356 43.5 389.239 43.5 389.122 43.5C389.005 43.5 388.887 43.5 388.769 43.5C388.651 43.5 388.533 43.5 388.414 43.5C388.295 43.5 388.176 43.5 388.056 43.5C387.937 43.5 387.817 43.5 387.697 43.5C387.576 43.5 387.456 43.5 387.334 43.5C387.213 43.5 387.092 43.5 386.97 43.5C386.848 43.5 386.726 43.5 386.604 43.5C386.481 43.5 386.358 43.5 386.235 43.5C386.111 43.5 385.988 43.5 385.863 43.5C385.739 43.5 385.615 43.5 385.49 43.5C385.365 43.5 385.24 43.5 385.114 43.5C384.989 43.5 384.862 43.5 384.736 43.5C384.61 43.5 384.483 43.5 384.356 43.5C384.229 43.5 384.101 43.5 383.973 43.5C383.845 43.5 383.717 43.5 383.588 43.5C383.459 43.5 383.33 43.5 383.201 43.5C383.071 43.5 382.941 43.5 382.811 43.5C382.681 43.5 382.55 43.5 382.419 43.5C382.288 43.5 382.157 43.5 382.025 43.5C381.893 43.5 381.761 43.5 381.628 43.5C381.496 43.5 381.363 43.5 381.23 43.5C381.096 43.5 380.963 43.5 380.828 43.5C380.694 43.5 380.56 43.5 380.425 43.5C380.29 43.5 380.155 43.5 380.019 43.5C379.883 43.5 379.747 43.5 379.611 43.5C379.474 43.5 379.338 43.5 379.2 43.5C379.063 43.5 378.926 43.5 378.788 43.5C378.65 43.5 378.511 43.5 378.372 43.5C378.234 43.5 378.095 43.5 377.955 43.5C377.815 43.5 377.676 43.5 377.535 43.5C377.395 43.5 377.254 43.5 377.113 43.5C376.972 43.5 376.83 43.5 376.689 43.5C376.547 43.5 376.404 43.5 376.262 43.5C376.119 43.5 375.976 43.5 375.832 43.5C375.689 43.5 375.545 43.5 375.401 43.5C375.257 43.5 375.112 43.5 374.967 43.5C374.822 43.5 374.677 43.5 374.531 43.5C374.385 43.5 374.239 43.5 374.092 43.5C373.946 43.5 373.799 43.5 373.651 43.5C373.504 43.5 373.356 43.5 373.208 43.5C373.06 43.5 372.911 43.5 372.762 43.5C372.613 43.5 372.464 43.5 372.314 43.5C372.164 43.5 372.014 43.5 371.864 43.5C371.713 43.5 371.562 43.5 371.411 43.5C371.26 43.5 371.108 43.5 370.956 43.5C370.804 43.5 370.651 43.5 370.498 43.5C370.345 43.5 370.192 43.5 370.038 43.5C369.885 43.5 369.731 43.5 369.576 43.5C369.422 43.5 369.267 43.5 369.112 43.5C368.956 43.5 368.801 43.5 368.644 43.5C368.488 43.5 368.332 43.5 368.175 43.5C368.018 43.5 367.861 43.5 367.703 43.5C367.546 43.5 367.388 43.5 367.229 43.5C367.071 43.5 366.912 43.5 366.752 43.5C366.593 43.5 366.434 43.5 366.274 43.5C366.113 43.5 365.953 43.5 365.792 43.5C365.631 43.5 365.47 43.5 365.308 43.5C365.147 43.5 364.985 43.5 364.822 43.5C364.66 43.5 364.497 43.5 364.334 43.5C364.17 43.5 364.007 43.5 363.843 43.5C363.679 43.5 363.514 43.5 363.349 43.5C363.184 43.5 363.019 43.5 362.853 43.5C362.688 43.5 362.522 43.5 362.355 43.5C362.189 43.5 362.022 43.5 361.855 43.5C361.687 43.5 361.52 43.5 361.352 43.5C361.184 43.5 361.015 43.5 360.846 43.5C360.677 43.5 360.508 43.5 360.338 43.5C360.169 43.5 359.998 43.5 359.828 43.5C359.657 43.5 359.487 43.5 359.315 43.5C359.144 43.5 358.972 43.5 358.8 43.5C358.628 43.5 358.456 43.5 358.283 43.5C358.11 43.5 357.936 43.5 357.763 43.5C357.589 43.5 357.415 43.5 357.24 43.5C357.066 43.5 356.891 43.5 356.715 43.5C356.54 43.5 356.364 43.5 356.188 43.5C356.012 43.5 355.835 43.5 355.658 43.5C355.481 43.5 355.304 43.5 355.126 43.5C354.948 43.5 354.77 43.5 354.591 43.5C354.413 43.5 354.234 43.5 354.054 43.5C353.875 43.5 353.695 43.5 353.515 43.5C353.335 43.5 353.154 43.5 352.973 43.5C352.792 43.5 352.61 43.5 352.428 43.5C352.247 43.5 352.064 43.5 351.882 43.5C351.699 43.5 351.516 43.5 351.332 43.5C351.149 43.5 350.965 43.5 350.78 43.5C350.596 43.5 350.411 43.5 350.226 43.5C350.041 43.5 349.855 43.5 349.669 43.5C349.483 43.5 349.297 43.5 349.11 43.5C348.923 43.5 348.736 43.5 348.549 43.5C348.361 43.5 348.173 43.5 347.984 43.5C347.796 43.5 347.607 43.5 347.418 43.5C347.229 43.5 347.039 43.5 346.849 43.5C346.659 43.5 346.468 43.5 346.277 43.5C346.086 43.5 345.895 43.5 345.703 43.5C345.511 43.5 345.319 43.5 345.127 43.5C344.934 43.5 344.741 43.5 344.548 43.5C344.354 43.5 344.16 43.5 343.966 43.5C343.772 43.5 343.577 43.5 343.382 43.5C343.187 43.5 342.992 43.5 342.796 43.5C342.6 43.5 342.403 43.5 342.207 43.5C342.01 43.5 341.813 43.5 341.615 43.5C341.418 43.5 341.22 43.5 341.021 43.5C340.823 43.5 340.624 43.5 340.425 43.5C340.226 43.5 340.026 43.5 339.826 43.5C339.626 43.5 339.425 43.5 339.224 43.5C339.024 43.5 338.822 43.5 338.621 43.5C338.419 43.5 338.217 43.5 338.014 43.5C337.811 43.5 337.608 43.5 337.405 43.5C337.202 43.5 336.998 43.5 336.794 43.5C336.589 43.5 336.385 43.5 336.18 43.5C335.974 43.5 335.769 43.5 335.563 43.5C335.357 43.5 335.151 43.5 334.944 43.5C334.737 43.5 334.53 43.5 334.322 43.5C334.115 43.5 333.907 43.5 333.698 43.5C333.49 43.5 333.281 43.5 333.072 43.5C332.862 43.5 332.653 43.5 332.443 43.5C332.232 43.5 332.022 43.5 331.811 43.5C331.6 43.5 331.389 43.5 331.177 43.5C330.965 43.5 330.753 43.5 330.54 43.5C330.327 43.5 330.114 43.5 329.901 43.5C329.687 43.5 329.473 43.5 329.259 43.5C329.045 43.5 328.83 43.5 328.615 43.5C328.399 43.5 328.184 43.5 327.968 43.5C327.752 43.5 327.535 43.5 327.318 43.5C327.101 43.5 326.884 43.5 326.666 43.5C326.448 43.5 326.23 43.5 326.012 43.5C325.793 43.5 325.574 43.5 325.355 43.5C325.135 43.5 324.915 43.5 324.695 43.5C324.475 43.5 324.254 43.5 324.033 43.5C323.811 43.5 323.59 43.5 323.368 43.5C323.146 43.5 322.923 43.5 322.701 43.5C322.478 43.5 322.254 43.5 322.031 43.5C321.807 43.5 321.583 43.5 321.358 43.5C321.134 43.5 320.909 43.5 320.683 43.5C320.458 43.5 320.232 43.5 320.006 43.5C319.779 43.5 319.553 43.5 319.325 43.5C319.098 43.5 318.871 43.5 318.643 43.5C318.415 43.5 318.186 43.5 317.957 43.5C317.728 43.5 317.499 43.5 317.269 43.5C317.04 43.5 316.81 43.5 316.579 43.5C316.348 43.5 316.117 43.5 315.886 43.5C315.654 43.5 315.423 43.5 315.19 43.5C314.958 43.5 314.725 43.5 314.492 43.5C314.259 43.5 314.025 43.5 313.791 43.5C313.557 43.5 313.323 43.5 313.088 43.5C312.853 43.5 312.618 43.5 312.382 43.5C312.146 43.5 311.91 43.5 311.673 43.5C311.436 43.5 311.199 43.5 310.962 43.5C310.724 43.5 310.486 43.5 310.248 43.5C310.01 43.5 309.771 43.5 309.532 43.5C309.292 43.5 309.053 43.5 308.813 43.5C308.573 43.5 308.332 43.5 308.091 43.5C307.85 43.5 307.609 43.5 307.367 43.5C307.125 43.5 306.883 43.5 306.64 43.5C306.397 43.5 306.154 43.5 305.91 43.5C305.667 43.5 305.423 43.5 305.178 43.5C304.934 43.5 304.689 43.5 304.444 43.5C304.198 43.5 303.953 43.5 303.706 43.5C303.46 43.5 303.213 43.5 302.966 43.5C302.719 43.5 302.472 43.5 302.224 43.5C301.976 43.5 301.727 43.5 301.479 43.5C301.23 43.5 300.981 43.5 300.731 43.5C300.481 43.5 300.231 43.5 299.98 43.5C299.73 43.5 299.479 43.5 299.227 43.5C298.976 43.5 298.724 43.5 298.471 43.5C298.219 43.5 297.966 43.5 297.713 43.5C297.46 43.5 297.206 43.5 296.952 43.5C296.698 43.5 296.443 43.5 296.188 43.5C295.933 43.5 295.678 43.5 295.422 43.5C295.166 43.5 294.91 43.5 294.653 43.5C294.396 43.5 294.139 43.5 293.882 43.5C293.624 43.5 293.366 43.5 293.107 43.5C292.849 43.5 292.59 43.5 292.33 43.5C292.071 43.5 291.811 43.5 291.551 43.5C291.291 43.5 291.03 43.5 290.769 43.5C290.507 43.5 290.246 43.5 289.984 43.5C289.722 43.5 289.459 43.5 289.196 43.5C288.933 43.5 288.67 43.5 288.406 43.5C288.142 43.5 287.878 43.5 287.613 43.5C287.348 43.5 287.083 43.5 286.818 43.5C286.552 43.5 286.286 43.5 286.019 43.5C285.753 43.5 285.486 43.5 285.218 43.5C284.951 43.5 284.683 43.5 284.415 43.5C284.147 43.5 283.878 43.5 283.609 43.5C283.339 43.5 283.07 43.5 282.8 43.5C282.53 43.5 282.259 43.5 281.988 43.5C281.717 43.5 281.446 43.5 281.174 43.5C280.902 43.5 280.63 43.5 280.357 43.5C280.084 43.5 279.811 43.5 279.537 43.5C279.263 43.5 278.989 43.5 278.715 43.5C278.44 43.5 278.165 43.5 277.89 43.5C277.614 43.5 277.338 43.5 277.062 43.5C276.786 43.5 276.509 43.5 276.231 43.5C275.954 43.5 275.676 43.5 275.398 43.5C275.12 43.5 274.841 43.5 274.562 43.5C274.283 43.5 274.004 43.5 273.724 43.5C273.444 43.5 273.163 43.5 272.883 43.5C272.602 43.5 272.32 43.5 272.039 43.5C271.757 43.5 271.475 43.5 271.192 43.5C270.909 43.5 270.626 43.5 270.342 43.5C270.059 43.5 269.775 43.5 269.49 43.5C269.206 43.5 268.921 43.5 268.635 43.5C268.35 43.5 268.064 43.5 267.778 43.5C267.492 43.5 267.205 43.5 266.918 43.5C266.63 43.5 266.343 43.5 266.055 43.5C265.766 43.5 265.478 43.5 265.189 43.5C264.9 43.5 264.61 43.5 264.32 43.5C264.03 43.5 263.74 43.5 263.449 43.5C263.158 43.5 262.867 43.5 262.575 43.5C262.283 43.5 261.991 43.5 261.699 43.5C261.406 43.5 261.113 43.5 260.819 43.5C260.526 43.5 260.231 43.5 259.937 43.5C259.642 43.5 259.347 43.5 259.052 43.5C258.757 43.5 258.461 43.5 258.164 43.5C257.868 43.5 257.571 43.5 257.274 43.5C256.977 43.5 256.679 43.5 256.381 43.5C256.083 43.5 255.784 43.5 255.485 43.5C255.186 43.5 254.886 43.5 254.586 43.5C254.286 43.5 253.986 43.5 253.685 43.5C253.384 43.5 253.083 43.5 252.781 43.5C252.479 43.5 252.177 43.5 251.874 43.5C251.571 43.5 251.268 43.5 250.964 43.5C250.66 43.5 250.356 43.5 250.052 43.5C249.747 43.5 249.442 43.5 249.136 43.5C248.831 43.5 248.525 43.5 248.218 43.5C247.912 43.5 247.605 43.5 247.298 43.5C246.99 43.5 246.682 43.5 246.374 43.5C246.066 43.5 245.757 43.5 245.448 43.5C245.139 43.5 244.829 43.5 244.519 43.5C244.209 43.5 243.898 43.5 243.587 43.5C243.276 43.5 242.964 43.5 242.652 43.5C242.34 43.5 242.028 43.5 241.715 43.5C241.402 43.5 241.088 43.5 240.775 43.5C240.461 43.5 240.146 43.5 239.832 43.5C239.517 43.5 239.201 43.5 238.886 43.5C238.57 43.5 238.254 43.5 237.937 43.5C237.62 43.5 237.303 43.5 236.986 43.5C236.668 43.5 236.35 43.5 236.032 43.5C235.713 43.5 235.394 43.5 235.075 43.5C234.755 43.5 234.435 43.5 234.115 43.5C233.794 43.5 233.474 43.5 233.152 43.5C232.831 43.5 232.509 43.5 232.187 43.5C231.864 43.5 231.542 43.5 231.219 43.5C230.895 43.5 230.572 43.5 230.247 43.5C229.923 43.5 229.599 43.5 229.274 43.5C228.949 43.5 228.623 43.5 228.297 43.5C227.971 43.5 227.644 43.5 227.318 43.5C226.991 43.5 226.663 43.5 226.335 43.5C226.007 43.5 225.679 43.5 225.35 43.5C225.021 43.5 224.692 43.5 224.362 43.5C224.032 43.5 223.702 43.5 223.371 43.5C223.041 43.5 222.709 43.5 222.378 43.5C222.046 43.5 221.714 43.5 221.381 43.5C221.049 43.5 220.716 43.5 220.382 43.5C220.048 43.5 219.714 43.5 219.38 43.5C219.045 43.5 218.71 43.5 218.375 43.5C218.04 43.5 217.704 43.5 217.367 43.5C217.031 43.5 216.694 43.5 216.357 43.5C216.019 43.5 215.681 43.5 215.343 43.5C215.005 43.5 214.666 43.5 214.327 43.5C213.988 43.5 213.648 43.5 213.308 43.5C212.967 43.5 212.627 43.5 212.286 43.5C211.944 43.5 211.603 43.5 211.261 43.5C210.919 43.5 210.576 43.5 210.233 43.5C209.89 43.5 209.546 43.5 209.202 43.5C208.858 43.5 208.514 43.5 208.169 43.5C207.824 43.5 207.479 43.5 207.133 43.5C206.787 43.5 206.44 43.5 206.093 43.5C205.747 43.5 205.399 43.5 205.051 43.5C204.704 43.5 204.355 43.5 204.006 43.5C203.658 43.5 203.308 43.5 202.959 43.5C202.609 43.5 202.259 43.5 201.908 43.5C201.557 43.5 201.206 43.5 200.854 43.5C200.503 43.5 200.151 43.5 199.798 43.5C199.445 43.5 199.092 43.5 198.739 43.5C198.385 43.5 198.031 43.5 197.677 43.5C197.322 43.5 196.967 43.5 196.612 43.5C196.256 43.5 195.9 43.5 195.544 43.5C195.187 43.5 194.83 43.5 194.473 43.5C194.115 43.5 193.757 43.5 193.399 43.5C193.041 43.5 192.682 43.5 192.322 43.5C191.963 43.5 191.603 43.5 191.243 43.5C190.883 43.5 190.522 43.5 190.16 43.5C189.799 43.5 189.437 43.5 189.075 43.5C188.713 43.5 188.35 43.5 187.987 43.5C187.624 43.5 187.26 43.5 186.896 43.5C186.532 43.5 186.167 43.5 185.802 43.5C185.437 43.5 185.071 43.5 184.705 43.5C184.339 43.5 183.972 43.5 183.605 43.5C183.238 43.5 182.87 43.5 182.502 43.5C182.134 43.5 181.766 43.5 181.397 43.5C181.027 43.5 180.658 43.5 180.288 43.5C179.918 43.5 179.547 43.5 179.176 43.5C178.805 43.5 178.434 43.5 178.062 43.5C177.69 43.5 177.318 43.5 176.945 43.5C176.572 43.5 176.198 43.5 175.824 43.5C175.45 43.5 175.076 43.5 174.701 43.5C174.326 43.5 173.951 43.5 173.575 43.5C173.199 43.5 172.823 43.5 172.446 43.5C172.069 43.5 171.692 43.5 171.314 43.5C170.936 43.5 170.558 43.5 170.179 43.5C169.8 43.5 169.421 43.5 169.041 43.5C168.661 43.5 168.281 43.5 167.9 43.5C167.519 43.5 167.138 43.5 166.756 43.5C166.375 43.5 165.992 43.5 165.61 43.5C165.227 43.5 164.844 43.5 164.46 43.5C164.076 43.5 163.692 43.5 163.307 43.5C162.923 43.5 162.537 43.5 162.152 43.5C161.766 43.5 161.38 43.5 160.993 43.5C160.606 43.5 160.219 43.5 159.832 43.5C159.444 43.5 159.056 43.5 158.667 43.5C158.279 43.5 157.889 43.5 157.5 43.5C157.11 43.5 156.72 43.5 156.329 43.5C155.939 43.5 155.548 43.5 155.156 43.5C154.764 43.5 154.372 43.5 153.98 43.5C153.587 43.5 153.194 43.5 152.8 43.5C152.407 43.5 152.013 43.5 151.618 43.5C151.224 43.5 150.828 43.5 150.433 43.5C150.037 43.5 149.641 43.5 149.245 43.5C148.848 43.5 148.451 43.5 148.053 43.5C147.656 43.5 147.258 43.5 146.859 43.5C146.461 43.5 146.062 43.5 145.662 43.5C145.263 43.5 144.862 43.5 144.462 43.5C144.061 43.5 143.66 43.5 143.259 43.5C142.857 43.5 142.455 43.5 142.053 43.5C141.65 43.5 141.247 43.5 140.844 43.5C140.44 43.5 140.036 43.5 139.631 43.5C139.227 43.5 138.822 43.5 138.416 43.5C138.011 43.5 137.605 43.5 137.198 43.5C136.792 43.5 136.385 43.5 135.977 43.5C135.569 43.5 135.161 43.5 134.753 43.5C134.344 43.5 133.935 43.5 133.526 43.5C133.116 43.5 132.706 43.5 132.296 43.5C131.885 43.5 131.474 43.5 131.062 43.5C130.651 43.5 130.239 43.5 129.826 43.5C129.414 43.5 129.001 43.5 128.587 43.5C128.174 43.5 127.759 43.5 127.345 43.5C126.93 43.5 126.515 43.5 126.1 43.5C125.684 43.5 125.268 43.5 124.851 43.5C124.435 43.5 124.018 43.5 123.6 43.5C123.183 43.5 122.764 43.5 122.346 43.5C121.927 43.5 121.508 43.5 121.089 43.5C120.669 43.5 120.249 43.5 119.828 43.5C119.408 43.5 118.986 43.5 118.565 43.5C118.143 43.5 117.721 43.5 117.298 43.5C116.876 43.5 116.453 43.5 116.029 43.5C115.605 43.5 115.181 43.5 114.756 43.5C114.332 43.5 113.907 43.5 113.481 43.5C113.055 43.5 112.629 43.5 112.202 43.5C111.776 43.5 111.348 43.5 110.921 43.5C110.493 43.5 110.065 43.5 109.636 43.5C109.207 43.5 108.778 43.5 108.348 43.5C107.918 43.5 107.488 43.5 107.057 43.5C106.627 43.5 106.195 43.5 105.764 43.5C105.332 43.5 104.9 43.5 104.467 43.5C104.034 43.5 103.601 43.5 103.167 43.5C102.733 43.5 102.299 43.5 101.864 43.5C101.429 43.5 100.994 43.5 100.558 43.5C100.122 43.5 99.6854 43.5 99.2485 43.5C98.8116 43.5 98.3742 43.5 97.9363 43.5C97.4984 43.5 97.0599 43.5 96.621 43.5C96.182 43.5 95.7426 43.5 95.3026 43.5C94.8626 43.5 94.4222 43.5 93.9812 43.5C93.5402 43.5 93.0987 43.5 92.6567 43.5C92.2146 43.5 91.7721 43.5 91.3291 43.5C90.886 43.5 90.4425 43.5 89.9984 43.5C89.5543 43.5 89.1097 43.5 88.6646 43.5C88.2195 43.5 87.7739 43.5 87.3278 43.5C86.8816 43.5 86.435 43.5 85.9878 43.5C85.5407 43.5 85.093 43.5 84.6448 43.5C84.1966 43.5 83.7479 43.5 83.2987 43.5C82.8495 43.5 82.3997 43.5 81.9495 43.5C81.4992 43.5 81.0484 43.5 80.5971 43.5C80.1459 43.5 79.694 43.5 79.2417 43.5C78.7894 43.5 78.3366 43.5 77.8832 43.5C77.4299 43.5 76.976 43.5 76.5216 43.5C76.0672 43.5 75.6123 43.5 75.1569 43.5C74.7014 43.5 74.2455 43.5 73.789 43.5C73.3326 43.5 72.8756 43.5 72.4181 43.5C71.9606 43.5 71.5026 43.5 71.044 43.5C70.5855 43.5 70.1264 43.5 69.6668 43.5C69.2073 43.5 68.7472 43.5 68.2866 43.5C67.8259 43.5 67.3648 43.5 66.9031 43.5C66.4415 43.5 65.9793 43.5 65.5166 43.5C65.0539 43.5 64.5907 43.5 64.127 43.5C63.6632 43.5 63.199 43.5 62.7342 43.5C62.2694 43.5 61.8041 43.5 61.3383 43.5C60.8724 43.5 60.4061 43.5 59.9392 43.5C59.4723 43.5 59.005 43.5 58.537 43.5C58.0691 43.5 57.6007 43.5 57.1317 43.5C56.6628 43.5 56.1933 43.5 55.7233 43.5C55.2533 43.5 54.7827 43.5 54.3117 43.5C53.8406 43.5 53.3691 43.5 52.897 43.5C52.4249 43.5 51.9522 43.5 51.4791 43.5C51.0059 43.5 50.5323 43.5 50.0581 43.5C49.5839 43.5 49.1092 43.5 48.6339 43.5C48.1587 43.5 47.6829 43.5 47.2066 43.5C46.7303 43.5 46.2535 43.5 45.7761 43.5C45.2988 43.5 44.8209 43.5 44.3425 43.5C43.8641 43.5 43.3852 43.5 42.9057 43.5C42.4262 43.5 41.9463 43.5 41.4658 43.5C40.9853 43.5 40.5042 43.5 40.0227 43.5C39.5411 43.5 39.059 43.5 38.5764 43.5C38.0938 43.5 37.6106 43.5 37.127 43.5C36.6433 43.5 36.1591 43.5 35.6744 43.5C35.1896 43.5 34.7044 43.5 34.2186 43.5C33.7328 43.5 33.2465 43.5 32.7596 43.5C32.2728 43.5 31.7854 43.5 31.2975 43.5C30.8096 43.5 30.3212 43.5 29.8322 43.5C29.3432 43.5 28.8538 43.5 28.3637 43.5C27.8737 43.5 27.3832 43.5 26.8921 43.5C26.401 43.5 25.9094 43.5 25.4172 43.5C24.9251 43.5 24.4324 43.5 23.9392 43.5C23.446 43.5 22.9523 43.5 22.458 43.5C21.9637 43.5 21.4689 43.5 20.9736 43.5C20.4782 43.5 19.9824 43.5 19.486 43.5C18.9896 43.5 18.4926 43.5 17.9952 43.5C17.4977 43.5 16.9997 43.5 16.5012 43.5C16.0027 43.5 15.5036 43.5 15.004 43.5C14.5044 43.5 14.0043 43.5 13.5036 43.5C13.0029 43.5 12.5017 43.5 12 43.5L12 46.5Z" fill="#2F2F2F"/>
<path d="M12 36L3 45L12 54L21 45L12 36Z" stroke="#3D69C2" stroke-linecap="round" stroke-linejoin="round"/>
<path d="M7.5 45L12 40.5L16.5 45L12 49.5L7.5 45Z" fill="white"/>
<path d="M12 36L3 45L12 54L21 45L12 36Z" stroke="#55BF81" stroke-linecap="round" stroke-linejoin="round"/>
<path d="M7.00151 45L12.0008 40.0008L17 45L12.0008 49.9992L7.00151 45Z" fill="white"/>
<path d="M407 45L412 40L417 45L412 50L407 45Z" fill="white"/>
</svg>
