<svg width="446" height="220" viewBox="0 0 446 220" fill="none" xmlns="http://www.w3.org/2000/svg">
<path d="M222 104L297 104" stroke="black"/>
<ellipse cx="222.5" cy="103.5" rx="4.5" ry="4.5" transform="rotate(-180 222.5 103.5)" fill="#CADEFC" stroke="black"/>
<ellipse cx="296.5" cy="103.5" rx="4.5" ry="4.5" transform="rotate(-180 296.5 103.5)" fill="#CADEFC" stroke="black"/>
<path d="M240.156 98.1C239.469 98.1 238.919 97.89 238.506 97.47C238.099 97.0433 237.876 96.4633 237.836 95.73L237.826 95.39L237.836 95.06C237.883 94.34 238.109 93.7667 238.516 93.34C238.929 92.9133 239.473 92.7 240.146 92.7C240.886 92.7 241.459 92.9367 241.866 93.41C242.273 93.8767 242.476 94.51 242.476 95.31V95.48C242.476 95.5467 242.453 95.6033 242.406 95.65C242.366 95.69 242.313 95.71 242.246 95.71H238.786V95.8C238.806 96.2333 238.936 96.6033 239.176 96.91C239.423 97.21 239.746 97.36 240.146 97.36C240.453 97.36 240.703 97.3 240.896 97.18C241.096 97.0533 241.243 96.9233 241.336 96.79C241.396 96.71 241.439 96.6633 241.466 96.65C241.499 96.63 241.556 96.62 241.636 96.62H242.126C242.186 96.62 242.236 96.6367 242.276 96.67C242.316 96.7033 242.336 96.75 242.336 96.81C242.336 96.9567 242.243 97.1333 242.056 97.34C241.876 97.5467 241.619 97.7267 241.286 97.88C240.959 98.0267 240.583 98.1 240.156 98.1ZM241.526 95.02V94.99C241.526 94.53 241.399 94.1567 241.146 93.87C240.899 93.5767 240.566 93.43 240.146 93.43C239.726 93.43 239.393 93.5767 239.146 93.87C238.906 94.1567 238.786 94.53 238.786 94.99V95.02H241.526ZM243.912 98C243.845 98 243.788 97.98 243.742 97.94C243.702 97.8933 243.682 97.8367 243.682 97.77V91.13C243.682 91.0633 243.702 91.01 243.742 90.97C243.788 90.9233 243.845 90.9 243.912 90.9H244.382C244.448 90.9 244.502 90.9233 244.542 90.97C244.588 91.01 244.612 91.0633 244.612 91.13V97.77C244.612 97.8367 244.588 97.8933 244.542 97.94C244.502 97.98 244.448 98 244.382 98H243.912ZM248.183 98.1C247.497 98.1 246.947 97.89 246.533 97.47C246.127 97.0433 245.903 96.4633 245.863 95.73L245.853 95.39L245.863 95.06C245.91 94.34 246.137 93.7667 246.543 93.34C246.957 92.9133 247.5 92.7 248.173 92.7C248.913 92.7 249.487 92.9367 249.893 93.41C250.3 93.8767 250.503 94.51 250.503 95.31V95.48C250.503 95.5467 250.48 95.6033 250.433 95.65C250.393 95.69 250.34 95.71 250.273 95.71H246.813V95.8C246.833 96.2333 246.963 96.6033 247.203 96.91C247.45 97.21 247.773 97.36 248.173 97.36C248.48 97.36 248.73 97.3 248.923 97.18C249.123 97.0533 249.27 96.9233 249.363 96.79C249.423 96.71 249.467 96.6633 249.493 96.65C249.527 96.63 249.583 96.62 249.663 96.62H250.153C250.213 96.62 250.263 96.6367 250.303 96.67C250.343 96.7033 250.363 96.75 250.363 96.81C250.363 96.9567 250.27 97.1333 250.083 97.34C249.903 97.5467 249.647 97.7267 249.313 97.88C248.987 98.0267 248.61 98.1 248.183 98.1ZM249.553 95.02V94.99C249.553 94.53 249.427 94.1567 249.173 93.87C248.927 93.5767 248.593 93.43 248.173 93.43C247.753 93.43 247.42 93.5767 247.173 93.87C246.933 94.1567 246.813 94.53 246.813 94.99V95.02H249.553ZM251.929 98C251.862 98 251.806 97.98 251.759 97.94C251.719 97.8933 251.699 97.8367 251.699 97.77V93.03C251.699 92.9633 251.719 92.91 251.759 92.87C251.806 92.8233 251.862 92.8 251.929 92.8H252.379C252.446 92.8 252.499 92.8233 252.539 92.87C252.586 92.91 252.609 92.9633 252.609 93.03V93.38C252.956 92.9267 253.439 92.7 254.059 92.7C254.799 92.7 255.322 93.0067 255.629 93.62C255.789 93.34 256.016 93.1167 256.309 92.95C256.602 92.7833 256.932 92.7 257.299 92.7C257.846 92.7 258.292 92.8867 258.639 93.26C258.986 93.6333 259.159 94.1733 259.159 94.88V97.77C259.159 97.8367 259.136 97.8933 259.089 97.94C259.049 97.98 258.996 98 258.929 98H258.459C258.392 98 258.336 97.98 258.289 97.94C258.249 97.8933 258.229 97.8367 258.229 97.77V94.97C258.229 94.45 258.119 94.0767 257.899 93.85C257.686 93.6233 257.402 93.51 257.049 93.51C256.736 93.51 256.466 93.6267 256.239 93.86C256.012 94.0867 255.899 94.4567 255.899 94.97V97.77C255.899 97.8367 255.876 97.8933 255.829 97.94C255.789 97.98 255.736 98 255.669 98H255.199C255.132 98 255.076 97.98 255.029 97.94C254.989 97.8933 254.969 97.8367 254.969 97.77V94.97C254.969 94.45 254.856 94.0767 254.629 93.85C254.409 93.6233 254.129 93.51 253.789 93.51C253.476 93.51 253.206 93.6267 252.979 93.86C252.752 94.0867 252.639 94.4533 252.639 94.96V97.77C252.639 97.8367 252.616 97.8933 252.569 97.94C252.529 97.98 252.476 98 252.409 98H251.929ZM262.666 98.1C261.979 98.1 261.429 97.89 261.016 97.47C260.609 97.0433 260.386 96.4633 260.346 95.73L260.336 95.39L260.346 95.06C260.392 94.34 260.619 93.7667 261.026 93.34C261.439 92.9133 261.982 92.7 262.656 92.7C263.396 92.7 263.969 92.9367 264.376 93.41C264.782 93.8767 264.986 94.51 264.986 95.31V95.48C264.986 95.5467 264.962 95.6033 264.916 95.65C264.876 95.69 264.822 95.71 264.756 95.71H261.296V95.8C261.316 96.2333 261.446 96.6033 261.686 96.91C261.932 97.21 262.256 97.36 262.656 97.36C262.962 97.36 263.212 97.3 263.406 97.18C263.606 97.0533 263.752 96.9233 263.846 96.79C263.906 96.71 263.949 96.6633 263.976 96.65C264.009 96.63 264.066 96.62 264.146 96.62H264.636C264.696 96.62 264.746 96.6367 264.786 96.67C264.826 96.7033 264.846 96.75 264.846 96.81C264.846 96.9567 264.752 97.1333 264.566 97.34C264.386 97.5467 264.129 97.7267 263.796 97.88C263.469 98.0267 263.092 98.1 262.666 98.1ZM264.036 95.02V94.99C264.036 94.53 263.909 94.1567 263.656 93.87C263.409 93.5767 263.076 93.43 262.656 93.43C262.236 93.43 261.902 93.5767 261.656 93.87C261.416 94.1567 261.296 94.53 261.296 94.99V95.02H264.036ZM266.411 98C266.345 98 266.288 97.98 266.241 97.94C266.201 97.8933 266.181 97.8367 266.181 97.77V93.03C266.181 92.9633 266.201 92.91 266.241 92.87C266.288 92.8233 266.345 92.8 266.411 92.8H266.881C266.948 92.8 267.001 92.8233 267.041 92.87C267.088 92.91 267.111 92.9633 267.111 93.03V93.47C267.305 93.2233 267.531 93.0333 267.791 92.9C268.058 92.7667 268.388 92.7 268.781 92.7C269.421 92.7 269.918 92.9067 270.271 93.32C270.631 93.7267 270.811 94.27 270.811 94.95V97.77C270.811 97.8367 270.788 97.8933 270.741 97.94C270.701 97.98 270.648 98 270.581 98H270.081C270.015 98 269.958 97.98 269.911 97.94C269.871 97.8933 269.851 97.8367 269.851 97.77V95C269.851 94.5267 269.735 94.16 269.501 93.9C269.275 93.64 268.945 93.51 268.511 93.51C268.091 93.51 267.758 93.6433 267.511 93.91C267.265 94.17 267.141 94.5333 267.141 95V97.77C267.141 97.8367 267.118 97.8933 267.071 97.94C267.031 97.98 266.978 98 266.911 98H266.411ZM274.208 98C273.154 98 272.628 97.4133 272.628 96.24V93.6H271.848C271.781 93.6 271.724 93.58 271.678 93.54C271.638 93.4933 271.618 93.4367 271.618 93.37V93.03C271.618 92.9633 271.638 92.91 271.678 92.87C271.724 92.8233 271.781 92.8 271.848 92.8H272.628V91.13C272.628 91.0633 272.648 91.01 272.688 90.97C272.734 90.9233 272.791 90.9 272.858 90.9H273.328C273.394 90.9 273.448 90.9233 273.488 90.97C273.534 91.01 273.558 91.0633 273.558 91.13V92.8H274.798C274.864 92.8 274.918 92.8233 274.958 92.87C275.004 92.91 275.028 92.9633 275.028 93.03V93.37C275.028 93.4367 275.004 93.4933 274.958 93.54C274.918 93.58 274.864 93.6 274.798 93.6H273.558V96.17C273.558 96.5033 273.614 96.7567 273.728 96.93C273.841 97.0967 274.028 97.18 274.288 97.18H274.898C274.964 97.18 275.018 97.2033 275.058 97.25C275.104 97.29 275.128 97.3433 275.128 97.41V97.77C275.128 97.8367 275.104 97.8933 275.058 97.94C275.018 97.98 274.964 98 274.898 98H274.208ZM278.515 98C278.448 98 278.392 97.98 278.345 97.94C278.305 97.8933 278.285 97.8367 278.285 97.77V97.45C278.285 97.2967 278.368 97.15 278.535 97.01L280.655 94.89C281.168 94.4633 281.522 94.1167 281.715 93.85C281.908 93.5767 282.005 93.29 282.005 92.99C282.005 92.6033 281.895 92.3 281.675 92.08C281.462 91.86 281.148 91.75 280.735 91.75C280.348 91.75 280.038 91.8667 279.805 92.1C279.572 92.3267 279.428 92.63 279.375 93.01C279.362 93.09 279.328 93.15 279.275 93.19C279.228 93.2233 279.175 93.24 279.115 93.24H278.595C278.535 93.24 278.485 93.2233 278.445 93.19C278.405 93.15 278.385 93.1033 278.385 93.05C278.398 92.69 278.495 92.3467 278.675 92.02C278.855 91.6867 279.118 91.4167 279.465 91.21C279.818 90.9967 280.242 90.89 280.735 90.89C281.488 90.89 282.055 91.0867 282.435 91.48C282.822 91.8667 283.015 92.36 283.015 92.96C283.015 93.38 282.908 93.76 282.695 94.1C282.488 94.4333 282.165 94.7933 281.725 95.18L279.805 97.13H282.925C282.998 97.13 283.055 97.1533 283.095 97.2C283.142 97.24 283.165 97.2933 283.165 97.36V97.77C283.165 97.8367 283.142 97.8933 283.095 97.94C283.048 97.98 282.992 98 282.925 98H278.515Z" fill="#4E4E4E"/>
<path d="M338.921 109.365C338.774 109.365 338.657 109.321 338.569 109.233C338.481 109.145 338.437 109.028 338.437 108.881V99.2015H336.479C336.332 99.2015 336.215 99.1575 336.127 99.0695C336.039 98.9815 335.995 98.8641 335.995 98.7175V98.4095C335.995 98.2628 336.039 98.1455 336.127 98.0575C336.215 97.9695 336.332 97.9255 336.479 97.9255H338.437V96.6715C338.437 95.5568 338.679 94.6841 339.163 94.0535C339.647 93.4081 340.512 93.0855 341.759 93.0855H342.903C343.05 93.0855 343.167 93.1295 343.255 93.2175C343.343 93.3055 343.387 93.4228 343.387 93.5695V93.8775C343.387 94.0241 343.343 94.1415 343.255 94.2295C343.167 94.3175 343.05 94.3615 342.903 94.3615H341.759C341.011 94.3615 340.49 94.5595 340.197 94.9555C339.918 95.3368 339.779 95.9455 339.779 96.7815V97.9255H342.683C342.83 97.9255 342.947 97.9695 343.035 98.0575C343.123 98.1455 343.167 98.2628 343.167 98.4095V98.7175C343.167 98.8641 343.123 98.9815 343.035 99.0695C342.947 99.1575 342.83 99.2015 342.683 99.2015H339.779V108.881C339.779 109.028 339.735 109.145 339.647 109.233C339.559 109.321 339.442 109.365 339.295 109.365H338.921ZM344.671 113.105C344.524 113.105 344.407 113.061 344.319 112.973C344.231 112.885 344.187 112.768 344.187 112.621V112.247C344.187 112.13 344.223 112.013 344.297 111.895C344.37 111.793 344.509 111.668 344.715 111.521L345.793 110.751C346.599 110.165 347.171 109.732 347.509 109.453C347.861 109.189 348.125 108.925 348.301 108.661C348.491 108.383 348.587 108.075 348.587 107.737C348.587 107.371 348.447 107.077 348.169 106.857C347.89 106.623 347.553 106.505 347.157 106.505C346.702 106.505 346.372 106.586 346.167 106.747C345.976 106.909 345.851 107.055 345.793 107.187C345.719 107.334 345.675 107.422 345.661 107.451C345.573 107.613 345.492 107.723 345.419 107.781C345.345 107.825 345.25 107.847 345.133 107.847H344.803C344.539 107.847 344.407 107.723 344.407 107.473C344.407 107.136 344.531 106.799 344.781 106.461C345.03 106.109 345.367 105.831 345.793 105.625C346.218 105.405 346.673 105.295 347.157 105.295C347.963 105.295 348.616 105.537 349.115 106.021C349.613 106.505 349.863 107.077 349.863 107.737C349.863 108.265 349.745 108.735 349.511 109.145C349.291 109.541 348.946 109.93 348.477 110.311C348.022 110.693 347.318 111.213 346.365 111.873H349.709C349.855 111.873 349.973 111.917 350.061 112.005C350.149 112.093 350.193 112.211 350.193 112.357V112.621C350.193 112.768 350.149 112.885 350.061 112.973C349.973 113.061 349.855 113.105 349.709 113.105H344.671ZM352.04 113.105C351.893 113.105 351.776 113.061 351.688 112.973C351.6 112.885 351.556 112.768 351.556 112.621V112.247C351.556 112.13 351.593 112.013 351.666 111.895C351.739 111.793 351.879 111.668 352.084 111.521L353.162 110.751C353.969 110.165 354.541 109.732 354.878 109.453C355.23 109.189 355.494 108.925 355.67 108.661C355.861 108.383 355.956 108.075 355.956 107.737C355.956 107.371 355.817 107.077 355.538 106.857C355.259 106.623 354.922 106.505 354.526 106.505C354.071 106.505 353.741 106.586 353.536 106.747C353.345 106.909 353.221 107.055 353.162 107.187C353.089 107.334 353.045 107.422 353.03 107.451C352.942 107.613 352.861 107.723 352.788 107.781C352.715 107.825 352.619 107.847 352.502 107.847H352.172C351.908 107.847 351.776 107.723 351.776 107.473C351.776 107.136 351.901 106.799 352.15 106.461C352.399 106.109 352.737 105.831 353.162 105.625C353.587 105.405 354.042 105.295 354.526 105.295C355.333 105.295 355.985 105.537 356.484 106.021C356.983 106.505 357.232 107.077 357.232 107.737C357.232 108.265 357.115 108.735 356.88 109.145C356.66 109.541 356.315 109.93 355.846 110.311C355.391 110.693 354.687 111.213 353.734 111.873H357.078C357.225 111.873 357.342 111.917 357.43 112.005C357.518 112.093 357.562 112.211 357.562 112.357V112.621C357.562 112.768 357.518 112.885 357.43 112.973C357.342 113.061 357.225 113.105 357.078 113.105H352.04Z" fill="#4E4E4E"/>
<path d="M319.146 114.031L324.276 116.679L324.004 110.912L319.146 114.031ZM322.758 88.4914C328.472 89.565 331.078 94.9317 331.001 100.594C330.962 103.412 330.253 106.246 328.961 108.554C327.67 110.861 325.814 112.615 323.492 113.341L323.79 114.296C326.418 113.474 328.453 111.51 329.834 109.042C331.215 106.574 331.96 103.574 332.001 100.608C332.081 94.7048 329.342 88.7108 322.943 87.5086L322.758 88.4914Z" fill="#4E4E4E"/>
<path d="M297 117L294.113 122H299.887L297 117ZM297.5 147V121.5H296.5V147H297.5Z" fill="#4E4E4E"/>
<path d="M222 117L219.113 122L224.887 122L222 117ZM222.5 147L222.5 121.5L221.5 121.5L221.5 147L222.5 147Z" fill="#4E4E4E"/>
<path d="M304.15 144C304.003 144 303.886 143.956 303.798 143.868C303.71 143.78 303.666 143.663 303.666 143.516V133.836H301.708C301.561 133.836 301.444 133.792 301.356 133.704C301.268 133.616 301.224 133.499 301.224 133.352V133.044C301.224 132.897 301.268 132.78 301.356 132.692C301.444 132.604 301.561 132.56 301.708 132.56H303.666V131.306C303.666 130.191 303.908 129.319 304.392 128.688C304.876 128.043 305.741 127.72 306.988 127.72H308.132C308.278 127.72 308.396 127.764 308.484 127.852C308.572 127.94 308.616 128.057 308.616 128.204V128.512C308.616 128.659 308.572 128.776 308.484 128.864C308.396 128.952 308.278 128.996 308.132 128.996H306.988C306.24 128.996 305.719 129.194 305.426 129.59C305.147 129.971 305.008 130.58 305.008 131.416V132.56H307.912C308.058 132.56 308.176 132.604 308.264 132.692C308.352 132.78 308.396 132.897 308.396 133.044V133.352C308.396 133.499 308.352 133.616 308.264 133.704C308.176 133.792 308.058 133.836 307.912 133.836H305.008V143.516C305.008 143.663 304.964 143.78 304.876 143.868C304.788 143.956 304.67 144 304.524 144H304.15ZM309.899 147.74C309.753 147.74 309.635 147.696 309.547 147.608C309.459 147.52 309.415 147.403 309.415 147.256V146.882C309.415 146.765 309.452 146.647 309.525 146.53C309.599 146.427 309.738 146.303 309.943 146.156L311.021 145.386C311.828 144.799 312.4 144.367 312.737 144.088C313.089 143.824 313.353 143.56 313.529 143.296C313.72 143.017 313.815 142.709 313.815 142.372C313.815 142.005 313.676 141.712 313.397 141.492C313.119 141.257 312.781 141.14 312.385 141.14C311.931 141.14 311.601 141.221 311.395 141.382C311.205 141.543 311.08 141.69 311.021 141.822C310.948 141.969 310.904 142.057 310.889 142.086C310.801 142.247 310.721 142.357 310.647 142.416C310.574 142.46 310.479 142.482 310.361 142.482H310.031C309.767 142.482 309.635 142.357 309.635 142.108C309.635 141.771 309.76 141.433 310.009 141.096C310.259 140.744 310.596 140.465 311.021 140.26C311.447 140.04 311.901 139.93 312.385 139.93C313.192 139.93 313.845 140.172 314.343 140.656C314.842 141.14 315.091 141.712 315.091 142.372C315.091 142.9 314.974 143.369 314.739 143.78C314.519 144.176 314.175 144.565 313.705 144.946C313.251 145.327 312.547 145.848 311.593 146.508H314.937C315.084 146.508 315.201 146.552 315.289 146.64C315.377 146.728 315.421 146.845 315.421 146.992V147.256C315.421 147.403 315.377 147.52 315.289 147.608C315.201 147.696 315.084 147.74 314.937 147.74H309.899ZM319.315 147.74C319.168 147.74 319.051 147.696 318.963 147.608C318.875 147.52 318.831 147.403 318.831 147.256V141.734L317.445 142.768C317.371 142.827 317.276 142.856 317.159 142.856C317.012 142.856 316.88 142.79 316.763 142.658L316.609 142.438C316.535 142.335 316.499 142.233 316.499 142.13C316.499 141.983 316.565 141.859 316.697 141.756L318.809 140.194C318.955 140.091 319.124 140.04 319.315 140.04H319.623C319.769 140.04 319.887 140.084 319.975 140.172C320.063 140.26 320.107 140.377 320.107 140.524V147.256C320.107 147.403 320.063 147.52 319.975 147.608C319.887 147.696 319.769 147.74 319.623 147.74H319.315Z" fill="#4E4E4E"/>
<path d="M172.15 109.366C172.003 109.366 171.886 109.322 171.798 109.234C171.71 109.146 171.666 109.028 171.666 108.882V99.2016H169.708C169.561 99.2016 169.444 99.1576 169.356 99.0696C169.268 98.9816 169.224 98.8643 169.224 98.7176V98.4096C169.224 98.2629 169.268 98.1456 169.356 98.0576C169.444 97.9696 169.561 97.9256 169.708 97.9256H171.666V96.6716C171.666 95.5569 171.908 94.6843 172.392 94.0536C172.876 93.4083 173.741 93.0856 174.988 93.0856H176.132C176.278 93.0856 176.396 93.1296 176.484 93.2176C176.572 93.3056 176.616 93.4229 176.616 93.5696V93.8776C176.616 94.0243 176.572 94.1416 176.484 94.2296C176.396 94.3176 176.278 94.3616 176.132 94.3616H174.988C174.24 94.3616 173.719 94.5596 173.426 94.9556C173.147 95.3369 173.008 95.9456 173.008 96.7816V97.9256H175.912C176.058 97.9256 176.176 97.9696 176.264 98.0576C176.352 98.1456 176.396 98.2629 176.396 98.4096V98.7176C176.396 98.8643 176.352 98.9816 176.264 99.0696C176.176 99.1576 176.058 99.2016 175.912 99.2016H173.008V108.882C173.008 109.028 172.964 109.146 172.876 109.234C172.788 109.322 172.67 109.366 172.524 109.366H172.15ZM179.945 113.106C179.799 113.106 179.681 113.062 179.593 112.974C179.505 112.886 179.461 112.768 179.461 112.622V107.1L178.075 108.134C178.002 108.192 177.907 108.222 177.789 108.222C177.643 108.222 177.511 108.156 177.393 108.024L177.239 107.804C177.166 107.701 177.129 107.598 177.129 107.496C177.129 107.349 177.195 107.224 177.327 107.122L179.439 105.56C179.586 105.457 179.755 105.406 179.945 105.406H180.253C180.4 105.406 180.517 105.45 180.605 105.538C180.693 105.626 180.737 105.743 180.737 105.89V112.622C180.737 112.768 180.693 112.886 180.605 112.974C180.517 113.062 180.4 113.106 180.253 113.106H179.945ZM182.991 113.106C182.845 113.106 182.727 113.062 182.639 112.974C182.551 112.886 182.507 112.768 182.507 112.622V112.248C182.507 112.13 182.544 112.013 182.617 111.896C182.691 111.793 182.83 111.668 183.035 111.522L184.113 110.752C184.92 110.165 185.492 109.732 185.829 109.454C186.181 109.19 186.445 108.926 186.621 108.662C186.812 108.383 186.907 108.075 186.907 107.738C186.907 107.371 186.768 107.078 186.489 106.858C186.211 106.623 185.873 106.506 185.477 106.506C185.023 106.506 184.693 106.586 184.487 106.748C184.297 106.909 184.172 107.056 184.113 107.188C184.04 107.334 183.996 107.422 183.981 107.452C183.893 107.613 183.813 107.723 183.739 107.782C183.666 107.826 183.571 107.848 183.453 107.848H183.123C182.859 107.848 182.727 107.723 182.727 107.474C182.727 107.136 182.852 106.799 183.101 106.462C183.351 106.11 183.688 105.831 184.113 105.626C184.539 105.406 184.993 105.296 185.477 105.296C186.284 105.296 186.937 105.538 187.435 106.022C187.934 106.506 188.183 107.078 188.183 107.738C188.183 108.266 188.066 108.735 187.831 109.146C187.611 109.542 187.267 109.93 186.797 110.312C186.343 110.693 185.639 111.214 184.685 111.874H188.029C188.176 111.874 188.293 111.918 188.381 112.006C188.469 112.094 188.513 112.211 188.513 112.358V112.622C188.513 112.768 188.469 112.886 188.381 112.974C188.293 113.062 188.176 113.106 188.029 113.106H182.991Z" fill="#4E4E4E"/>
<path d="M230.288 144C230.142 144 230.024 143.956 229.936 143.868C229.848 143.78 229.804 143.663 229.804 143.516V133.836H227.846C227.7 133.836 227.582 133.792 227.494 133.704C227.406 133.616 227.362 133.499 227.362 133.352V133.044C227.362 132.897 227.406 132.78 227.494 132.692C227.582 132.604 227.7 132.56 227.846 132.56H229.804V131.306C229.804 130.191 230.046 129.319 230.53 128.688C231.014 128.043 231.88 127.72 233.126 127.72H234.27C234.417 127.72 234.534 127.764 234.622 127.852C234.71 127.94 234.754 128.057 234.754 128.204V128.512C234.754 128.659 234.71 128.776 234.622 128.864C234.534 128.952 234.417 128.996 234.27 128.996H233.126C232.378 128.996 231.858 129.194 231.564 129.59C231.286 129.971 231.146 130.58 231.146 131.416V132.56H234.05C234.197 132.56 234.314 132.604 234.402 132.692C234.49 132.78 234.534 132.897 234.534 133.044V133.352C234.534 133.499 234.49 133.616 234.402 133.704C234.314 133.792 234.197 133.836 234.05 133.836H231.146V143.516C231.146 143.663 231.102 143.78 231.014 143.868C230.926 143.956 230.809 144 230.662 144H230.288ZM238.084 147.74C237.937 147.74 237.82 147.696 237.732 147.608C237.644 147.52 237.6 147.403 237.6 147.256V141.734L236.214 142.768C236.141 142.827 236.045 142.856 235.928 142.856C235.781 142.856 235.649 142.79 235.532 142.658L235.378 142.438C235.305 142.335 235.268 142.233 235.268 142.13C235.268 141.983 235.334 141.859 235.466 141.756L237.578 140.194C237.725 140.091 237.893 140.04 238.084 140.04H238.392C238.539 140.04 238.656 140.084 238.744 140.172C238.832 140.26 238.876 140.377 238.876 140.524V147.256C238.876 147.403 238.832 147.52 238.744 147.608C238.656 147.696 238.539 147.74 238.392 147.74H238.084ZM243.176 147.74C243.029 147.74 242.912 147.696 242.824 147.608C242.736 147.52 242.692 147.403 242.692 147.256V141.734L241.306 142.768C241.233 142.827 241.137 142.856 241.02 142.856C240.873 142.856 240.741 142.79 240.624 142.658L240.47 142.438C240.397 142.335 240.36 142.233 240.36 142.13C240.36 141.983 240.426 141.859 240.558 141.756L242.67 140.194C242.817 140.091 242.985 140.04 243.176 140.04H243.484C243.631 140.04 243.748 140.084 243.836 140.172C243.924 140.26 243.968 140.377 243.968 140.524V147.256C243.968 147.403 243.924 147.52 243.836 147.608C243.748 147.696 243.631 147.74 243.484 147.74H243.176Z" fill="#4E4E4E"/>
<path d="M205.705 89.8347L200.575 87.1868L200.847 92.9539L205.705 89.8347ZM202.092 115.374C196.378 114.3 193.773 108.934 193.85 103.271C193.888 100.454 194.598 97.6198 195.889 95.3118C197.181 93.0042 199.036 91.2507 201.359 90.524L201.061 89.5696C198.433 90.3916 196.398 92.3554 195.017 94.8235C193.636 97.2913 192.891 100.292 192.85 103.257C192.769 109.161 195.509 115.155 201.908 116.357L202.092 115.374Z" fill="#4E4E4E"/>
</svg>
