<svg width="446" height="220" viewBox="0 0 446 220" fill="none" xmlns="http://www.w3.org/2000/svg">
<path d="M73 103L223 103" stroke="black"/>
<path d="M296 103L372 103" stroke="black"/>
<path d="M222 103L297 103" stroke="black"/>
<circle cx="72" cy="168" r="13.25" fill="#C4C4C4" fill-opacity="0.3" stroke="#888888" stroke-width="0.5"/>
<path d="M70.8508 174C70.7308 174 70.6288 173.964 70.5448 173.892C70.4728 173.808 70.4368 173.706 70.4368 173.586V163.506L67.4488 165.81C67.3648 165.882 67.2748 165.918 67.1788 165.918C67.0708 165.918 66.9688 165.858 66.8728 165.738L66.4048 165.144C66.3448 165.06 66.3148 164.976 66.3148 164.892C66.3148 164.748 66.3748 164.634 66.4948 164.55L70.4188 161.526C70.5508 161.442 70.7068 161.4 70.8868 161.4H71.8048C71.9248 161.4 72.0208 161.442 72.0928 161.526C72.1768 161.598 72.2188 161.694 72.2188 161.814V173.586C72.2188 173.706 72.1768 173.808 72.0928 173.892C72.0208 173.964 71.9248 174 71.8048 174H70.8508ZM75.202 174C75.082 174 74.98 173.964 74.896 173.892C74.824 173.808 74.788 173.706 74.788 173.586V172.29C74.788 172.17 74.824 172.074 74.896 172.002C74.98 171.918 75.082 171.876 75.202 171.876H76.498C76.618 171.876 76.72 171.918 76.804 172.002C76.888 172.074 76.93 172.17 76.93 172.29V173.586C76.93 173.706 76.888 173.808 76.804 173.892C76.72 173.964 76.618 174 76.498 174H75.202Z" fill="#4E4E4E"/>
<circle cx="222" cy="168" r="13.25" fill="#C4C4C4" fill-opacity="0.3" stroke="#888888" stroke-width="0.5"/>
<path d="M217.246 174C217.126 174 217.024 173.964 216.94 173.892C216.868 173.808 216.832 173.706 216.832 173.586V173.01C216.832 172.734 216.982 172.47 217.282 172.218L221.098 168.402C222.022 167.634 222.658 167.01 223.006 166.53C223.354 166.038 223.528 165.522 223.528 164.982C223.528 164.286 223.33 163.74 222.934 163.344C222.55 162.948 221.986 162.75 221.242 162.75C220.546 162.75 219.988 162.96 219.568 163.38C219.148 163.788 218.89 164.334 218.794 165.018C218.77 165.162 218.71 165.27 218.614 165.342C218.53 165.402 218.434 165.432 218.326 165.432H217.39C217.282 165.432 217.192 165.402 217.12 165.342C217.048 165.27 217.012 165.186 217.012 165.09C217.036 164.442 217.21 163.824 217.534 163.236C217.858 162.636 218.332 162.15 218.956 161.778C219.592 161.394 220.354 161.202 221.242 161.202C222.598 161.202 223.618 161.556 224.302 162.264C224.998 162.96 225.346 163.848 225.346 164.928C225.346 165.684 225.154 166.368 224.77 166.98C224.398 167.58 223.816 168.228 223.024 168.924L219.568 172.434H225.184C225.316 172.434 225.418 172.476 225.49 172.56C225.574 172.632 225.616 172.728 225.616 172.848V173.586C225.616 173.706 225.574 173.808 225.49 173.892C225.406 173.964 225.304 174 225.184 174H217.246ZM228.135 174C228.015 174 227.913 173.964 227.829 173.892C227.757 173.808 227.721 173.706 227.721 173.586V172.29C227.721 172.17 227.757 172.074 227.829 172.002C227.913 171.918 228.015 171.876 228.135 171.876H229.431C229.551 171.876 229.653 171.918 229.737 172.002C229.821 172.074 229.863 172.17 229.863 172.29V173.586C229.863 173.706 229.821 173.808 229.737 173.892C229.653 173.964 229.551 174 229.431 174H228.135Z" fill="#4E4E4E"/>
<circle cx="297" cy="168" r="13.25" fill="#C4C4C4" fill-opacity="0.3" stroke="#888888" stroke-width="0.5"/>
<path d="M296.191 174.18C295.243 174.18 294.421 174.03 293.725 173.73C293.041 173.418 292.519 173.016 292.159 172.524C291.811 172.032 291.625 171.516 291.601 170.976C291.601 170.868 291.637 170.784 291.709 170.724C291.781 170.652 291.871 170.616 291.979 170.616H292.861C293.113 170.616 293.281 170.748 293.365 171.012C293.521 171.612 293.857 172.038 294.373 172.29C294.889 172.53 295.495 172.65 296.191 172.65C297.043 172.65 297.721 172.452 298.225 172.056C298.729 171.648 298.981 171.066 298.981 170.31C298.981 168.858 298.099 168.132 296.335 168.132H294.625C294.505 168.132 294.403 168.096 294.319 168.024C294.247 167.94 294.211 167.838 294.211 167.718V167.232C294.211 167.064 294.277 166.902 294.409 166.746L297.901 162.93H292.591C292.471 162.93 292.369 162.894 292.285 162.822C292.213 162.738 292.177 162.636 292.177 162.516V161.832C292.177 161.712 292.213 161.61 292.285 161.526C292.369 161.442 292.471 161.4 292.591 161.4H299.773C299.905 161.4 300.007 161.442 300.079 161.526C300.163 161.598 300.205 161.7 300.205 161.832V162.48C300.205 162.624 300.139 162.762 300.007 162.894L296.533 166.764L296.821 166.782C298.045 166.818 299.011 167.136 299.719 167.736C300.427 168.336 300.781 169.212 300.781 170.364C300.781 171.144 300.583 171.822 300.187 172.398C299.791 172.974 299.245 173.418 298.549 173.73C297.853 174.03 297.067 174.18 296.191 174.18ZM303.258 174C303.138 174 303.036 173.964 302.952 173.892C302.88 173.808 302.844 173.706 302.844 173.586V172.29C302.844 172.17 302.88 172.074 302.952 172.002C303.036 171.918 303.138 171.876 303.258 171.876H304.554C304.674 171.876 304.776 171.918 304.86 172.002C304.944 172.074 304.986 172.17 304.986 172.29V173.586C304.986 173.706 304.944 173.808 304.86 173.892C304.776 173.964 304.674 174 304.554 174H303.258Z" fill="#4E4E4E"/>
<circle cx="373" cy="168" r="13.25" fill="#C4C4C4" fill-opacity="0.3" stroke="#888888" stroke-width="0.5"/>
<path d="M373.992 174C373.872 174 373.77 173.964 373.686 173.892C373.614 173.808 373.578 173.706 373.578 173.586V170.994H367.746C367.626 170.994 367.524 170.958 367.44 170.886C367.368 170.802 367.332 170.7 367.332 170.58V169.86C367.332 169.68 367.398 169.5 367.53 169.32L372.93 161.706C372.99 161.61 373.08 161.538 373.2 161.49C373.32 161.43 373.452 161.4 373.596 161.4H374.892C375.012 161.4 375.108 161.442 375.18 161.526C375.264 161.598 375.306 161.694 375.306 161.814V169.428H376.926C377.046 169.428 377.148 169.47 377.232 169.554C377.316 169.626 377.358 169.722 377.358 169.842V170.58C377.358 170.7 377.316 170.802 377.232 170.886C377.16 170.958 377.064 170.994 376.944 170.994H375.306V173.586C375.306 173.706 375.264 173.808 375.18 173.892C375.108 173.964 375.012 174 374.892 174H373.992ZM373.596 169.464V163.29L369.258 169.464H373.596ZM379.31 174C379.19 174 379.088 173.964 379.004 173.892C378.932 173.808 378.896 173.706 378.896 173.586V172.29C378.896 172.17 378.932 172.074 379.004 172.002C379.088 171.918 379.19 171.876 379.31 171.876H380.606C380.726 171.876 380.828 171.918 380.912 172.002C380.996 172.074 381.038 172.17 381.038 172.29V173.586C381.038 173.706 380.996 173.808 380.912 173.892C380.828 173.964 380.726 174 380.606 174H379.31Z" fill="#4E4E4E"/>
<ellipse cx="222.5" cy="102.5" rx="4.5" ry="4.5" transform="rotate(-180 222.5 102.5)" fill="#CADEFC" stroke="black"/>
<ellipse cx="296.5" cy="102.5" rx="4.5" ry="4.5" transform="rotate(-180 296.5 102.5)" fill="#CADEFC" stroke="black"/>
<ellipse cx="372.5" cy="102.5" rx="4.5" ry="4.5" transform="rotate(-180 372.5 102.5)" fill="#CADEFC" stroke="black"/>
<ellipse cx="72.5" cy="102.5" rx="4.5" ry="4.5" transform="rotate(-180 72.5 102.5)" fill="#CADEFC" stroke="black"/>
<path d="M126.952 115.1C126.265 115.1 125.715 114.89 125.302 114.47C124.895 114.043 124.672 113.463 124.632 112.73L124.622 112.39L124.632 112.06C124.679 111.34 124.905 110.767 125.312 110.34C125.725 109.913 126.269 109.7 126.942 109.7C127.682 109.7 128.255 109.937 128.662 110.41C129.069 110.877 129.272 111.51 129.272 112.31V112.48C129.272 112.547 129.249 112.603 129.202 112.65C129.162 112.69 129.109 112.71 129.042 112.71H125.582V112.8C125.602 113.233 125.732 113.603 125.972 113.91C126.219 114.21 126.542 114.36 126.942 114.36C127.249 114.36 127.499 114.3 127.692 114.18C127.892 114.053 128.039 113.923 128.132 113.79C128.192 113.71 128.235 113.663 128.262 113.65C128.295 113.63 128.352 113.62 128.432 113.62H128.922C128.982 113.62 129.032 113.637 129.072 113.67C129.112 113.703 129.132 113.75 129.132 113.81C129.132 113.957 129.039 114.133 128.852 114.34C128.672 114.547 128.415 114.727 128.082 114.88C127.755 115.027 127.379 115.1 126.952 115.1ZM128.322 112.02V111.99C128.322 111.53 128.195 111.157 127.942 110.87C127.695 110.577 127.362 110.43 126.942 110.43C126.522 110.43 126.189 110.577 125.942 110.87C125.702 111.157 125.582 111.53 125.582 111.99V112.02H128.322ZM130.708 115C130.641 115 130.584 114.98 130.538 114.94C130.498 114.893 130.478 114.837 130.478 114.77V108.13C130.478 108.063 130.498 108.01 130.538 107.97C130.584 107.923 130.641 107.9 130.708 107.9H131.178C131.244 107.9 131.298 107.923 131.338 107.97C131.384 108.01 131.408 108.063 131.408 108.13V114.77C131.408 114.837 131.384 114.893 131.338 114.94C131.298 114.98 131.244 115 131.178 115H130.708ZM134.979 115.1C134.293 115.1 133.743 114.89 133.329 114.47C132.923 114.043 132.699 113.463 132.659 112.73L132.649 112.39L132.659 112.06C132.706 111.34 132.933 110.767 133.339 110.34C133.753 109.913 134.296 109.7 134.969 109.7C135.709 109.7 136.283 109.937 136.689 110.41C137.096 110.877 137.299 111.51 137.299 112.31V112.48C137.299 112.547 137.276 112.603 137.229 112.65C137.189 112.69 137.136 112.71 137.069 112.71H133.609V112.8C133.629 113.233 133.759 113.603 133.999 113.91C134.246 114.21 134.569 114.36 134.969 114.36C135.276 114.36 135.526 114.3 135.719 114.18C135.919 114.053 136.066 113.923 136.159 113.79C136.219 113.71 136.263 113.663 136.289 113.65C136.323 113.63 136.379 113.62 136.459 113.62H136.949C137.009 113.62 137.059 113.637 137.099 113.67C137.139 113.703 137.159 113.75 137.159 113.81C137.159 113.957 137.066 114.133 136.879 114.34C136.699 114.547 136.443 114.727 136.109 114.88C135.783 115.027 135.406 115.1 134.979 115.1ZM136.349 112.02V111.99C136.349 111.53 136.223 111.157 135.969 110.87C135.723 110.577 135.389 110.43 134.969 110.43C134.549 110.43 134.216 110.577 133.969 110.87C133.729 111.157 133.609 111.53 133.609 111.99V112.02H136.349ZM138.725 115C138.658 115 138.602 114.98 138.555 114.94C138.515 114.893 138.495 114.837 138.495 114.77V110.03C138.495 109.963 138.515 109.91 138.555 109.87C138.602 109.823 138.658 109.8 138.725 109.8H139.175C139.242 109.8 139.295 109.823 139.335 109.87C139.382 109.91 139.405 109.963 139.405 110.03V110.38C139.752 109.927 140.235 109.7 140.855 109.7C141.595 109.7 142.118 110.007 142.425 110.62C142.585 110.34 142.812 110.117 143.105 109.95C143.398 109.783 143.728 109.7 144.095 109.7C144.642 109.7 145.088 109.887 145.435 110.26C145.782 110.633 145.955 111.173 145.955 111.88V114.77C145.955 114.837 145.932 114.893 145.885 114.94C145.845 114.98 145.792 115 145.725 115H145.255C145.188 115 145.132 114.98 145.085 114.94C145.045 114.893 145.025 114.837 145.025 114.77V111.97C145.025 111.45 144.915 111.077 144.695 110.85C144.482 110.623 144.198 110.51 143.845 110.51C143.532 110.51 143.262 110.627 143.035 110.86C142.808 111.087 142.695 111.457 142.695 111.97V114.77C142.695 114.837 142.672 114.893 142.625 114.94C142.585 114.98 142.532 115 142.465 115H141.995C141.928 115 141.872 114.98 141.825 114.94C141.785 114.893 141.765 114.837 141.765 114.77V111.97C141.765 111.45 141.652 111.077 141.425 110.85C141.205 110.623 140.925 110.51 140.585 110.51C140.272 110.51 140.002 110.627 139.775 110.86C139.548 111.087 139.435 111.453 139.435 111.96V114.77C139.435 114.837 139.412 114.893 139.365 114.94C139.325 114.98 139.272 115 139.205 115H138.725ZM149.462 115.1C148.775 115.1 148.225 114.89 147.812 114.47C147.405 114.043 147.182 113.463 147.142 112.73L147.132 112.39L147.142 112.06C147.188 111.34 147.415 110.767 147.822 110.34C148.235 109.913 148.778 109.7 149.452 109.7C150.192 109.7 150.765 109.937 151.172 110.41C151.578 110.877 151.782 111.51 151.782 112.31V112.48C151.782 112.547 151.758 112.603 151.712 112.65C151.672 112.69 151.618 112.71 151.552 112.71H148.092V112.8C148.112 113.233 148.242 113.603 148.482 113.91C148.728 114.21 149.052 114.36 149.452 114.36C149.758 114.36 150.008 114.3 150.202 114.18C150.402 114.053 150.548 113.923 150.642 113.79C150.702 113.71 150.745 113.663 150.772 113.65C150.805 113.63 150.862 113.62 150.942 113.62H151.432C151.492 113.62 151.542 113.637 151.582 113.67C151.622 113.703 151.642 113.75 151.642 113.81C151.642 113.957 151.548 114.133 151.362 114.34C151.182 114.547 150.925 114.727 150.592 114.88C150.265 115.027 149.888 115.1 149.462 115.1ZM150.832 112.02V111.99C150.832 111.53 150.705 111.157 150.452 110.87C150.205 110.577 149.872 110.43 149.452 110.43C149.032 110.43 148.698 110.577 148.452 110.87C148.212 111.157 148.092 111.53 148.092 111.99V112.02H150.832ZM153.207 115C153.141 115 153.084 114.98 153.037 114.94C152.997 114.893 152.977 114.837 152.977 114.77V110.03C152.977 109.963 152.997 109.91 153.037 109.87C153.084 109.823 153.141 109.8 153.207 109.8H153.677C153.744 109.8 153.797 109.823 153.837 109.87C153.884 109.91 153.907 109.963 153.907 110.03V110.47C154.101 110.223 154.327 110.033 154.587 109.9C154.854 109.767 155.184 109.7 155.577 109.7C156.217 109.7 156.714 109.907 157.067 110.32C157.427 110.727 157.607 111.27 157.607 111.95V114.77C157.607 114.837 157.584 114.893 157.537 114.94C157.497 114.98 157.444 115 157.377 115H156.877C156.811 115 156.754 114.98 156.707 114.94C156.667 114.893 156.647 114.837 156.647 114.77V112C156.647 111.527 156.531 111.16 156.297 110.9C156.071 110.64 155.741 110.51 155.307 110.51C154.887 110.51 154.554 110.643 154.307 110.91C154.061 111.17 153.937 111.533 153.937 112V114.77C153.937 114.837 153.914 114.893 153.867 114.94C153.827 114.98 153.774 115 153.707 115H153.207ZM161.003 115C159.95 115 159.423 114.413 159.423 113.24V110.6H158.643C158.577 110.6 158.52 110.58 158.473 110.54C158.433 110.493 158.413 110.437 158.413 110.37V110.03C158.413 109.963 158.433 109.91 158.473 109.87C158.52 109.823 158.577 109.8 158.643 109.8H159.423V108.13C159.423 108.063 159.443 108.01 159.483 107.97C159.53 107.923 159.587 107.9 159.653 107.9H160.123C160.19 107.9 160.243 107.923 160.283 107.97C160.33 108.01 160.353 108.063 160.353 108.13V109.8H161.593C161.66 109.8 161.713 109.823 161.753 109.87C161.8 109.91 161.823 109.963 161.823 110.03V110.37C161.823 110.437 161.8 110.493 161.753 110.54C161.713 110.58 161.66 110.6 161.593 110.6H160.353V113.17C160.353 113.503 160.41 113.757 160.523 113.93C160.637 114.097 160.823 114.18 161.083 114.18H161.693C161.76 114.18 161.813 114.203 161.853 114.25C161.9 114.29 161.923 114.343 161.923 114.41V114.77C161.923 114.837 161.9 114.893 161.853 114.94C161.813 114.98 161.76 115 161.693 115H161.003ZM167.351 115C167.284 115 167.227 114.98 167.181 114.94C167.141 114.893 167.121 114.837 167.121 114.77V109.17L165.461 110.45C165.414 110.49 165.364 110.51 165.311 110.51C165.251 110.51 165.194 110.477 165.141 110.41L164.881 110.08C164.847 110.033 164.831 109.987 164.831 109.94C164.831 109.86 164.864 109.797 164.931 109.75L167.111 108.07C167.184 108.023 167.271 108 167.371 108H167.881C167.947 108 168.001 108.023 168.041 108.07C168.087 108.11 168.111 108.163 168.111 108.23V114.77C168.111 114.837 168.087 114.893 168.041 114.94C168.001 114.98 167.947 115 167.881 115H167.351Z" fill="#4E4E4E"/>
<path d="M240.156 115.1C239.469 115.1 238.919 114.89 238.506 114.47C238.099 114.043 237.876 113.463 237.836 112.73L237.826 112.39L237.836 112.06C237.883 111.34 238.109 110.767 238.516 110.34C238.929 109.913 239.473 109.7 240.146 109.7C240.886 109.7 241.459 109.937 241.866 110.41C242.273 110.877 242.476 111.51 242.476 112.31V112.48C242.476 112.547 242.453 112.603 242.406 112.65C242.366 112.69 242.313 112.71 242.246 112.71H238.786V112.8C238.806 113.233 238.936 113.603 239.176 113.91C239.423 114.21 239.746 114.36 240.146 114.36C240.453 114.36 240.703 114.3 240.896 114.18C241.096 114.053 241.243 113.923 241.336 113.79C241.396 113.71 241.439 113.663 241.466 113.65C241.499 113.63 241.556 113.62 241.636 113.62H242.126C242.186 113.62 242.236 113.637 242.276 113.67C242.316 113.703 242.336 113.75 242.336 113.81C242.336 113.957 242.243 114.133 242.056 114.34C241.876 114.547 241.619 114.727 241.286 114.88C240.959 115.027 240.583 115.1 240.156 115.1ZM241.526 112.02V111.99C241.526 111.53 241.399 111.157 241.146 110.87C240.899 110.577 240.566 110.43 240.146 110.43C239.726 110.43 239.393 110.577 239.146 110.87C238.906 111.157 238.786 111.53 238.786 111.99V112.02H241.526ZM243.912 115C243.845 115 243.788 114.98 243.742 114.94C243.702 114.893 243.682 114.837 243.682 114.77V108.13C243.682 108.063 243.702 108.01 243.742 107.97C243.788 107.923 243.845 107.9 243.912 107.9H244.382C244.448 107.9 244.502 107.923 244.542 107.97C244.588 108.01 244.612 108.063 244.612 108.13V114.77C244.612 114.837 244.588 114.893 244.542 114.94C244.502 114.98 244.448 115 244.382 115H243.912ZM248.183 115.1C247.497 115.1 246.947 114.89 246.533 114.47C246.127 114.043 245.903 113.463 245.863 112.73L245.853 112.39L245.863 112.06C245.91 111.34 246.137 110.767 246.543 110.34C246.957 109.913 247.5 109.7 248.173 109.7C248.913 109.7 249.487 109.937 249.893 110.41C250.3 110.877 250.503 111.51 250.503 112.31V112.48C250.503 112.547 250.48 112.603 250.433 112.65C250.393 112.69 250.34 112.71 250.273 112.71H246.813V112.8C246.833 113.233 246.963 113.603 247.203 113.91C247.45 114.21 247.773 114.36 248.173 114.36C248.48 114.36 248.73 114.3 248.923 114.18C249.123 114.053 249.27 113.923 249.363 113.79C249.423 113.71 249.467 113.663 249.493 113.65C249.527 113.63 249.583 113.62 249.663 113.62H250.153C250.213 113.62 250.263 113.637 250.303 113.67C250.343 113.703 250.363 113.75 250.363 113.81C250.363 113.957 250.27 114.133 250.083 114.34C249.903 114.547 249.647 114.727 249.313 114.88C248.987 115.027 248.61 115.1 248.183 115.1ZM249.553 112.02V111.99C249.553 111.53 249.427 111.157 249.173 110.87C248.927 110.577 248.593 110.43 248.173 110.43C247.753 110.43 247.42 110.577 247.173 110.87C246.933 111.157 246.813 111.53 246.813 111.99V112.02H249.553ZM251.929 115C251.862 115 251.806 114.98 251.759 114.94C251.719 114.893 251.699 114.837 251.699 114.77V110.03C251.699 109.963 251.719 109.91 251.759 109.87C251.806 109.823 251.862 109.8 251.929 109.8H252.379C252.446 109.8 252.499 109.823 252.539 109.87C252.586 109.91 252.609 109.963 252.609 110.03V110.38C252.956 109.927 253.439 109.7 254.059 109.7C254.799 109.7 255.322 110.007 255.629 110.62C255.789 110.34 256.016 110.117 256.309 109.95C256.602 109.783 256.932 109.7 257.299 109.7C257.846 109.7 258.292 109.887 258.639 110.26C258.986 110.633 259.159 111.173 259.159 111.88V114.77C259.159 114.837 259.136 114.893 259.089 114.94C259.049 114.98 258.996 115 258.929 115H258.459C258.392 115 258.336 114.98 258.289 114.94C258.249 114.893 258.229 114.837 258.229 114.77V111.97C258.229 111.45 258.119 111.077 257.899 110.85C257.686 110.623 257.402 110.51 257.049 110.51C256.736 110.51 256.466 110.627 256.239 110.86C256.012 111.087 255.899 111.457 255.899 111.97V114.77C255.899 114.837 255.876 114.893 255.829 114.94C255.789 114.98 255.736 115 255.669 115H255.199C255.132 115 255.076 114.98 255.029 114.94C254.989 114.893 254.969 114.837 254.969 114.77V111.97C254.969 111.45 254.856 111.077 254.629 110.85C254.409 110.623 254.129 110.51 253.789 110.51C253.476 110.51 253.206 110.627 252.979 110.86C252.752 111.087 252.639 111.453 252.639 111.96V114.77C252.639 114.837 252.616 114.893 252.569 114.94C252.529 114.98 252.476 115 252.409 115H251.929ZM262.666 115.1C261.979 115.1 261.429 114.89 261.016 114.47C260.609 114.043 260.386 113.463 260.346 112.73L260.336 112.39L260.346 112.06C260.392 111.34 260.619 110.767 261.026 110.34C261.439 109.913 261.982 109.7 262.656 109.7C263.396 109.7 263.969 109.937 264.376 110.41C264.782 110.877 264.986 111.51 264.986 112.31V112.48C264.986 112.547 264.962 112.603 264.916 112.65C264.876 112.69 264.822 112.71 264.756 112.71H261.296V112.8C261.316 113.233 261.446 113.603 261.686 113.91C261.932 114.21 262.256 114.36 262.656 114.36C262.962 114.36 263.212 114.3 263.406 114.18C263.606 114.053 263.752 113.923 263.846 113.79C263.906 113.71 263.949 113.663 263.976 113.65C264.009 113.63 264.066 113.62 264.146 113.62H264.636C264.696 113.62 264.746 113.637 264.786 113.67C264.826 113.703 264.846 113.75 264.846 113.81C264.846 113.957 264.752 114.133 264.566 114.34C264.386 114.547 264.129 114.727 263.796 114.88C263.469 115.027 263.092 115.1 262.666 115.1ZM264.036 112.02V111.99C264.036 111.53 263.909 111.157 263.656 110.87C263.409 110.577 263.076 110.43 262.656 110.43C262.236 110.43 261.902 110.577 261.656 110.87C261.416 111.157 261.296 111.53 261.296 111.99V112.02H264.036ZM266.411 115C266.345 115 266.288 114.98 266.241 114.94C266.201 114.893 266.181 114.837 266.181 114.77V110.03C266.181 109.963 266.201 109.91 266.241 109.87C266.288 109.823 266.345 109.8 266.411 109.8H266.881C266.948 109.8 267.001 109.823 267.041 109.87C267.088 109.91 267.111 109.963 267.111 110.03V110.47C267.305 110.223 267.531 110.033 267.791 109.9C268.058 109.767 268.388 109.7 268.781 109.7C269.421 109.7 269.918 109.907 270.271 110.32C270.631 110.727 270.811 111.27 270.811 111.95V114.77C270.811 114.837 270.788 114.893 270.741 114.94C270.701 114.98 270.648 115 270.581 115H270.081C270.015 115 269.958 114.98 269.911 114.94C269.871 114.893 269.851 114.837 269.851 114.77V112C269.851 111.527 269.735 111.16 269.501 110.9C269.275 110.64 268.945 110.51 268.511 110.51C268.091 110.51 267.758 110.643 267.511 110.91C267.265 111.17 267.141 111.533 267.141 112V114.77C267.141 114.837 267.118 114.893 267.071 114.94C267.031 114.98 266.978 115 266.911 115H266.411ZM274.208 115C273.154 115 272.628 114.413 272.628 113.24V110.6H271.848C271.781 110.6 271.724 110.58 271.678 110.54C271.638 110.493 271.618 110.437 271.618 110.37V110.03C271.618 109.963 271.638 109.91 271.678 109.87C271.724 109.823 271.781 109.8 271.848 109.8H272.628V108.13C272.628 108.063 272.648 108.01 272.688 107.97C272.734 107.923 272.791 107.9 272.858 107.9H273.328C273.394 107.9 273.448 107.923 273.488 107.97C273.534 108.01 273.558 108.063 273.558 108.13V109.8H274.798C274.864 109.8 274.918 109.823 274.958 109.87C275.004 109.91 275.028 109.963 275.028 110.03V110.37C275.028 110.437 275.004 110.493 274.958 110.54C274.918 110.58 274.864 110.6 274.798 110.6H273.558V113.17C273.558 113.503 273.614 113.757 273.728 113.93C273.841 114.097 274.028 114.18 274.288 114.18H274.898C274.964 114.18 275.018 114.203 275.058 114.25C275.104 114.29 275.128 114.343 275.128 114.41V114.77C275.128 114.837 275.104 114.893 275.058 114.94C275.018 114.98 274.964 115 274.898 115H274.208ZM278.515 115C278.448 115 278.392 114.98 278.345 114.94C278.305 114.893 278.285 114.837 278.285 114.77V114.45C278.285 114.297 278.368 114.15 278.535 114.01L280.655 111.89C281.168 111.463 281.522 111.117 281.715 110.85C281.908 110.577 282.005 110.29 282.005 109.99C282.005 109.603 281.895 109.3 281.675 109.08C281.462 108.86 281.148 108.75 280.735 108.75C280.348 108.75 280.038 108.867 279.805 109.1C279.572 109.327 279.428 109.63 279.375 110.01C279.362 110.09 279.328 110.15 279.275 110.19C279.228 110.223 279.175 110.24 279.115 110.24H278.595C278.535 110.24 278.485 110.223 278.445 110.19C278.405 110.15 278.385 110.103 278.385 110.05C278.398 109.69 278.495 109.347 278.675 109.02C278.855 108.687 279.118 108.417 279.465 108.21C279.818 107.997 280.242 107.89 280.735 107.89C281.488 107.89 282.055 108.087 282.435 108.48C282.822 108.867 283.015 109.36 283.015 109.96C283.015 110.38 282.908 110.76 282.695 111.1C282.488 111.433 282.165 111.793 281.725 112.18L279.805 114.13H282.925C282.998 114.13 283.055 114.153 283.095 114.2C283.142 114.24 283.165 114.293 283.165 114.36V114.77C283.165 114.837 283.142 114.893 283.095 114.94C283.048 114.98 282.992 115 282.925 115H278.515Z" fill="#4E4E4E"/>
<path d="M315.088 115.1C314.401 115.1 313.851 114.89 313.438 114.47C313.031 114.043 312.808 113.463 312.768 112.73L312.758 112.39L312.768 112.06C312.814 111.34 313.041 110.767 313.448 110.34C313.861 109.913 314.404 109.7 315.078 109.7C315.818 109.7 316.391 109.937 316.798 110.41C317.204 110.877 317.408 111.51 317.408 112.31V112.48C317.408 112.547 317.384 112.603 317.338 112.65C317.298 112.69 317.244 112.71 317.178 112.71H313.718V112.8C313.738 113.233 313.868 113.603 314.108 113.91C314.354 114.21 314.678 114.36 315.078 114.36C315.384 114.36 315.634 114.3 315.828 114.18C316.028 114.053 316.174 113.923 316.268 113.79C316.328 113.71 316.371 113.663 316.398 113.65C316.431 113.63 316.488 113.62 316.568 113.62H317.058C317.118 113.62 317.168 113.637 317.208 113.67C317.248 113.703 317.268 113.75 317.268 113.81C317.268 113.957 317.174 114.133 316.988 114.34C316.808 114.547 316.551 114.727 316.218 114.88C315.891 115.027 315.514 115.1 315.088 115.1ZM316.458 112.02V111.99C316.458 111.53 316.331 111.157 316.078 110.87C315.831 110.577 315.498 110.43 315.078 110.43C314.658 110.43 314.324 110.577 314.078 110.87C313.838 111.157 313.718 111.53 313.718 111.99V112.02H316.458ZM318.843 115C318.777 115 318.72 114.98 318.673 114.94C318.633 114.893 318.613 114.837 318.613 114.77V108.13C318.613 108.063 318.633 108.01 318.673 107.97C318.72 107.923 318.777 107.9 318.843 107.9H319.313C319.38 107.9 319.433 107.923 319.473 107.97C319.52 108.01 319.543 108.063 319.543 108.13V114.77C319.543 114.837 319.52 114.893 319.473 114.94C319.433 114.98 319.38 115 319.313 115H318.843ZM323.115 115.1C322.428 115.1 321.878 114.89 321.465 114.47C321.058 114.043 320.835 113.463 320.795 112.73L320.785 112.39L320.795 112.06C320.842 111.34 321.068 110.767 321.475 110.34C321.888 109.913 322.432 109.7 323.105 109.7C323.845 109.7 324.418 109.937 324.825 110.41C325.232 110.877 325.435 111.51 325.435 112.31V112.48C325.435 112.547 325.412 112.603 325.365 112.65C325.325 112.69 325.272 112.71 325.205 112.71H321.745V112.8C321.765 113.233 321.895 113.603 322.135 113.91C322.382 114.21 322.705 114.36 323.105 114.36C323.412 114.36 323.662 114.3 323.855 114.18C324.055 114.053 324.202 113.923 324.295 113.79C324.355 113.71 324.398 113.663 324.425 113.65C324.458 113.63 324.515 113.62 324.595 113.62H325.085C325.145 113.62 325.195 113.637 325.235 113.67C325.275 113.703 325.295 113.75 325.295 113.81C325.295 113.957 325.202 114.133 325.015 114.34C324.835 114.547 324.578 114.727 324.245 114.88C323.918 115.027 323.542 115.1 323.115 115.1ZM324.485 112.02V111.99C324.485 111.53 324.358 111.157 324.105 110.87C323.858 110.577 323.525 110.43 323.105 110.43C322.685 110.43 322.352 110.577 322.105 110.87C321.865 111.157 321.745 111.53 321.745 111.99V112.02H324.485ZM326.861 115C326.794 115 326.737 114.98 326.691 114.94C326.651 114.893 326.631 114.837 326.631 114.77V110.03C326.631 109.963 326.651 109.91 326.691 109.87C326.737 109.823 326.794 109.8 326.861 109.8H327.311C327.377 109.8 327.431 109.823 327.471 109.87C327.517 109.91 327.541 109.963 327.541 110.03V110.38C327.887 109.927 328.371 109.7 328.991 109.7C329.731 109.7 330.254 110.007 330.561 110.62C330.721 110.34 330.947 110.117 331.241 109.95C331.534 109.783 331.864 109.7 332.231 109.7C332.777 109.7 333.224 109.887 333.571 110.26C333.917 110.633 334.091 111.173 334.091 111.88V114.77C334.091 114.837 334.067 114.893 334.021 114.94C333.981 114.98 333.927 115 333.861 115H333.391C333.324 115 333.267 114.98 333.221 114.94C333.181 114.893 333.161 114.837 333.161 114.77V111.97C333.161 111.45 333.051 111.077 332.831 110.85C332.617 110.623 332.334 110.51 331.981 110.51C331.667 110.51 331.397 110.627 331.171 110.86C330.944 111.087 330.831 111.457 330.831 111.97V114.77C330.831 114.837 330.807 114.893 330.761 114.94C330.721 114.98 330.667 115 330.601 115H330.131C330.064 115 330.007 114.98 329.961 114.94C329.921 114.893 329.901 114.837 329.901 114.77V111.97C329.901 111.45 329.787 111.077 329.561 110.85C329.341 110.623 329.061 110.51 328.721 110.51C328.407 110.51 328.137 110.627 327.911 110.86C327.684 111.087 327.571 111.453 327.571 111.96V114.77C327.571 114.837 327.547 114.893 327.501 114.94C327.461 114.98 327.407 115 327.341 115H326.861ZM337.597 115.1C336.911 115.1 336.361 114.89 335.947 114.47C335.541 114.043 335.317 113.463 335.277 112.73L335.267 112.39L335.277 112.06C335.324 111.34 335.551 110.767 335.957 110.34C336.371 109.913 336.914 109.7 337.587 109.7C338.327 109.7 338.901 109.937 339.307 110.41C339.714 110.877 339.917 111.51 339.917 112.31V112.48C339.917 112.547 339.894 112.603 339.847 112.65C339.807 112.69 339.754 112.71 339.687 112.71H336.227V112.8C336.247 113.233 336.377 113.603 336.617 113.91C336.864 114.21 337.187 114.36 337.587 114.36C337.894 114.36 338.144 114.3 338.337 114.18C338.537 114.053 338.684 113.923 338.777 113.79C338.837 113.71 338.881 113.663 338.907 113.65C338.941 113.63 338.997 113.62 339.077 113.62H339.567C339.627 113.62 339.677 113.637 339.717 113.67C339.757 113.703 339.777 113.75 339.777 113.81C339.777 113.957 339.684 114.133 339.497 114.34C339.317 114.547 339.061 114.727 338.727 114.88C338.401 115.027 338.024 115.1 337.597 115.1ZM338.967 112.02V111.99C338.967 111.53 338.841 111.157 338.587 110.87C338.341 110.577 338.007 110.43 337.587 110.43C337.167 110.43 336.834 110.577 336.587 110.87C336.347 111.157 336.227 111.53 336.227 111.99V112.02H338.967ZM341.343 115C341.276 115 341.22 114.98 341.173 114.94C341.133 114.893 341.113 114.837 341.113 114.77V110.03C341.113 109.963 341.133 109.91 341.173 109.87C341.22 109.823 341.276 109.8 341.343 109.8H341.813C341.88 109.8 341.933 109.823 341.973 109.87C342.02 109.91 342.043 109.963 342.043 110.03V110.47C342.236 110.223 342.463 110.033 342.723 109.9C342.99 109.767 343.32 109.7 343.713 109.7C344.353 109.7 344.85 109.907 345.203 110.32C345.563 110.727 345.743 111.27 345.743 111.95V114.77C345.743 114.837 345.72 114.893 345.673 114.94C345.633 114.98 345.58 115 345.513 115H345.013C344.946 115 344.89 114.98 344.843 114.94C344.803 114.893 344.783 114.837 344.783 114.77V112C344.783 111.527 344.666 111.16 344.433 110.9C344.206 110.64 343.876 110.51 343.443 110.51C343.023 110.51 342.69 110.643 342.443 110.91C342.196 111.17 342.073 111.533 342.073 112V114.77C342.073 114.837 342.05 114.893 342.003 114.94C341.963 114.98 341.91 115 341.843 115H341.343ZM349.139 115C348.086 115 347.559 114.413 347.559 113.24V110.6H346.779C346.712 110.6 346.656 110.58 346.609 110.54C346.569 110.493 346.549 110.437 346.549 110.37V110.03C346.549 109.963 346.569 109.91 346.609 109.87C346.656 109.823 346.712 109.8 346.779 109.8H347.559V108.13C347.559 108.063 347.579 108.01 347.619 107.97C347.666 107.923 347.722 107.9 347.789 107.9H348.259C348.326 107.9 348.379 107.923 348.419 107.97C348.466 108.01 348.489 108.063 348.489 108.13V109.8H349.729C349.796 109.8 349.849 109.823 349.889 109.87C349.936 109.91 349.959 109.963 349.959 110.03V110.37C349.959 110.437 349.936 110.493 349.889 110.54C349.849 110.58 349.796 110.6 349.729 110.6H348.489V113.17C348.489 113.503 348.546 113.757 348.659 113.93C348.772 114.097 348.959 114.18 349.219 114.18H349.829C349.896 114.18 349.949 114.203 349.989 114.25C350.036 114.29 350.059 114.343 350.059 114.41V114.77C350.059 114.837 350.036 114.893 349.989 114.94C349.949 114.98 349.896 115 349.829 115H349.139ZM355.707 115.1C355.18 115.1 354.723 115.017 354.337 114.85C353.957 114.677 353.667 114.453 353.467 114.18C353.273 113.907 353.17 113.62 353.157 113.32C353.157 113.26 353.177 113.213 353.217 113.18C353.257 113.14 353.307 113.12 353.367 113.12H353.857C353.997 113.12 354.09 113.193 354.137 113.34C354.223 113.673 354.41 113.91 354.697 114.05C354.983 114.183 355.32 114.25 355.707 114.25C356.18 114.25 356.557 114.14 356.837 113.92C357.117 113.693 357.257 113.37 357.257 112.95C357.257 112.143 356.767 111.74 355.787 111.74H354.837C354.77 111.74 354.713 111.72 354.667 111.68C354.627 111.633 354.607 111.577 354.607 111.51V111.24C354.607 111.147 354.643 111.057 354.717 110.97L356.657 108.85H353.707C353.64 108.85 353.583 108.83 353.537 108.79C353.497 108.743 353.477 108.687 353.477 108.62V108.24C353.477 108.173 353.497 108.117 353.537 108.07C353.583 108.023 353.64 108 353.707 108H357.697C357.77 108 357.827 108.023 357.867 108.07C357.913 108.11 357.937 108.167 357.937 108.24V108.6C357.937 108.68 357.9 108.757 357.827 108.83L355.897 110.98L356.057 110.99C356.737 111.01 357.273 111.187 357.667 111.52C358.06 111.853 358.257 112.34 358.257 112.98C358.257 113.413 358.147 113.79 357.927 114.11C357.707 114.43 357.403 114.677 357.017 114.85C356.63 115.017 356.193 115.1 355.707 115.1Z" fill="#4E4E4E"/>
<path d="M214.409 34C214.263 34 214.145 33.956 214.057 33.868C213.969 33.78 213.925 33.6627 213.925 33.516V19.106C213.925 18.9593 213.969 18.842 214.057 18.754C214.145 18.6513 214.263 18.6 214.409 18.6H222.901C223.063 18.6 223.187 18.644 223.275 18.732C223.363 18.82 223.407 18.9447 223.407 19.106V19.436C223.407 19.5827 223.356 19.7 223.253 19.788C223.165 19.876 223.048 19.92 222.901 19.92H215.311V25.838H222.461C222.623 25.838 222.747 25.882 222.835 25.97C222.923 26.058 222.967 26.1827 222.967 26.344V26.674C222.967 26.8207 222.916 26.938 222.813 27.026C222.725 27.114 222.608 27.158 222.461 27.158H215.311V33.516C215.311 33.6627 215.26 33.78 215.157 33.868C215.069 33.956 214.952 34 214.805 34H214.409ZM225.57 37.74C225.424 37.74 225.306 37.696 225.218 37.608C225.13 37.52 225.086 37.4027 225.086 37.256V36.882C225.086 36.7647 225.123 36.6473 225.196 36.53C225.27 36.4273 225.409 36.3027 225.614 36.156L226.692 35.386C227.499 34.7993 228.071 34.3667 228.408 34.088C228.76 33.824 229.024 33.56 229.2 33.296C229.391 33.0173 229.486 32.7093 229.486 32.372C229.486 32.0053 229.347 31.712 229.068 31.492C228.79 31.2573 228.452 31.14 228.056 31.14C227.602 31.14 227.272 31.2207 227.066 31.382C226.876 31.5433 226.751 31.69 226.692 31.822C226.619 31.9687 226.575 32.0567 226.56 32.086C226.472 32.2473 226.392 32.3573 226.318 32.416C226.245 32.46 226.15 32.482 226.032 32.482H225.702C225.438 32.482 225.306 32.3573 225.306 32.108C225.306 31.7707 225.431 31.4333 225.68 31.096C225.93 30.744 226.267 30.4653 226.692 30.26C227.118 30.04 227.572 29.93 228.056 29.93C228.863 29.93 229.516 30.172 230.014 30.656C230.513 31.14 230.762 31.712 230.762 32.372C230.762 32.9 230.645 33.3693 230.41 33.78C230.19 34.176 229.846 34.5647 229.376 34.946C228.922 35.3273 228.218 35.848 227.264 36.508H230.608C230.755 36.508 230.872 36.552 230.96 36.64C231.048 36.728 231.092 36.8453 231.092 36.992V37.256C231.092 37.4027 231.048 37.52 230.96 37.608C230.872 37.696 230.755 37.74 230.608 37.74H225.57ZM232.939 37.74C232.793 37.74 232.675 37.696 232.587 37.608C232.499 37.52 232.455 37.4027 232.455 37.256V36.882C232.455 36.7647 232.492 36.6473 232.565 36.53C232.639 36.4273 232.778 36.3027 232.983 36.156L234.061 35.386C234.868 34.7993 235.44 34.3667 235.777 34.088C236.129 33.824 236.393 33.56 236.569 33.296C236.76 33.0173 236.855 32.7093 236.855 32.372C236.855 32.0053 236.716 31.712 236.437 31.492C236.159 31.2573 235.821 31.14 235.425 31.14C234.971 31.14 234.641 31.2207 234.435 31.382C234.245 31.5433 234.12 31.69 234.061 31.822C233.988 31.9687 233.944 32.0567 233.929 32.086C233.841 32.2473 233.761 32.3573 233.687 32.416C233.614 32.46 233.519 32.482 233.401 32.482H233.071C232.807 32.482 232.675 32.3573 232.675 32.108C232.675 31.7707 232.8 31.4333 233.049 31.096C233.299 30.744 233.636 30.4653 234.061 30.26C234.487 30.04 234.941 29.93 235.425 29.93C236.232 29.93 236.885 30.172 237.383 30.656C237.882 31.14 238.131 31.712 238.131 32.372C238.131 32.9 238.014 33.3693 237.779 33.78C237.559 34.176 237.215 34.5647 236.745 34.946C236.291 35.3273 235.587 35.848 234.633 36.508H237.977C238.124 36.508 238.241 36.552 238.329 36.64C238.417 36.728 238.461 36.8453 238.461 36.992V37.256C238.461 37.4027 238.417 37.52 238.329 37.608C238.241 37.696 238.124 37.74 237.977 37.74H232.939Z" fill="#4E4E4E"/>
<path d="M72 59L69.1132 64L74.8868 64L72 59ZM72.5 89L72.5 63.5L71.5 63.5L71.5 89L72.5 89Z" fill="#4E4E4E"/>
<path d="M228.548 86C228.401 86 228.284 85.956 228.196 85.868C228.108 85.78 228.064 85.6627 228.064 85.516V71.106C228.064 70.9593 228.108 70.842 228.196 70.754C228.284 70.6513 228.401 70.6 228.548 70.6H237.04C237.201 70.6 237.326 70.644 237.414 70.732C237.502 70.82 237.546 70.9447 237.546 71.106V71.436C237.546 71.5827 237.495 71.7 237.392 71.788C237.304 71.876 237.187 71.92 237.04 71.92H229.45V77.838H236.6C236.761 77.838 236.886 77.882 236.974 77.97C237.062 78.058 237.106 78.1827 237.106 78.344V78.674C237.106 78.8207 237.055 78.938 236.952 79.026C236.864 79.114 236.747 79.158 236.6 79.158H229.45V85.516C229.45 85.6627 229.399 85.78 229.296 85.868C229.208 85.956 229.091 86 228.944 86H228.548ZM239.709 89.74C239.562 89.74 239.445 89.696 239.357 89.608C239.269 89.52 239.225 89.4027 239.225 89.256V88.882C239.225 88.7647 239.262 88.6473 239.335 88.53C239.408 88.4273 239.548 88.3027 239.753 88.156L240.831 87.386C241.638 86.7993 242.21 86.3667 242.547 86.088C242.899 85.824 243.163 85.56 243.339 85.296C243.53 85.0173 243.625 84.7093 243.625 84.372C243.625 84.0053 243.486 83.712 243.207 83.492C242.928 83.2573 242.591 83.14 242.195 83.14C241.74 83.14 241.41 83.2207 241.205 83.382C241.014 83.5433 240.89 83.69 240.831 83.822C240.758 83.9687 240.714 84.0567 240.699 84.086C240.611 84.2473 240.53 84.3573 240.457 84.416C240.384 84.46 240.288 84.482 240.171 84.482H239.841C239.577 84.482 239.445 84.3573 239.445 84.108C239.445 83.7707 239.57 83.4333 239.819 83.096C240.068 82.744 240.406 82.4653 240.831 82.26C241.256 82.04 241.711 81.93 242.195 81.93C243.002 81.93 243.654 82.172 244.153 82.656C244.652 83.14 244.901 83.712 244.901 84.372C244.901 84.9 244.784 85.3693 244.549 85.78C244.329 86.176 243.984 86.5647 243.515 86.946C243.06 87.3273 242.356 87.848 241.403 88.508H244.747C244.894 88.508 245.011 88.552 245.099 88.64C245.187 88.728 245.231 88.8453 245.231 88.992V89.256C245.231 89.4027 245.187 89.52 245.099 89.608C245.011 89.696 244.894 89.74 244.747 89.74H239.709ZM249.124 89.74C248.977 89.74 248.86 89.696 248.772 89.608C248.684 89.52 248.64 89.4027 248.64 89.256V83.734L247.254 84.768C247.181 84.8267 247.085 84.856 246.968 84.856C246.821 84.856 246.689 84.79 246.572 84.658L246.418 84.438C246.345 84.3353 246.308 84.2327 246.308 84.13C246.308 83.9833 246.374 83.8587 246.506 83.756L248.618 82.194C248.765 82.0913 248.933 82.04 249.124 82.04H249.432C249.579 82.04 249.696 82.084 249.784 82.172C249.872 82.26 249.916 82.3773 249.916 82.524V89.256C249.916 89.4027 249.872 89.52 249.784 89.608C249.696 89.696 249.579 89.74 249.432 89.74H249.124Z" fill="#4E4E4E"/>
<path d="M65.5481 34C65.4014 34 65.2841 33.956 65.1961 33.868C65.1081 33.78 65.0641 33.6627 65.0641 33.516V19.106C65.0641 18.9593 65.1081 18.842 65.1961 18.754C65.2841 18.6513 65.4014 18.6 65.5481 18.6H74.0401C74.2014 18.6 74.3261 18.644 74.4141 18.732C74.5021 18.82 74.5461 18.9447 74.5461 19.106V19.436C74.5461 19.5827 74.4948 19.7 74.3921 19.788C74.3041 19.876 74.1868 19.92 74.0401 19.92H66.4501V25.838H73.6001C73.7614 25.838 73.8861 25.882 73.9741 25.97C74.0621 26.058 74.1061 26.1827 74.1061 26.344V26.674C74.1061 26.8207 74.0548 26.938 73.9521 27.026C73.8641 27.114 73.7468 27.158 73.6001 27.158H66.4501V33.516C66.4501 33.6627 66.3988 33.78 66.2961 33.868C66.2081 33.956 66.0908 34 65.9441 34H65.5481ZM78.755 37.74C78.6083 37.74 78.491 37.696 78.403 37.608C78.315 37.52 78.271 37.4027 78.271 37.256V31.734L76.885 32.768C76.8116 32.8267 76.7163 32.856 76.599 32.856C76.4523 32.856 76.3203 32.79 76.203 32.658L76.049 32.438C75.9756 32.3353 75.939 32.2327 75.939 32.13C75.939 31.9833 76.005 31.8587 76.137 31.756L78.249 30.194C78.3956 30.0913 78.5643 30.04 78.755 30.04H79.063C79.2096 30.04 79.327 30.084 79.415 30.172C79.503 30.26 79.547 30.3773 79.547 30.524V37.256C79.547 37.4027 79.503 37.52 79.415 37.608C79.327 37.696 79.2096 37.74 79.063 37.74H78.755ZM81.8008 37.74C81.6541 37.74 81.5368 37.696 81.4488 37.608C81.3608 37.52 81.3168 37.4027 81.3168 37.256V36.882C81.3168 36.7647 81.3534 36.6473 81.4268 36.53C81.5001 36.4273 81.6394 36.3027 81.8448 36.156L82.9228 35.386C83.7294 34.7993 84.3014 34.3667 84.6388 34.088C84.9908 33.824 85.2548 33.56 85.4308 33.296C85.6214 33.0173 85.7168 32.7093 85.7168 32.372C85.7168 32.0053 85.5774 31.712 85.2988 31.492C85.0201 31.2573 84.6828 31.14 84.2868 31.14C83.8321 31.14 83.5021 31.2207 83.2968 31.382C83.1061 31.5433 82.9814 31.69 82.9228 31.822C82.8494 31.9687 82.8054 32.0567 82.7908 32.086C82.7028 32.2473 82.6221 32.3573 82.5488 32.416C82.4754 32.46 82.3801 32.482 82.2628 32.482H81.9328C81.6688 32.482 81.5368 32.3573 81.5368 32.108C81.5368 31.7707 81.6614 31.4333 81.9108 31.096C82.1601 30.744 82.4974 30.4653 82.9228 30.26C83.3481 30.04 83.8028 29.93 84.2868 29.93C85.0934 29.93 85.7461 30.172 86.2448 30.656C86.7434 31.14 86.9928 31.712 86.9928 32.372C86.9928 32.9 86.8754 33.3693 86.6408 33.78C86.4208 34.176 86.0761 34.5647 85.6068 34.946C85.1521 35.3273 84.4481 35.848 83.4948 36.508H86.8388C86.9854 36.508 87.1028 36.552 87.1908 36.64C87.2788 36.728 87.3228 36.8453 87.3228 36.992V37.256C87.3228 37.4027 87.2788 37.52 87.1908 37.608C87.1028 37.696 86.9854 37.74 86.8388 37.74H81.8008Z" fill="#4E4E4E"/>
<path d="M78.1868 86C78.0401 86 77.9228 85.956 77.8348 85.868C77.7468 85.78 77.7028 85.6627 77.7028 85.516V71.106C77.7028 70.9593 77.7468 70.842 77.8348 70.754C77.9228 70.6513 78.0401 70.6 78.1868 70.6H86.6788C86.8401 70.6 86.9648 70.644 87.0528 70.732C87.1408 70.82 87.1848 70.9447 87.1848 71.106V71.436C87.1848 71.5827 87.1334 71.7 87.0308 71.788C86.9428 71.876 86.8254 71.92 86.6788 71.92H79.0888V77.838H86.2388C86.4001 77.838 86.5248 77.882 86.6128 77.97C86.7008 78.058 86.7448 78.1827 86.7448 78.344V78.674C86.7448 78.8207 86.6934 78.938 86.5908 79.026C86.5028 79.114 86.3854 79.158 86.2388 79.158H79.0888V85.516C79.0888 85.6627 79.0374 85.78 78.9348 85.868C78.8468 85.956 78.7294 86 78.5828 86H78.1868ZM91.3936 89.74C91.247 89.74 91.1296 89.696 91.0416 89.608C90.9536 89.52 90.9096 89.4027 90.9096 89.256V83.734L89.5236 84.768C89.4503 84.8267 89.355 84.856 89.2376 84.856C89.091 84.856 88.959 84.79 88.8416 84.658L88.6876 84.438C88.6143 84.3353 88.5776 84.2327 88.5776 84.13C88.5776 83.9833 88.6436 83.8587 88.7756 83.756L90.8876 82.194C91.0343 82.0913 91.203 82.04 91.3936 82.04H91.7016C91.8483 82.04 91.9656 82.084 92.0536 82.172C92.1416 82.26 92.1856 82.3773 92.1856 82.524V89.256C92.1856 89.4027 92.1416 89.52 92.0536 89.608C91.9656 89.696 91.8483 89.74 91.7016 89.74H91.3936ZM96.4854 89.74C96.3388 89.74 96.2214 89.696 96.1334 89.608C96.0454 89.52 96.0014 89.4027 96.0014 89.256V83.734L94.6154 84.768C94.5421 84.8267 94.4468 84.856 94.3294 84.856C94.1828 84.856 94.0508 84.79 93.9334 84.658L93.7794 84.438C93.7061 84.3353 93.6694 84.2327 93.6694 84.13C93.6694 83.9833 93.7354 83.8587 93.8674 83.756L95.9794 82.194C96.1261 82.0913 96.2948 82.04 96.4854 82.04H96.7934C96.9401 82.04 97.0574 82.084 97.1454 82.172C97.2334 82.26 97.2774 82.3773 97.2774 82.524V89.256C97.2774 89.4027 97.2334 89.52 97.1454 89.608C97.0574 89.696 96.9401 89.74 96.7934 89.74H96.4854Z" fill="#4E4E4E"/>
<path d="M86.2673 50.9354L87.9222 45.4041L82.3046 46.7366L86.2673 50.9354ZM60.5 52.1009C60.5 46.2869 65.2932 42.735 70.8728 41.7653C73.6486 41.2829 76.565 41.4568 79.0718 42.3C81.5782 43.143 83.6442 44.6427 84.7873 46.7914L85.6701 46.3217C84.3771 43.8913 82.0713 42.2538 79.3906 41.3521C76.7102 40.4506 73.6239 40.2722 70.7016 40.7801C64.885 41.791 59.5 45.5905 59.5 52.1009H60.5Z" fill="#4E4E4E"/>
<path d="M222 59L219.113 64L224.887 64L222 59ZM222.5 89L222.5 63.5L221.5 63.5L221.5 89L222.5 89Z" fill="#4E4E4E"/>
<path d="M236.267 50.9354L237.922 45.4041L232.305 46.7366L236.267 50.9354ZM210.5 52.1009C210.5 46.2869 215.293 42.735 220.873 41.7653C223.649 41.2829 226.565 41.4568 229.072 42.3C231.578 43.143 233.644 44.6427 234.787 46.7914L235.67 46.3217C234.377 43.8913 232.071 42.2538 229.391 41.3521C226.71 40.4506 223.624 40.2722 220.702 40.7801C214.885 41.791 209.5 45.5905 209.5 52.1009H210.5Z" fill="#4E4E4E"/>
<path d="M296 59L293.113 64L298.887 64L296 59ZM296.5 89L296.5 63.5L295.5 63.5L295.5 89L296.5 89Z" fill="#4E4E4E"/>
<path d="M310.267 50.9354L311.922 45.4041L306.305 46.7366L310.267 50.9354ZM284.5 52.1009C284.5 46.2869 289.293 42.735 294.873 41.7653C297.649 41.2829 300.565 41.4568 303.072 42.3C305.578 43.143 307.644 44.6427 308.787 46.7914L309.67 46.3217C308.377 43.8913 306.071 42.2538 303.391 41.3521C300.71 40.4506 297.624 40.2722 294.702 40.7801C288.885 41.791 283.5 45.5905 283.5 52.1009H284.5Z" fill="#4E4E4E"/>
<path d="M372 59L369.113 64L374.887 64L372 59ZM372.5 89L372.5 63.5L371.5 63.5L371.5 89L372.5 89Z" fill="#4E4E4E"/>
<path d="M386.267 50.9354L387.922 45.4041L382.305 46.7366L386.267 50.9354ZM360.5 52.1009C360.5 46.2869 365.293 42.735 370.873 41.7653C373.649 41.2829 376.565 41.4568 379.072 42.3C381.578 43.143 383.644 44.6427 384.787 46.7914L385.67 46.3217C384.377 43.8913 382.071 42.2538 379.391 41.3521C376.71 40.4506 373.624 40.2722 370.702 40.7801C364.885 41.791 359.5 45.5905 359.5 52.1009H360.5Z" fill="#4E4E4E"/>
<path d="M287.899 34C287.752 34 287.635 33.956 287.547 33.868C287.459 33.78 287.415 33.6627 287.415 33.516V19.106C287.415 18.9593 287.459 18.842 287.547 18.754C287.635 18.6513 287.752 18.6 287.899 18.6H296.391C296.552 18.6 296.677 18.644 296.765 18.732C296.853 18.82 296.897 18.9447 296.897 19.106V19.436C296.897 19.5827 296.845 19.7 296.743 19.788C296.655 19.876 296.537 19.92 296.391 19.92H288.801V25.838H295.951C296.112 25.838 296.237 25.882 296.325 25.97C296.413 26.058 296.457 26.1827 296.457 26.344V26.674C296.457 26.8207 296.405 26.938 296.303 27.026C296.215 27.114 296.097 27.158 295.951 27.158H288.801V33.516C288.801 33.6627 288.749 33.78 288.647 33.868C288.559 33.956 288.441 34 288.295 34H287.899ZM301.48 37.85C300.57 37.85 299.859 37.6813 299.346 37.344C298.832 37.0067 298.561 36.5887 298.532 36.09V36.046C298.532 35.9433 298.576 35.8553 298.664 35.782C298.752 35.7087 298.832 35.672 298.906 35.672H299.346C299.522 35.672 299.683 35.7747 299.83 35.98C299.991 36.2 300.167 36.3613 300.358 36.464C300.563 36.5667 300.937 36.618 301.48 36.618C301.978 36.618 302.389 36.5153 302.712 36.31C303.034 36.1193 303.196 35.8553 303.196 35.518C303.196 35.122 303.056 34.836 302.778 34.66C302.514 34.4987 302.125 34.418 301.612 34.418H300.732C300.585 34.418 300.468 34.374 300.38 34.286C300.292 34.198 300.248 34.0807 300.248 33.934V33.56C300.248 33.3987 300.336 33.23 300.512 33.054L302.47 31.272H299.346C299.199 31.272 299.082 31.228 298.994 31.14C298.906 31.052 298.862 30.9347 298.862 30.788V30.524C298.862 30.3773 298.906 30.26 298.994 30.172C299.082 30.084 299.199 30.04 299.346 30.04H303.702C303.848 30.04 303.966 30.084 304.054 30.172C304.142 30.26 304.186 30.3773 304.186 30.524V30.788C304.186 30.964 304.164 31.118 304.12 31.25C304.076 31.3673 303.98 31.4993 303.834 31.646L302.162 33.186C302.954 33.23 303.533 33.4647 303.9 33.89C304.281 34.3153 304.472 34.858 304.472 35.518C304.472 36.2513 304.208 36.8233 303.68 37.234C303.166 37.6447 302.433 37.85 301.48 37.85ZM306.45 37.74C306.304 37.74 306.186 37.696 306.098 37.608C306.01 37.52 305.966 37.4027 305.966 37.256V36.882C305.966 36.7647 306.003 36.6473 306.076 36.53C306.15 36.4273 306.289 36.3027 306.494 36.156L307.572 35.386C308.379 34.7993 308.951 34.3667 309.288 34.088C309.64 33.824 309.904 33.56 310.08 33.296C310.271 33.0173 310.366 32.7093 310.366 32.372C310.366 32.0053 310.227 31.712 309.948 31.492C309.67 31.2573 309.332 31.14 308.936 31.14C308.482 31.14 308.152 31.2207 307.946 31.382C307.756 31.5433 307.631 31.69 307.572 31.822C307.499 31.9687 307.455 32.0567 307.44 32.086C307.352 32.2473 307.272 32.3573 307.198 32.416C307.125 32.46 307.03 32.482 306.912 32.482H306.582C306.318 32.482 306.186 32.3573 306.186 32.108C306.186 31.7707 306.311 31.4333 306.56 31.096C306.81 30.744 307.147 30.4653 307.572 30.26C307.998 30.04 308.452 29.93 308.936 29.93C309.743 29.93 310.396 30.172 310.894 30.656C311.393 31.14 311.642 31.712 311.642 32.372C311.642 32.9 311.525 33.3693 311.29 33.78C311.07 34.176 310.726 34.5647 310.256 34.946C309.802 35.3273 309.098 35.848 308.144 36.508H311.488C311.635 36.508 311.752 36.552 311.84 36.64C311.928 36.728 311.972 36.8453 311.972 36.992V37.256C311.972 37.4027 311.928 37.52 311.84 37.608C311.752 37.696 311.635 37.74 311.488 37.74H306.45Z" fill="#4E4E4E"/>
<path d="M361.963 34C361.816 34 361.699 33.956 361.611 33.868C361.523 33.78 361.479 33.6627 361.479 33.516V19.106C361.479 18.9593 361.523 18.842 361.611 18.754C361.699 18.6513 361.816 18.6 361.963 18.6H370.455C370.616 18.6 370.741 18.644 370.829 18.732C370.917 18.82 370.961 18.9447 370.961 19.106V19.436C370.961 19.5827 370.91 19.7 370.807 19.788C370.719 19.876 370.602 19.92 370.455 19.92H362.865V25.838H370.015C370.176 25.838 370.301 25.882 370.389 25.97C370.477 26.058 370.521 26.1827 370.521 26.344V26.674C370.521 26.8207 370.47 26.938 370.367 27.026C370.279 27.114 370.162 27.158 370.015 27.158H362.865V33.516C362.865 33.6627 362.814 33.78 362.711 33.868C362.623 33.956 362.506 34 362.359 34H361.963ZM376.644 37.74C376.497 37.74 376.38 37.696 376.292 37.608C376.204 37.52 376.16 37.4027 376.16 37.256V36.09H372.926C372.779 36.09 372.662 36.046 372.574 35.958C372.486 35.87 372.442 35.7527 372.442 35.606V35.32C372.442 35.1147 372.53 34.8947 372.706 34.66L375.72 30.436C375.911 30.172 376.131 30.04 376.38 30.04H376.952C377.099 30.04 377.216 30.084 377.304 30.172C377.392 30.26 377.436 30.3773 377.436 30.524V34.858H378.206C378.353 34.858 378.47 34.902 378.558 34.99C378.646 35.078 378.69 35.1953 378.69 35.342V35.606C378.69 35.7527 378.646 35.87 378.558 35.958C378.47 36.046 378.353 36.09 378.206 36.09H377.436V37.256C377.436 37.4027 377.392 37.52 377.304 37.608C377.216 37.696 377.099 37.74 376.952 37.74H376.644ZM376.16 34.858V31.888L374.092 34.858H376.16ZM380.386 37.74C380.239 37.74 380.122 37.696 380.034 37.608C379.946 37.52 379.902 37.4027 379.902 37.256V36.882C379.902 36.7647 379.938 36.6473 380.012 36.53C380.085 36.4273 380.224 36.3027 380.43 36.156L381.508 35.386C382.314 34.7993 382.886 34.3667 383.224 34.088C383.576 33.824 383.84 33.56 384.016 33.296C384.206 33.0173 384.302 32.7093 384.302 32.372C384.302 32.0053 384.162 31.712 383.884 31.492C383.605 31.2573 383.268 31.14 382.872 31.14C382.417 31.14 382.087 31.2207 381.882 31.382C381.691 31.5433 381.566 31.69 381.508 31.822C381.434 31.9687 381.39 32.0567 381.376 32.086C381.288 32.2473 381.207 32.3573 381.134 32.416C381.06 32.46 380.965 32.482 380.848 32.482H380.518C380.254 32.482 380.122 32.3573 380.122 32.108C380.122 31.7707 380.246 31.4333 380.496 31.096C380.745 30.744 381.082 30.4653 381.508 30.26C381.933 30.04 382.388 29.93 382.872 29.93C383.678 29.93 384.331 30.172 384.83 30.656C385.328 31.14 385.578 31.712 385.578 32.372C385.578 32.9 385.46 33.3693 385.226 33.78C385.006 34.176 384.661 34.5647 384.192 34.946C383.737 35.3273 383.033 35.848 382.08 36.508H385.424C385.57 36.508 385.688 36.552 385.776 36.64C385.864 36.728 385.908 36.8453 385.908 36.992V37.256C385.908 37.4027 385.864 37.52 385.776 37.608C385.688 37.696 385.57 37.74 385.424 37.74H380.386Z" fill="#4E4E4E"/>
<path d="M302.537 86C302.391 86 302.273 85.956 302.185 85.868C302.097 85.78 302.053 85.6627 302.053 85.516V71.106C302.053 70.9593 302.097 70.842 302.185 70.754C302.273 70.6513 302.391 70.6 302.537 70.6H311.029C311.191 70.6 311.315 70.644 311.403 70.732C311.491 70.82 311.535 70.9447 311.535 71.106V71.436C311.535 71.5827 311.484 71.7 311.381 71.788C311.293 71.876 311.176 71.92 311.029 71.92H303.439V77.838H310.589C310.751 77.838 310.875 77.882 310.963 77.97C311.051 78.058 311.095 78.1827 311.095 78.344V78.674C311.095 78.8207 311.044 78.938 310.941 79.026C310.853 79.114 310.736 79.158 310.589 79.158H303.439V85.516C303.439 85.6627 303.388 85.78 303.285 85.868C303.197 85.956 303.08 86 302.933 86H302.537ZM316.118 89.85C315.209 89.85 314.498 89.6813 313.984 89.344C313.471 89.0067 313.2 88.5887 313.17 88.09V88.046C313.17 87.9433 313.214 87.8553 313.302 87.782C313.39 87.7087 313.471 87.672 313.544 87.672H313.984C314.16 87.672 314.322 87.7747 314.468 87.98C314.63 88.2 314.806 88.3613 314.996 88.464C315.202 88.5667 315.576 88.618 316.118 88.618C316.617 88.618 317.028 88.5153 317.35 88.31C317.673 88.1193 317.834 87.8553 317.834 87.518C317.834 87.122 317.695 86.836 317.416 86.66C317.152 86.4987 316.764 86.418 316.25 86.418H315.37C315.224 86.418 315.106 86.374 315.018 86.286C314.93 86.198 314.886 86.0807 314.886 85.934V85.56C314.886 85.3987 314.974 85.23 315.15 85.054L317.108 83.272H313.984C313.838 83.272 313.72 83.228 313.632 83.14C313.544 83.052 313.5 82.9347 313.5 82.788V82.524C313.5 82.3773 313.544 82.26 313.632 82.172C313.72 82.084 313.838 82.04 313.984 82.04H318.34C318.487 82.04 318.604 82.084 318.692 82.172C318.78 82.26 318.824 82.3773 318.824 82.524V82.788C318.824 82.964 318.802 83.118 318.758 83.25C318.714 83.3673 318.619 83.4993 318.472 83.646L316.8 85.186C317.592 85.23 318.172 85.4647 318.538 85.89C318.92 86.3153 319.11 86.858 319.11 87.518C319.11 88.2513 318.846 88.8233 318.318 89.234C317.805 89.6447 317.072 89.85 316.118 89.85ZM323.135 89.74C322.988 89.74 322.871 89.696 322.783 89.608C322.695 89.52 322.651 89.4027 322.651 89.256V83.734L321.265 84.768C321.192 84.8267 321.096 84.856 320.979 84.856C320.832 84.856 320.7 84.79 320.583 84.658L320.429 84.438C320.356 84.3353 320.319 84.2327 320.319 84.13C320.319 83.9833 320.385 83.8587 320.517 83.756L322.629 82.194C322.776 82.0913 322.944 82.04 323.135 82.04H323.443C323.59 82.04 323.707 82.084 323.795 82.172C323.883 82.26 323.927 82.3773 323.927 82.524V89.256C323.927 89.4027 323.883 89.52 323.795 89.608C323.707 89.696 323.59 89.74 323.443 89.74H323.135Z" fill="#4E4E4E"/>
<path d="M378.602 86C378.455 86 378.338 85.956 378.25 85.868C378.162 85.78 378.118 85.6627 378.118 85.516V71.106C378.118 70.9593 378.162 70.842 378.25 70.754C378.338 70.6513 378.455 70.6 378.602 70.6H387.094C387.255 70.6 387.38 70.644 387.468 70.732C387.556 70.82 387.6 70.9447 387.6 71.106V71.436C387.6 71.5827 387.548 71.7 387.446 71.788C387.358 71.876 387.24 71.92 387.094 71.92H379.504V77.838H386.654C386.815 77.838 386.94 77.882 387.028 77.97C387.116 78.058 387.16 78.1827 387.16 78.344V78.674C387.16 78.8207 387.108 78.938 387.006 79.026C386.918 79.114 386.8 79.158 386.654 79.158H379.504V85.516C379.504 85.6627 379.452 85.78 379.35 85.868C379.262 85.956 379.144 86 378.998 86H378.602ZM393.283 89.74C393.136 89.74 393.019 89.696 392.931 89.608C392.843 89.52 392.799 89.4027 392.799 89.256V88.09H389.565C389.418 88.09 389.301 88.046 389.213 87.958C389.125 87.87 389.081 87.7527 389.081 87.606V87.32C389.081 87.1147 389.169 86.8947 389.345 86.66L392.359 82.436C392.549 82.172 392.769 82.04 393.019 82.04H393.591C393.737 82.04 393.855 82.084 393.943 82.172C394.031 82.26 394.075 82.3773 394.075 82.524V86.858H394.845C394.991 86.858 395.109 86.902 395.197 86.99C395.285 87.078 395.329 87.1953 395.329 87.342V87.606C395.329 87.7527 395.285 87.87 395.197 87.958C395.109 88.046 394.991 88.09 394.845 88.09H394.075V89.256C394.075 89.4027 394.031 89.52 393.943 89.608C393.855 89.696 393.737 89.74 393.591 89.74H393.283ZM392.799 86.858V83.888L390.731 86.858H392.799ZM399.07 89.74C398.924 89.74 398.806 89.696 398.718 89.608C398.63 89.52 398.586 89.4027 398.586 89.256V83.734L397.2 84.768C397.127 84.8267 397.032 84.856 396.914 84.856C396.768 84.856 396.636 84.79 396.518 84.658L396.364 84.438C396.291 84.3353 396.254 84.2327 396.254 84.13C396.254 83.9833 396.32 83.8587 396.452 83.756L398.564 82.194C398.711 82.0913 398.88 82.04 399.07 82.04H399.378C399.525 82.04 399.642 82.084 399.73 82.172C399.818 82.26 399.862 82.3773 399.862 82.524V89.256C399.862 89.4027 399.818 89.52 399.73 89.608C399.642 89.696 399.525 89.74 399.378 89.74H399.07Z" fill="#4E4E4E"/>
</svg>
